<?xml version="1.0" encoding="utf-8" standalone="no"?>
<!DOCTYPE svg PUBLIC "-//W3C//DTD SVG 1.1//EN"
  "http://www.w3.org/Graphics/SVG/1.1/DTD/svg11.dtd">
<svg xmlns:xlink="http://www.w3.org/1999/xlink" width="453.543307pt" height="453.543307pt" viewBox="0 0 453.543307 453.543307" xmlns="http://www.w3.org/2000/svg" version="1.1">
 <metadata>
  <rdf:RDF xmlns:dc="http://purl.org/dc/elements/1.1/" xmlns:cc="http://creativecommons.org/ns#" xmlns:rdf="http://www.w3.org/1999/02/22-rdf-syntax-ns#">
   <cc:Work>
    <dc:type rdf:resource="http://purl.org/dc/dcmitype/StillImage"/>
    <dc:date>2026-01-07T18:09:35.918279</dc:date>
    <dc:format>image/svg+xml</dc:format>
    <dc:creator>
     <cc:Agent>
      <dc:title>Matplotlib v3.9.3, https://matplotlib.org/</dc:title>
     </cc:Agent>
    </dc:creator>
   </cc:Work>
  </rdf:RDF>
 </metadata>
 <defs>
  <style type="text/css">*{stroke-linejoin: round; stroke-linecap: butt}</style>
 </defs>
 <g id="figure_1">
  <g id="patch_1">
   <path d="M 0 453.543307 
L 453.543307 453.543307 
L 453.543307 0 
L 0 0 
z
" style="fill: #ffffff"/>
  </g>
  <g id="axes_1">
   <g id="patch_2">
    <path d="M 42.054303 360.967755 
L 307.013692 360.967755 
L 307.013692 3.00024 
L 42.054303 3.00024 
z
" style="fill: #ffffff"/>
   </g>
   <g id="matplotlib.axis_1">
    <g id="xtick_1">
     <g id="line2d_1">
      <path d="M 54.097911 360.967755 
L 54.097911 3.00024 
" clip-path="url(#p9497709687)" style="fill: none; stroke: #cccccc; stroke-linecap: round"/>
     </g>
     <g id="text_1">
      <!-- Keiler, -->
      <g style="fill: #262626" transform="translate(51.124302 414.179005) rotate(-90) scale(0.11 -0.11)">
       <defs>
        <path id="ArialMT-4b" d="M 469 0 
L 469 4581 
L 1075 4581 
L 1075 2309 
L 3350 4581 
L 4172 4581 
L 2250 2725 
L 4256 0 
L 3456 0 
L 1825 2319 
L 1075 1588 
L 1075 0 
L 469 0 
z
" transform="scale(0.015625)"/>
        <path id="ArialMT-65" d="M 2694 1069 
L 3275 997 
Q 3138 488 2766 206 
Q 2394 -75 1816 -75 
Q 1088 -75 661 373 
Q 234 822 234 1631 
Q 234 2469 665 2931 
Q 1097 3394 1784 3394 
Q 2450 3394 2872 2941 
Q 3294 2488 3294 1666 
Q 3294 1616 3291 1516 
L 816 1516 
Q 847 969 1125 678 
Q 1403 388 1819 388 
Q 2128 388 2347 550 
Q 2566 713 2694 1069 
z
M 847 1978 
L 2700 1978 
Q 2663 2397 2488 2606 
Q 2219 2931 1791 2931 
Q 1403 2931 1139 2672 
Q 875 2413 847 1978 
z
" transform="scale(0.015625)"/>
        <path id="ArialMT-69" d="M 425 3934 
L 425 4581 
L 988 4581 
L 988 3934 
L 425 3934 
z
M 425 0 
L 425 3319 
L 988 3319 
L 988 0 
L 425 0 
z
" transform="scale(0.015625)"/>
        <path id="ArialMT-6c" d="M 409 0 
L 409 4581 
L 972 4581 
L 972 0 
L 409 0 
z
" transform="scale(0.015625)"/>
        <path id="ArialMT-72" d="M 416 0 
L 416 3319 
L 922 3319 
L 922 2816 
Q 1116 3169 1280 3281 
Q 1444 3394 1641 3394 
Q 1925 3394 2219 3213 
L 2025 2691 
Q 1819 2813 1613 2813 
Q 1428 2813 1281 2702 
Q 1134 2591 1072 2394 
Q 978 2094 978 1738 
L 978 0 
L 416 0 
z
" transform="scale(0.015625)"/>
        <path id="ArialMT-2c" d="M 569 0 
L 569 641 
L 1209 641 
L 1209 0 
Q 1209 -353 1084 -570 
Q 959 -788 688 -906 
L 531 -666 
Q 709 -588 793 -436 
Q 878 -284 888 0 
L 569 0 
z
" transform="scale(0.015625)"/>
       </defs>
       <use xlink:href="#ArialMT-4b"/>
       <use xlink:href="#ArialMT-65" x="66.699219"/>
       <use xlink:href="#ArialMT-69" x="122.314453"/>
       <use xlink:href="#ArialMT-6c" x="144.53125"/>
       <use xlink:href="#ArialMT-65" x="166.748047"/>
       <use xlink:href="#ArialMT-72" x="222.363281"/>
       <use xlink:href="#ArialMT-2c" x="250.164062"/>
      </g>
      <!-- Melia, 3 mo -->
      <g style="fill: #262626" transform="translate(62.758864 427.31713) rotate(-90) scale(0.11 -0.11)">
       <defs>
        <path id="ArialMT-4d" d="M 475 0 
L 475 4581 
L 1388 4581 
L 2472 1338 
Q 2622 884 2691 659 
Q 2769 909 2934 1394 
L 4031 4581 
L 4847 4581 
L 4847 0 
L 4263 0 
L 4263 3834 
L 2931 0 
L 2384 0 
L 1059 3900 
L 1059 0 
L 475 0 
z
" transform="scale(0.015625)"/>
        <path id="ArialMT-61" d="M 2588 409 
Q 2275 144 1986 34 
Q 1697 -75 1366 -75 
Q 819 -75 525 192 
Q 231 459 231 875 
Q 231 1119 342 1320 
Q 453 1522 633 1644 
Q 813 1766 1038 1828 
Q 1203 1872 1538 1913 
Q 2219 1994 2541 2106 
Q 2544 2222 2544 2253 
Q 2544 2597 2384 2738 
Q 2169 2928 1744 2928 
Q 1347 2928 1158 2789 
Q 969 2650 878 2297 
L 328 2372 
Q 403 2725 575 2942 
Q 747 3159 1072 3276 
Q 1397 3394 1825 3394 
Q 2250 3394 2515 3294 
Q 2781 3194 2906 3042 
Q 3031 2891 3081 2659 
Q 3109 2516 3109 2141 
L 3109 1391 
Q 3109 606 3145 398 
Q 3181 191 3288 0 
L 2700 0 
Q 2613 175 2588 409 
z
M 2541 1666 
Q 2234 1541 1622 1453 
Q 1275 1403 1131 1340 
Q 988 1278 909 1158 
Q 831 1038 831 891 
Q 831 666 1001 516 
Q 1172 366 1500 366 
Q 1825 366 2078 508 
Q 2331 650 2450 897 
Q 2541 1088 2541 1459 
L 2541 1666 
z
" transform="scale(0.015625)"/>
        <path id="ArialMT-20" transform="scale(0.015625)"/>
        <path id="ArialMT-33" d="M 269 1209 
L 831 1284 
Q 928 806 1161 595 
Q 1394 384 1728 384 
Q 2125 384 2398 659 
Q 2672 934 2672 1341 
Q 2672 1728 2419 1979 
Q 2166 2231 1775 2231 
Q 1616 2231 1378 2169 
L 1441 2663 
Q 1497 2656 1531 2656 
Q 1891 2656 2178 2843 
Q 2466 3031 2466 3422 
Q 2466 3731 2256 3934 
Q 2047 4138 1716 4138 
Q 1388 4138 1169 3931 
Q 950 3725 888 3313 
L 325 3413 
Q 428 3978 793 4289 
Q 1159 4600 1703 4600 
Q 2078 4600 2393 4439 
Q 2709 4278 2876 4000 
Q 3044 3722 3044 3409 
Q 3044 3113 2884 2869 
Q 2725 2625 2413 2481 
Q 2819 2388 3044 2092 
Q 3269 1797 3269 1353 
Q 3269 753 2831 336 
Q 2394 -81 1725 -81 
Q 1122 -81 723 278 
Q 325 638 269 1209 
z
" transform="scale(0.015625)"/>
        <path id="ArialMT-6d" d="M 422 0 
L 422 3319 
L 925 3319 
L 925 2853 
Q 1081 3097 1340 3245 
Q 1600 3394 1931 3394 
Q 2300 3394 2536 3241 
Q 2772 3088 2869 2813 
Q 3263 3394 3894 3394 
Q 4388 3394 4653 3120 
Q 4919 2847 4919 2278 
L 4919 0 
L 4359 0 
L 4359 2091 
Q 4359 2428 4304 2576 
Q 4250 2725 4106 2815 
Q 3963 2906 3769 2906 
Q 3419 2906 3187 2673 
Q 2956 2441 2956 1928 
L 2956 0 
L 2394 0 
L 2394 2156 
Q 2394 2531 2256 2718 
Q 2119 2906 1806 2906 
Q 1569 2906 1367 2781 
Q 1166 2656 1075 2415 
Q 984 2175 984 1722 
L 984 0 
L 422 0 
z
" transform="scale(0.015625)"/>
        <path id="ArialMT-6f" d="M 213 1659 
Q 213 2581 725 3025 
Q 1153 3394 1769 3394 
Q 2453 3394 2887 2945 
Q 3322 2497 3322 1706 
Q 3322 1066 3130 698 
Q 2938 331 2570 128 
Q 2203 -75 1769 -75 
Q 1072 -75 642 372 
Q 213 819 213 1659 
z
M 791 1659 
Q 791 1022 1069 705 
Q 1347 388 1769 388 
Q 2188 388 2466 706 
Q 2744 1025 2744 1678 
Q 2744 2294 2464 2611 
Q 2184 2928 1769 2928 
Q 1347 2928 1069 2612 
Q 791 2297 791 1659 
z
" transform="scale(0.015625)"/>
       </defs>
       <use xlink:href="#ArialMT-4d"/>
       <use xlink:href="#ArialMT-65" x="83.300781"/>
       <use xlink:href="#ArialMT-6c" x="138.916016"/>
       <use xlink:href="#ArialMT-69" x="161.132812"/>
       <use xlink:href="#ArialMT-61" x="183.349609"/>
       <use xlink:href="#ArialMT-2c" x="238.964844"/>
       <use xlink:href="#ArialMT-20" x="266.748047"/>
       <use xlink:href="#ArialMT-33" x="294.53125"/>
       <use xlink:href="#ArialMT-20" x="350.146484"/>
       <use xlink:href="#ArialMT-6d" x="377.929688"/>
       <use xlink:href="#ArialMT-6f" x="461.230469"/>
      </g>
     </g>
    </g>
    <g id="xtick_2">
     <g id="line2d_2">
      <path d="M 102.272346 360.967755 
L 102.272346 3.00024 
" clip-path="url(#p9497709687)" style="fill: none; stroke: #cccccc; stroke-linecap: round"/>
     </g>
     <g id="text_2">
      <!-- Keiler, -->
      <g style="fill: #262626" transform="translate(99.298736 418.161348) rotate(-90) scale(0.11 -0.11)">
       <use xlink:href="#ArialMT-4b"/>
       <use xlink:href="#ArialMT-65" x="66.699219"/>
       <use xlink:href="#ArialMT-69" x="122.314453"/>
       <use xlink:href="#ArialMT-6c" x="144.53125"/>
       <use xlink:href="#ArialMT-65" x="166.748047"/>
       <use xlink:href="#ArialMT-72" x="222.363281"/>
       <use xlink:href="#ArialMT-2c" x="250.164062"/>
      </g>
      <!-- Pebble, 0 mo -->
      <g style="fill: #262626" transform="translate(110.933299 435.281817) rotate(-90) scale(0.11 -0.11)">
       <defs>
        <path id="ArialMT-50" d="M 494 0 
L 494 4581 
L 2222 4581 
Q 2678 4581 2919 4538 
Q 3256 4481 3484 4323 
Q 3713 4166 3852 3881 
Q 3991 3597 3991 3256 
Q 3991 2672 3619 2267 
Q 3247 1863 2275 1863 
L 1100 1863 
L 1100 0 
L 494 0 
z
M 1100 2403 
L 2284 2403 
Q 2872 2403 3119 2622 
Q 3366 2841 3366 3238 
Q 3366 3525 3220 3729 
Q 3075 3934 2838 4000 
Q 2684 4041 2272 4041 
L 1100 4041 
L 1100 2403 
z
" transform="scale(0.015625)"/>
        <path id="ArialMT-62" d="M 941 0 
L 419 0 
L 419 4581 
L 981 4581 
L 981 2947 
Q 1338 3394 1891 3394 
Q 2197 3394 2470 3270 
Q 2744 3147 2920 2923 
Q 3097 2700 3197 2384 
Q 3297 2069 3297 1709 
Q 3297 856 2875 390 
Q 2453 -75 1863 -75 
Q 1275 -75 941 416 
L 941 0 
z
M 934 1684 
Q 934 1088 1097 822 
Q 1363 388 1816 388 
Q 2184 388 2453 708 
Q 2722 1028 2722 1663 
Q 2722 2313 2464 2622 
Q 2206 2931 1841 2931 
Q 1472 2931 1203 2611 
Q 934 2291 934 1684 
z
" transform="scale(0.015625)"/>
        <path id="ArialMT-30" d="M 266 2259 
Q 266 3072 433 3567 
Q 600 4063 929 4331 
Q 1259 4600 1759 4600 
Q 2128 4600 2406 4451 
Q 2684 4303 2865 4023 
Q 3047 3744 3150 3342 
Q 3253 2941 3253 2259 
Q 3253 1453 3087 958 
Q 2922 463 2592 192 
Q 2263 -78 1759 -78 
Q 1097 -78 719 397 
Q 266 969 266 2259 
z
M 844 2259 
Q 844 1131 1108 757 
Q 1372 384 1759 384 
Q 2147 384 2411 759 
Q 2675 1134 2675 2259 
Q 2675 3391 2411 3762 
Q 2147 4134 1753 4134 
Q 1366 4134 1134 3806 
Q 844 3388 844 2259 
z
" transform="scale(0.015625)"/>
       </defs>
       <use xlink:href="#ArialMT-50"/>
       <use xlink:href="#ArialMT-65" x="66.699219"/>
       <use xlink:href="#ArialMT-62" x="122.314453"/>
       <use xlink:href="#ArialMT-62" x="177.929688"/>
       <use xlink:href="#ArialMT-6c" x="233.544922"/>
       <use xlink:href="#ArialMT-65" x="255.761719"/>
       <use xlink:href="#ArialMT-2c" x="311.376953"/>
       <use xlink:href="#ArialMT-20" x="339.160156"/>
       <use xlink:href="#ArialMT-30" x="366.943359"/>
       <use xlink:href="#ArialMT-20" x="422.558594"/>
       <use xlink:href="#ArialMT-6d" x="450.341797"/>
       <use xlink:href="#ArialMT-6f" x="533.642578"/>
      </g>
     </g>
    </g>
    <g id="xtick_3">
     <g id="line2d_3">
      <path d="M 150.44678 360.967755 
L 150.44678 3.00024 
" clip-path="url(#p9497709687)" style="fill: none; stroke: #cccccc; stroke-linecap: round"/>
     </g>
     <g id="text_3">
      <!-- Keiler, -->
      <g style="fill: #262626" transform="translate(147.473171 418.161348) rotate(-90) scale(0.11 -0.11)">
       <use xlink:href="#ArialMT-4b"/>
       <use xlink:href="#ArialMT-65" x="66.699219"/>
       <use xlink:href="#ArialMT-69" x="122.314453"/>
       <use xlink:href="#ArialMT-6c" x="144.53125"/>
       <use xlink:href="#ArialMT-65" x="166.748047"/>
       <use xlink:href="#ArialMT-72" x="222.363281"/>
       <use xlink:href="#ArialMT-2c" x="250.164062"/>
      </g>
      <!-- Pebble, 3 mo -->
      <g style="fill: #262626" transform="translate(159.107733 435.281817) rotate(-90) scale(0.11 -0.11)">
       <use xlink:href="#ArialMT-50"/>
       <use xlink:href="#ArialMT-65" x="66.699219"/>
       <use xlink:href="#ArialMT-62" x="122.314453"/>
       <use xlink:href="#ArialMT-62" x="177.929688"/>
       <use xlink:href="#ArialMT-6c" x="233.544922"/>
       <use xlink:href="#ArialMT-65" x="255.761719"/>
       <use xlink:href="#ArialMT-2c" x="311.376953"/>
       <use xlink:href="#ArialMT-20" x="339.160156"/>
       <use xlink:href="#ArialMT-33" x="366.943359"/>
       <use xlink:href="#ArialMT-20" x="422.558594"/>
       <use xlink:href="#ArialMT-6d" x="450.341797"/>
       <use xlink:href="#ArialMT-6f" x="533.642578"/>
      </g>
     </g>
    </g>
    <g id="xtick_4">
     <g id="line2d_4">
      <path d="M 198.621215 360.967755 
L 198.621215 3.00024 
" clip-path="url(#p9497709687)" style="fill: none; stroke: #cccccc; stroke-linecap: round"/>
     </g>
     <g id="text_4">
      <!-- Urban Arrow, -->
      <g style="fill: #262626" transform="translate(195.647605 434.051192) rotate(-90) scale(0.11 -0.11)">
       <defs>
        <path id="ArialMT-55" d="M 3500 4581 
L 4106 4581 
L 4106 1934 
Q 4106 1244 3950 837 
Q 3794 431 3386 176 
Q 2978 -78 2316 -78 
Q 1672 -78 1262 144 
Q 853 366 678 786 
Q 503 1206 503 1934 
L 503 4581 
L 1109 4581 
L 1109 1938 
Q 1109 1341 1220 1058 
Q 1331 775 1601 622 
Q 1872 469 2263 469 
Q 2931 469 3215 772 
Q 3500 1075 3500 1938 
L 3500 4581 
z
" transform="scale(0.015625)"/>
        <path id="ArialMT-6e" d="M 422 0 
L 422 3319 
L 928 3319 
L 928 2847 
Q 1294 3394 1984 3394 
Q 2284 3394 2536 3286 
Q 2788 3178 2913 3003 
Q 3038 2828 3088 2588 
Q 3119 2431 3119 2041 
L 3119 0 
L 2556 0 
L 2556 2019 
Q 2556 2363 2490 2533 
Q 2425 2703 2258 2804 
Q 2091 2906 1866 2906 
Q 1506 2906 1245 2678 
Q 984 2450 984 1813 
L 984 0 
L 422 0 
z
" transform="scale(0.015625)"/>
        <path id="ArialMT-41" d="M -9 0 
L 1750 4581 
L 2403 4581 
L 4278 0 
L 3588 0 
L 3053 1388 
L 1138 1388 
L 634 0 
L -9 0 
z
M 1313 1881 
L 2866 1881 
L 2388 3150 
Q 2169 3728 2063 4100 
Q 1975 3659 1816 3225 
L 1313 1881 
z
" transform="scale(0.015625)"/>
        <path id="ArialMT-77" d="M 1034 0 
L 19 3319 
L 600 3319 
L 1128 1403 
L 1325 691 
Q 1338 744 1497 1375 
L 2025 3319 
L 2603 3319 
L 3100 1394 
L 3266 759 
L 3456 1400 
L 4025 3319 
L 4572 3319 
L 3534 0 
L 2950 0 
L 2422 1988 
L 2294 2553 
L 1622 0 
L 1034 0 
z
" transform="scale(0.015625)"/>
       </defs>
       <use xlink:href="#ArialMT-55"/>
       <use xlink:href="#ArialMT-72" x="72.216797"/>
       <use xlink:href="#ArialMT-62" x="105.517578"/>
       <use xlink:href="#ArialMT-61" x="161.132812"/>
       <use xlink:href="#ArialMT-6e" x="216.748047"/>
       <use xlink:href="#ArialMT-20" x="272.363281"/>
       <use xlink:href="#ArialMT-41" x="294.646484"/>
       <use xlink:href="#ArialMT-72" x="361.345703"/>
       <use xlink:href="#ArialMT-72" x="394.646484"/>
       <use xlink:href="#ArialMT-6f" x="427.947266"/>
       <use xlink:href="#ArialMT-77" x="483.5625"/>
       <use xlink:href="#ArialMT-2c" x="550.279297"/>
      </g>
      <!-- Melia, 3 mo -->
      <g style="fill: #262626" transform="translate(207.282168 430.684161) rotate(-90) scale(0.11 -0.11)">
       <use xlink:href="#ArialMT-4d"/>
       <use xlink:href="#ArialMT-65" x="83.300781"/>
       <use xlink:href="#ArialMT-6c" x="138.916016"/>
       <use xlink:href="#ArialMT-69" x="161.132812"/>
       <use xlink:href="#ArialMT-61" x="183.349609"/>
       <use xlink:href="#ArialMT-2c" x="238.964844"/>
       <use xlink:href="#ArialMT-20" x="266.748047"/>
       <use xlink:href="#ArialMT-33" x="294.53125"/>
       <use xlink:href="#ArialMT-20" x="350.146484"/>
       <use xlink:href="#ArialMT-6d" x="377.929688"/>
       <use xlink:href="#ArialMT-6f" x="461.230469"/>
      </g>
     </g>
    </g>
    <g id="xtick_5">
     <g id="line2d_5">
      <path d="M 246.795649 360.967755 
L 246.795649 3.00024 
" clip-path="url(#p9497709687)" style="fill: none; stroke: #cccccc; stroke-linecap: round"/>
     </g>
     <g id="text_5">
      <!-- Urban Arrow, -->
      <g style="fill: #262626" transform="translate(243.82204 434.666505) rotate(-90) scale(0.11 -0.11)">
       <use xlink:href="#ArialMT-55"/>
       <use xlink:href="#ArialMT-72" x="72.216797"/>
       <use xlink:href="#ArialMT-62" x="105.517578"/>
       <use xlink:href="#ArialMT-61" x="161.132812"/>
       <use xlink:href="#ArialMT-6e" x="216.748047"/>
       <use xlink:href="#ArialMT-20" x="272.363281"/>
       <use xlink:href="#ArialMT-41" x="294.646484"/>
       <use xlink:href="#ArialMT-72" x="361.345703"/>
       <use xlink:href="#ArialMT-72" x="394.646484"/>
       <use xlink:href="#ArialMT-6f" x="427.947266"/>
       <use xlink:href="#ArialMT-77" x="483.5625"/>
       <use xlink:href="#ArialMT-2c" x="550.279297"/>
      </g>
      <!-- Pebble, 0 mo -->
      <g style="fill: #262626" transform="translate(255.456602 435.281817) rotate(-90) scale(0.11 -0.11)">
       <use xlink:href="#ArialMT-50"/>
       <use xlink:href="#ArialMT-65" x="66.699219"/>
       <use xlink:href="#ArialMT-62" x="122.314453"/>
       <use xlink:href="#ArialMT-62" x="177.929688"/>
       <use xlink:href="#ArialMT-6c" x="233.544922"/>
       <use xlink:href="#ArialMT-65" x="255.761719"/>
       <use xlink:href="#ArialMT-2c" x="311.376953"/>
       <use xlink:href="#ArialMT-20" x="339.160156"/>
       <use xlink:href="#ArialMT-30" x="366.943359"/>
       <use xlink:href="#ArialMT-20" x="422.558594"/>
       <use xlink:href="#ArialMT-6d" x="450.341797"/>
       <use xlink:href="#ArialMT-6f" x="533.642578"/>
      </g>
     </g>
    </g>
    <g id="xtick_6">
     <g id="line2d_6">
      <path d="M 294.970083 360.967755 
L 294.970083 3.00024 
" clip-path="url(#p9497709687)" style="fill: none; stroke: #cccccc; stroke-linecap: round"/>
     </g>
     <g id="text_6">
      <!-- Urban Arrow, -->
      <g style="fill: #262626" transform="translate(291.996474 434.666505) rotate(-90) scale(0.11 -0.11)">
       <use xlink:href="#ArialMT-55"/>
       <use xlink:href="#ArialMT-72" x="72.216797"/>
       <use xlink:href="#ArialMT-62" x="105.517578"/>
       <use xlink:href="#ArialMT-61" x="161.132812"/>
       <use xlink:href="#ArialMT-6e" x="216.748047"/>
       <use xlink:href="#ArialMT-20" x="272.363281"/>
       <use xlink:href="#ArialMT-41" x="294.646484"/>
       <use xlink:href="#ArialMT-72" x="361.345703"/>
       <use xlink:href="#ArialMT-72" x="394.646484"/>
       <use xlink:href="#ArialMT-6f" x="427.947266"/>
       <use xlink:href="#ArialMT-77" x="483.5625"/>
       <use xlink:href="#ArialMT-2c" x="550.279297"/>
      </g>
      <!-- Pebble, 3 mo -->
      <g style="fill: #262626" transform="translate(303.631037 435.281817) rotate(-90) scale(0.11 -0.11)">
       <use xlink:href="#ArialMT-50"/>
       <use xlink:href="#ArialMT-65" x="66.699219"/>
       <use xlink:href="#ArialMT-62" x="122.314453"/>
       <use xlink:href="#ArialMT-62" x="177.929688"/>
       <use xlink:href="#ArialMT-6c" x="233.544922"/>
       <use xlink:href="#ArialMT-65" x="255.761719"/>
       <use xlink:href="#ArialMT-2c" x="311.376953"/>
       <use xlink:href="#ArialMT-20" x="339.160156"/>
       <use xlink:href="#ArialMT-33" x="366.943359"/>
       <use xlink:href="#ArialMT-20" x="422.558594"/>
       <use xlink:href="#ArialMT-6d" x="450.341797"/>
       <use xlink:href="#ArialMT-6f" x="533.642578"/>
      </g>
     </g>
    </g>
    <g id="text_7">
     <!-- Vehicle, Seat, Baby Age -->
     <g style="fill: #262626" transform="translate(110.488685 448.017442) scale(0.12 -0.12)">
      <defs>
       <path id="ArialMT-56" d="M 1803 0 
L 28 4581 
L 684 4581 
L 1875 1253 
Q 2019 853 2116 503 
Q 2222 878 2363 1253 
L 3600 4581 
L 4219 4581 
L 2425 0 
L 1803 0 
z
" transform="scale(0.015625)"/>
       <path id="ArialMT-68" d="M 422 0 
L 422 4581 
L 984 4581 
L 984 2938 
Q 1378 3394 1978 3394 
Q 2347 3394 2619 3248 
Q 2891 3103 3008 2847 
Q 3125 2591 3125 2103 
L 3125 0 
L 2563 0 
L 2563 2103 
Q 2563 2525 2380 2717 
Q 2197 2909 1863 2909 
Q 1613 2909 1392 2779 
Q 1172 2650 1078 2428 
Q 984 2206 984 1816 
L 984 0 
L 422 0 
z
" transform="scale(0.015625)"/>
       <path id="ArialMT-63" d="M 2588 1216 
L 3141 1144 
Q 3050 572 2676 248 
Q 2303 -75 1759 -75 
Q 1078 -75 664 370 
Q 250 816 250 1647 
Q 250 2184 428 2587 
Q 606 2991 970 3192 
Q 1334 3394 1763 3394 
Q 2303 3394 2647 3120 
Q 2991 2847 3088 2344 
L 2541 2259 
Q 2463 2594 2264 2762 
Q 2066 2931 1784 2931 
Q 1359 2931 1093 2626 
Q 828 2322 828 1663 
Q 828 994 1084 691 
Q 1341 388 1753 388 
Q 2084 388 2306 591 
Q 2528 794 2588 1216 
z
" transform="scale(0.015625)"/>
       <path id="ArialMT-53" d="M 288 1472 
L 859 1522 
Q 900 1178 1048 958 
Q 1197 738 1509 602 
Q 1822 466 2213 466 
Q 2559 466 2825 569 
Q 3091 672 3220 851 
Q 3350 1031 3350 1244 
Q 3350 1459 3225 1620 
Q 3100 1781 2813 1891 
Q 2628 1963 1997 2114 
Q 1366 2266 1113 2400 
Q 784 2572 623 2826 
Q 463 3081 463 3397 
Q 463 3744 659 4045 
Q 856 4347 1234 4503 
Q 1613 4659 2075 4659 
Q 2584 4659 2973 4495 
Q 3363 4331 3572 4012 
Q 3781 3694 3797 3291 
L 3216 3247 
Q 3169 3681 2898 3903 
Q 2628 4125 2100 4125 
Q 1550 4125 1298 3923 
Q 1047 3722 1047 3438 
Q 1047 3191 1225 3031 
Q 1400 2872 2139 2705 
Q 2878 2538 3153 2413 
Q 3553 2228 3743 1945 
Q 3934 1663 3934 1294 
Q 3934 928 3725 604 
Q 3516 281 3123 101 
Q 2731 -78 2241 -78 
Q 1619 -78 1198 103 
Q 778 284 539 648 
Q 300 1013 288 1472 
z
" transform="scale(0.015625)"/>
       <path id="ArialMT-74" d="M 1650 503 
L 1731 6 
Q 1494 -44 1306 -44 
Q 1000 -44 831 53 
Q 663 150 594 308 
Q 525 466 525 972 
L 525 2881 
L 113 2881 
L 113 3319 
L 525 3319 
L 525 4141 
L 1084 4478 
L 1084 3319 
L 1650 3319 
L 1650 2881 
L 1084 2881 
L 1084 941 
Q 1084 700 1114 631 
Q 1144 563 1211 522 
Q 1278 481 1403 481 
Q 1497 481 1650 503 
z
" transform="scale(0.015625)"/>
       <path id="ArialMT-42" d="M 469 0 
L 469 4581 
L 2188 4581 
Q 2713 4581 3030 4442 
Q 3347 4303 3526 4014 
Q 3706 3725 3706 3409 
Q 3706 3116 3547 2856 
Q 3388 2597 3066 2438 
Q 3481 2316 3704 2022 
Q 3928 1728 3928 1328 
Q 3928 1006 3792 729 
Q 3656 453 3456 303 
Q 3256 153 2954 76 
Q 2653 0 2216 0 
L 469 0 
z
M 1075 2656 
L 2066 2656 
Q 2469 2656 2644 2709 
Q 2875 2778 2992 2937 
Q 3109 3097 3109 3338 
Q 3109 3566 3000 3739 
Q 2891 3913 2687 3977 
Q 2484 4041 1991 4041 
L 1075 4041 
L 1075 2656 
z
M 1075 541 
L 2216 541 
Q 2509 541 2628 563 
Q 2838 600 2978 687 
Q 3119 775 3209 942 
Q 3300 1109 3300 1328 
Q 3300 1584 3169 1773 
Q 3038 1963 2805 2039 
Q 2572 2116 2134 2116 
L 1075 2116 
L 1075 541 
z
" transform="scale(0.015625)"/>
       <path id="ArialMT-79" d="M 397 -1278 
L 334 -750 
Q 519 -800 656 -800 
Q 844 -800 956 -737 
Q 1069 -675 1141 -563 
Q 1194 -478 1313 -144 
Q 1328 -97 1363 -6 
L 103 3319 
L 709 3319 
L 1400 1397 
Q 1534 1031 1641 628 
Q 1738 1016 1872 1384 
L 2581 3319 
L 3144 3319 
L 1881 -56 
Q 1678 -603 1566 -809 
Q 1416 -1088 1222 -1217 
Q 1028 -1347 759 -1347 
Q 597 -1347 397 -1278 
z
" transform="scale(0.015625)"/>
       <path id="ArialMT-67" d="M 319 -275 
L 866 -356 
Q 900 -609 1056 -725 
Q 1266 -881 1628 -881 
Q 2019 -881 2231 -725 
Q 2444 -569 2519 -288 
Q 2563 -116 2559 434 
Q 2191 0 1641 0 
Q 956 0 581 494 
Q 206 988 206 1678 
Q 206 2153 378 2554 
Q 550 2956 876 3175 
Q 1203 3394 1644 3394 
Q 2231 3394 2613 2919 
L 2613 3319 
L 3131 3319 
L 3131 450 
Q 3131 -325 2973 -648 
Q 2816 -972 2473 -1159 
Q 2131 -1347 1631 -1347 
Q 1038 -1347 672 -1080 
Q 306 -813 319 -275 
z
M 784 1719 
Q 784 1066 1043 766 
Q 1303 466 1694 466 
Q 2081 466 2343 764 
Q 2606 1063 2606 1700 
Q 2606 2309 2336 2618 
Q 2066 2928 1684 2928 
Q 1309 2928 1046 2623 
Q 784 2319 784 1719 
z
" transform="scale(0.015625)"/>
      </defs>
      <use xlink:href="#ArialMT-56"/>
      <use xlink:href="#ArialMT-65" x="61.199219"/>
      <use xlink:href="#ArialMT-68" x="116.814453"/>
      <use xlink:href="#ArialMT-69" x="172.429688"/>
      <use xlink:href="#ArialMT-63" x="194.646484"/>
      <use xlink:href="#ArialMT-6c" x="244.646484"/>
      <use xlink:href="#ArialMT-65" x="266.863281"/>
      <use xlink:href="#ArialMT-2c" x="322.478516"/>
      <use xlink:href="#ArialMT-20" x="350.261719"/>
      <use xlink:href="#ArialMT-53" x="378.044922"/>
      <use xlink:href="#ArialMT-65" x="444.744141"/>
      <use xlink:href="#ArialMT-61" x="500.359375"/>
      <use xlink:href="#ArialMT-74" x="555.974609"/>
      <use xlink:href="#ArialMT-2c" x="583.757812"/>
      <use xlink:href="#ArialMT-20" x="611.541016"/>
      <use xlink:href="#ArialMT-42" x="639.324219"/>
      <use xlink:href="#ArialMT-61" x="706.023438"/>
      <use xlink:href="#ArialMT-62" x="761.638672"/>
      <use xlink:href="#ArialMT-79" x="817.253906"/>
      <use xlink:href="#ArialMT-20" x="867.253906"/>
      <use xlink:href="#ArialMT-41" x="889.537109"/>
      <use xlink:href="#ArialMT-67" x="956.236328"/>
      <use xlink:href="#ArialMT-65" x="1011.851562"/>
     </g>
    </g>
   </g>
   <g id="matplotlib.axis_2">
    <g id="ytick_1">
     <g id="line2d_7">
      <path d="M 42.054303 299.90256 
L 307.013692 299.90256 
" clip-path="url(#p9497709687)" style="fill: none; stroke: #cccccc; stroke-linecap: round"/>
     </g>
     <g id="text_8">
      <!-- 2 -->
      <g style="fill: #262626" transform="translate(26.437271 303.839357) scale(0.11 -0.11)">
       <defs>
        <path id="ArialMT-32" d="M 3222 541 
L 3222 0 
L 194 0 
Q 188 203 259 391 
Q 375 700 629 1000 
Q 884 1300 1366 1694 
Q 2113 2306 2375 2664 
Q 2638 3022 2638 3341 
Q 2638 3675 2398 3904 
Q 2159 4134 1775 4134 
Q 1369 4134 1125 3890 
Q 881 3647 878 3216 
L 300 3275 
Q 359 3922 746 4261 
Q 1134 4600 1788 4600 
Q 2447 4600 2831 4234 
Q 3216 3869 3216 3328 
Q 3216 3053 3103 2787 
Q 2991 2522 2730 2228 
Q 2469 1934 1863 1422 
Q 1356 997 1212 845 
Q 1069 694 975 541 
L 3222 541 
z
" transform="scale(0.015625)"/>
       </defs>
       <use xlink:href="#ArialMT-32"/>
      </g>
     </g>
    </g>
    <g id="ytick_2">
     <g id="line2d_8">
      <path d="M 42.054303 235.238552 
L 307.013692 235.238552 
" clip-path="url(#p9497709687)" style="fill: none; stroke: #cccccc; stroke-linecap: round"/>
     </g>
     <g id="text_9">
      <!-- 4 -->
      <g style="fill: #262626" transform="translate(26.437271 239.175349) scale(0.11 -0.11)">
       <defs>
        <path id="ArialMT-34" d="M 2069 0 
L 2069 1097 
L 81 1097 
L 81 1613 
L 2172 4581 
L 2631 4581 
L 2631 1613 
L 3250 1613 
L 3250 1097 
L 2631 1097 
L 2631 0 
L 2069 0 
z
M 2069 1613 
L 2069 3678 
L 634 1613 
L 2069 1613 
z
" transform="scale(0.015625)"/>
       </defs>
       <use xlink:href="#ArialMT-34"/>
      </g>
     </g>
    </g>
    <g id="ytick_3">
     <g id="line2d_9">
      <path d="M 42.054303 170.574544 
L 307.013692 170.574544 
" clip-path="url(#p9497709687)" style="fill: none; stroke: #cccccc; stroke-linecap: round"/>
     </g>
     <g id="text_10">
      <!-- 6 -->
      <g style="fill: #262626" transform="translate(26.437271 174.511341) scale(0.11 -0.11)">
       <defs>
        <path id="ArialMT-36" d="M 3184 3459 
L 2625 3416 
Q 2550 3747 2413 3897 
Q 2184 4138 1850 4138 
Q 1581 4138 1378 3988 
Q 1113 3794 959 3422 
Q 806 3050 800 2363 
Q 1003 2672 1297 2822 
Q 1591 2972 1913 2972 
Q 2475 2972 2870 2558 
Q 3266 2144 3266 1488 
Q 3266 1056 3080 686 
Q 2894 316 2569 119 
Q 2244 -78 1831 -78 
Q 1128 -78 684 439 
Q 241 956 241 2144 
Q 241 3472 731 4075 
Q 1159 4600 1884 4600 
Q 2425 4600 2770 4297 
Q 3116 3994 3184 3459 
z
M 888 1484 
Q 888 1194 1011 928 
Q 1134 663 1356 523 
Q 1578 384 1822 384 
Q 2178 384 2434 671 
Q 2691 959 2691 1453 
Q 2691 1928 2437 2201 
Q 2184 2475 1800 2475 
Q 1419 2475 1153 2201 
Q 888 1928 888 1484 
z
" transform="scale(0.015625)"/>
       </defs>
       <use xlink:href="#ArialMT-36"/>
      </g>
     </g>
    </g>
    <g id="ytick_4">
     <g id="line2d_10">
      <path d="M 42.054303 105.910536 
L 307.013692 105.910536 
" clip-path="url(#p9497709687)" style="fill: none; stroke: #cccccc; stroke-linecap: round"/>
     </g>
     <g id="text_11">
      <!-- 8 -->
      <g style="fill: #262626" transform="translate(26.437271 109.847333) scale(0.11 -0.11)">
       <defs>
        <path id="ArialMT-38" d="M 1131 2484 
Q 781 2613 612 2850 
Q 444 3088 444 3419 
Q 444 3919 803 4259 
Q 1163 4600 1759 4600 
Q 2359 4600 2725 4251 
Q 3091 3903 3091 3403 
Q 3091 3084 2923 2848 
Q 2756 2613 2416 2484 
Q 2838 2347 3058 2040 
Q 3278 1734 3278 1309 
Q 3278 722 2862 322 
Q 2447 -78 1769 -78 
Q 1091 -78 675 323 
Q 259 725 259 1325 
Q 259 1772 486 2073 
Q 713 2375 1131 2484 
z
M 1019 3438 
Q 1019 3113 1228 2906 
Q 1438 2700 1772 2700 
Q 2097 2700 2305 2904 
Q 2513 3109 2513 3406 
Q 2513 3716 2298 3927 
Q 2084 4138 1766 4138 
Q 1444 4138 1231 3931 
Q 1019 3725 1019 3438 
z
M 838 1322 
Q 838 1081 952 856 
Q 1066 631 1291 507 
Q 1516 384 1775 384 
Q 2178 384 2440 643 
Q 2703 903 2703 1303 
Q 2703 1709 2433 1975 
Q 2163 2241 1756 2241 
Q 1359 2241 1098 1978 
Q 838 1716 838 1322 
z
" transform="scale(0.015625)"/>
       </defs>
       <use xlink:href="#ArialMT-38"/>
      </g>
     </g>
    </g>
    <g id="ytick_5">
     <g id="line2d_11">
      <path d="M 42.054303 41.246528 
L 307.013692 41.246528 
" clip-path="url(#p9497709687)" style="fill: none; stroke: #cccccc; stroke-linecap: round"/>
     </g>
     <g id="text_12">
      <!-- 10 -->
      <g style="fill: #262626" transform="translate(20.32024 45.183325) scale(0.11 -0.11)">
       <defs>
        <path id="ArialMT-31" d="M 2384 0 
L 1822 0 
L 1822 3584 
Q 1619 3391 1289 3197 
Q 959 3003 697 2906 
L 697 3450 
Q 1169 3672 1522 3987 
Q 1875 4303 2022 4600 
L 2384 4600 
L 2384 0 
z
" transform="scale(0.015625)"/>
       </defs>
       <use xlink:href="#ArialMT-31"/>
       <use xlink:href="#ArialMT-30" x="55.615234"/>
      </g>
     </g>
    </g>
    <g id="text_13">
     <!-- Vertical Acceleration RMS [m/s$^2$] -->
     <g style="fill: #262626" transform="translate(13.92024 269.283997) rotate(-90) scale(0.12 -0.12)">
      <defs>
       <path id="ArialMT-52" d="M 503 0 
L 503 4581 
L 2534 4581 
Q 3147 4581 3465 4457 
Q 3784 4334 3975 4021 
Q 4166 3709 4166 3331 
Q 4166 2844 3850 2509 
Q 3534 2175 2875 2084 
Q 3116 1969 3241 1856 
Q 3506 1613 3744 1247 
L 4541 0 
L 3778 0 
L 3172 953 
Q 2906 1366 2734 1584 
Q 2563 1803 2427 1890 
Q 2291 1978 2150 2013 
Q 2047 2034 1813 2034 
L 1109 2034 
L 1109 0 
L 503 0 
z
M 1109 2559 
L 2413 2559 
Q 2828 2559 3062 2645 
Q 3297 2731 3419 2920 
Q 3541 3109 3541 3331 
Q 3541 3656 3305 3865 
Q 3069 4075 2559 4075 
L 1109 4075 
L 1109 2559 
z
" transform="scale(0.015625)"/>
       <path id="ArialMT-5b" d="M 434 -1272 
L 434 4581 
L 1675 4581 
L 1675 4116 
L 997 4116 
L 997 -806 
L 1675 -806 
L 1675 -1272 
L 434 -1272 
z
" transform="scale(0.015625)"/>
       <path id="ArialMT-2f" d="M 0 -78 
L 1328 4659 
L 1778 4659 
L 453 -78 
L 0 -78 
z
" transform="scale(0.015625)"/>
       <path id="ArialMT-73" d="M 197 991 
L 753 1078 
Q 800 744 1014 566 
Q 1228 388 1613 388 
Q 2000 388 2187 545 
Q 2375 703 2375 916 
Q 2375 1106 2209 1216 
Q 2094 1291 1634 1406 
Q 1016 1563 777 1677 
Q 538 1791 414 1992 
Q 291 2194 291 2438 
Q 291 2659 392 2848 
Q 494 3038 669 3163 
Q 800 3259 1026 3326 
Q 1253 3394 1513 3394 
Q 1903 3394 2198 3281 
Q 2494 3169 2634 2976 
Q 2775 2784 2828 2463 
L 2278 2388 
Q 2241 2644 2061 2787 
Q 1881 2931 1553 2931 
Q 1166 2931 1000 2803 
Q 834 2675 834 2503 
Q 834 2394 903 2306 
Q 972 2216 1119 2156 
Q 1203 2125 1616 2013 
Q 2213 1853 2448 1751 
Q 2684 1650 2818 1456 
Q 2953 1263 2953 975 
Q 2953 694 2789 445 
Q 2625 197 2315 61 
Q 2006 -75 1616 -75 
Q 969 -75 630 194 
Q 291 463 197 991 
z
" transform="scale(0.015625)"/>
       <path id="DejaVuSans-32" d="M 1228 531 
L 3431 531 
L 3431 0 
L 469 0 
L 469 531 
Q 828 903 1448 1529 
Q 2069 2156 2228 2338 
Q 2531 2678 2651 2914 
Q 2772 3150 2772 3378 
Q 2772 3750 2511 3984 
Q 2250 4219 1831 4219 
Q 1534 4219 1204 4116 
Q 875 4013 500 3803 
L 500 4441 
Q 881 4594 1212 4672 
Q 1544 4750 1819 4750 
Q 2544 4750 2975 4387 
Q 3406 4025 3406 3419 
Q 3406 3131 3298 2873 
Q 3191 2616 2906 2266 
Q 2828 2175 2409 1742 
Q 1991 1309 1228 531 
z
" transform="scale(0.015625)"/>
       <path id="ArialMT-5d" d="M 1363 -1272 
L 122 -1272 
L 122 -806 
L 800 -806 
L 800 4116 
L 122 4116 
L 122 4581 
L 1363 4581 
L 1363 -1272 
z
" transform="scale(0.015625)"/>
      </defs>
      <use xlink:href="#ArialMT-56" transform="translate(0 0.765625)"/>
      <use xlink:href="#ArialMT-65" transform="translate(66.699219 0.765625)"/>
      <use xlink:href="#ArialMT-72" transform="translate(122.314453 0.765625)"/>
      <use xlink:href="#ArialMT-74" transform="translate(155.615234 0.765625)"/>
      <use xlink:href="#ArialMT-69" transform="translate(183.398438 0.765625)"/>
      <use xlink:href="#ArialMT-63" transform="translate(205.615234 0.765625)"/>
      <use xlink:href="#ArialMT-61" transform="translate(255.615234 0.765625)"/>
      <use xlink:href="#ArialMT-6c" transform="translate(311.230469 0.765625)"/>
      <use xlink:href="#ArialMT-20" transform="translate(333.447266 0.765625)"/>
      <use xlink:href="#ArialMT-41" transform="translate(361.230469 0.765625)"/>
      <use xlink:href="#ArialMT-63" transform="translate(427.929688 0.765625)"/>
      <use xlink:href="#ArialMT-63" transform="translate(477.929688 0.765625)"/>
      <use xlink:href="#ArialMT-65" transform="translate(527.929688 0.765625)"/>
      <use xlink:href="#ArialMT-6c" transform="translate(583.544922 0.765625)"/>
      <use xlink:href="#ArialMT-65" transform="translate(605.761719 0.765625)"/>
      <use xlink:href="#ArialMT-72" transform="translate(661.376953 0.765625)"/>
      <use xlink:href="#ArialMT-61" transform="translate(694.677734 0.765625)"/>
      <use xlink:href="#ArialMT-74" transform="translate(750.292969 0.765625)"/>
      <use xlink:href="#ArialMT-69" transform="translate(778.076172 0.765625)"/>
      <use xlink:href="#ArialMT-6f" transform="translate(800.292969 0.765625)"/>
      <use xlink:href="#ArialMT-6e" transform="translate(855.908203 0.765625)"/>
      <use xlink:href="#ArialMT-20" transform="translate(911.523438 0.765625)"/>
      <use xlink:href="#ArialMT-52" transform="translate(939.306641 0.765625)"/>
      <use xlink:href="#ArialMT-4d" transform="translate(1011.523438 0.765625)"/>
      <use xlink:href="#ArialMT-53" transform="translate(1094.824219 0.765625)"/>
      <use xlink:href="#ArialMT-20" transform="translate(1161.523438 0.765625)"/>
      <use xlink:href="#ArialMT-5b" transform="translate(1189.306641 0.765625)"/>
      <use xlink:href="#ArialMT-6d" transform="translate(1217.089844 0.765625)"/>
      <use xlink:href="#ArialMT-2f" transform="translate(1300.390625 0.765625)"/>
      <use xlink:href="#ArialMT-73" transform="translate(1328.173828 0.765625)"/>
      <use xlink:href="#DejaVuSans-32" transform="translate(1379.130859 39.046875) scale(0.7)"/>
      <use xlink:href="#ArialMT-5d" transform="translate(1426.401367 0.765625)"/>
     </g>
    </g>
   </g>
   <g id="PathCollection_1">
    <path d="M 54.097911 241.003278 
C 54.89352 241.003278 55.656651 240.687179 56.219231 240.124598 
C 56.781812 239.562017 57.097911 238.798887 57.097911 238.003278 
C 57.097911 237.207668 56.781812 236.444538 56.219231 235.881957 
C 55.656651 235.319377 54.89352 235.003278 54.097911 235.003278 
C 53.302302 235.003278 52.539172 235.319377 51.976591 235.881957 
C 51.41401 236.444538 51.097911 237.207668 51.097911 238.003278 
C 51.097911 238.798887 51.41401 239.562017 51.976591 240.124598 
C 52.539172 240.687179 53.302302 241.003278 54.097911 241.003278 
z
" clip-path="url(#p9497709687)" style="fill: #de8f05; stroke: #ffffff; stroke-width: 0.48"/>
    <path d="M 54.097911 177.056364 
C 54.89352 177.056364 55.656651 176.740265 56.219231 176.177685 
C 56.781812 175.615104 57.097911 174.851974 57.097911 174.056364 
C 57.097911 173.260755 56.781812 172.497625 56.219231 171.935044 
C 55.656651 171.372463 54.89352 171.056364 54.097911 171.056364 
C 53.302302 171.056364 52.539172 171.372463 51.976591 171.935044 
C 51.41401 172.497625 51.097911 173.260755 51.097911 174.056364 
C 51.097911 174.851974 51.41401 175.615104 51.976591 176.177685 
C 52.539172 176.740265 53.302302 177.056364 54.097911 177.056364 
z
" clip-path="url(#p9497709687)" style="fill: #de8f05; stroke: #ffffff; stroke-width: 0.48"/>
    <path d="M 52.597911 177.487962 
L 54.097911 175.987962 
L 55.597911 177.487962 
L 57.097911 175.987962 
L 55.597911 174.487962 
L 57.097911 172.987962 
L 55.597911 171.487962 
L 54.097911 172.987962 
L 52.597911 171.487962 
L 51.097911 172.987962 
L 52.597911 174.487962 
L 51.097911 175.987962 
z
" clip-path="url(#p9497709687)" style="fill: #de8f05; stroke: #ffffff; stroke-width: 0.48"/>
    <path d="M 52.597911 122.782168 
L 54.097911 121.282168 
L 55.597911 122.782168 
L 57.097911 121.282168 
L 55.597911 119.782168 
L 57.097911 118.282168 
L 55.597911 116.782168 
L 54.097911 118.282168 
L 52.597911 116.782168 
L 51.097911 118.282168 
L 52.597911 119.782168 
L 51.097911 121.282168 
z
" clip-path="url(#p9497709687)" style="fill: #de8f05; stroke: #ffffff; stroke-width: 0.48"/>
    <path d="M 54.097911 324.187824 
C 54.89352 324.187824 55.656651 323.871725 56.219231 323.309145 
C 56.781812 322.746564 57.097911 321.983434 57.097911 321.187824 
C 57.097911 320.392215 56.781812 319.629085 56.219231 319.066504 
C 55.656651 318.503923 54.89352 318.187824 54.097911 318.187824 
C 53.302302 318.187824 52.539172 318.503923 51.976591 319.066504 
C 51.41401 319.629085 51.097911 320.392215 51.097911 321.187824 
C 51.097911 321.983434 51.41401 322.746564 51.976591 323.309145 
C 52.539172 323.871725 53.302302 324.187824 54.097911 324.187824 
z
" clip-path="url(#p9497709687)" style="fill: #cc78bc; stroke: #ffffff; stroke-width: 0.48"/>
    <path d="M 54.097911 332.397216 
C 54.89352 332.397216 55.656651 332.081117 56.219231 331.518536 
C 56.781812 330.955956 57.097911 330.192825 57.097911 329.397216 
C 57.097911 328.601607 56.781812 327.838476 56.219231 327.275896 
C 55.656651 326.713315 54.89352 326.397216 54.097911 326.397216 
C 53.302302 326.397216 52.539172 326.713315 51.976591 327.275896 
C 51.41401 327.838476 51.097911 328.601607 51.097911 329.397216 
C 51.097911 330.192825 51.41401 330.955956 51.976591 331.518536 
C 52.539172 332.081117 53.302302 332.397216 54.097911 332.397216 
z
" clip-path="url(#p9497709687)" style="fill: #cc78bc; stroke: #ffffff; stroke-width: 0.48"/>
    <path d="M 52.597911 320.786125 
L 54.097911 319.286125 
L 55.597911 320.786125 
L 57.097911 319.286125 
L 55.597911 317.786125 
L 57.097911 316.286125 
L 55.597911 314.786125 
L 54.097911 316.286125 
L 52.597911 314.786125 
L 51.097911 316.286125 
L 52.597911 317.786125 
L 51.097911 319.286125 
z
" clip-path="url(#p9497709687)" style="fill: #cc78bc; stroke: #ffffff; stroke-width: 0.48"/>
    <path d="M 52.597911 315.134007 
L 54.097911 313.634007 
L 55.597911 315.134007 
L 57.097911 313.634007 
L 55.597911 312.134007 
L 57.097911 310.634007 
L 55.597911 309.134007 
L 54.097911 310.634007 
L 52.597911 309.134007 
L 51.097911 310.634007 
L 52.597911 312.134007 
L 51.097911 313.634007 
z
" clip-path="url(#p9497709687)" style="fill: #cc78bc; stroke: #ffffff; stroke-width: 0.48"/>
    <path d="M 102.272346 176.14414 
C 103.067955 176.14414 103.831085 175.828041 104.393666 175.26546 
C 104.956247 174.70288 105.272346 173.939749 105.272346 173.14414 
C 105.272346 172.348531 104.956247 171.5854 104.393666 171.02282 
C 103.831085 170.460239 103.067955 170.14414 102.272346 170.14414 
C 101.476736 170.14414 100.713606 170.460239 100.151025 171.02282 
C 99.588445 171.5854 99.272346 172.348531 99.272346 173.14414 
C 99.272346 173.939749 99.588445 174.70288 100.151025 175.26546 
C 100.713606 175.828041 101.476736 176.14414 102.272346 176.14414 
z
" clip-path="url(#p9497709687)" style="fill: #de8f05; stroke: #ffffff; stroke-width: 0.48"/>
    <path d="M 102.272346 113.586717 
C 103.067955 113.586717 103.831085 113.270618 104.393666 112.708038 
C 104.956247 112.145457 105.272346 111.382327 105.272346 110.586717 
C 105.272346 109.791108 104.956247 109.027978 104.393666 108.465397 
C 103.831085 107.902816 103.067955 107.586717 102.272346 107.586717 
C 101.476736 107.586717 100.713606 107.902816 100.151025 108.465397 
C 99.588445 109.027978 99.272346 109.791108 99.272346 110.586717 
C 99.272346 111.382327 99.588445 112.145457 100.151025 112.708038 
C 100.713606 113.270618 101.476736 113.586717 102.272346 113.586717 
z
" clip-path="url(#p9497709687)" style="fill: #de8f05; stroke: #ffffff; stroke-width: 0.48"/>
    <path d="M 100.772346 22.271491 
L 102.272346 20.771491 
L 103.772346 22.271491 
L 105.272346 20.771491 
L 103.772346 19.271491 
L 105.272346 17.771491 
L 103.772346 16.271491 
L 102.272346 17.771491 
L 100.772346 16.271491 
L 99.272346 17.771491 
L 100.772346 19.271491 
L 99.272346 20.771491 
z
" clip-path="url(#p9497709687)" style="fill: #de8f05; stroke: #ffffff; stroke-width: 0.48"/>
    <path d="M 102.272346 300.906646 
C 103.067955 300.906646 103.831085 300.590547 104.393666 300.027966 
C 104.956247 299.465385 105.272346 298.702255 105.272346 297.906646 
C 105.272346 297.111037 104.956247 296.347906 104.393666 295.785325 
C 103.831085 295.222745 103.067955 294.906646 102.272346 294.906646 
C 101.476736 294.906646 100.713606 295.222745 100.151025 295.785325 
C 99.588445 296.347906 99.272346 297.111037 99.272346 297.906646 
C 99.272346 298.702255 99.588445 299.465385 100.151025 300.027966 
C 100.713606 300.590547 101.476736 300.906646 102.272346 300.906646 
z
" clip-path="url(#p9497709687)" style="fill: #cc78bc; stroke: #ffffff; stroke-width: 0.48"/>
    <path d="M 102.272346 320.159718 
C 103.067955 320.159718 103.831085 319.843619 104.393666 319.281038 
C 104.956247 318.718457 105.272346 317.955327 105.272346 317.159718 
C 105.272346 316.364108 104.956247 315.600978 104.393666 315.038397 
C 103.831085 314.475817 103.067955 314.159718 102.272346 314.159718 
C 101.476736 314.159718 100.713606 314.475817 100.151025 315.038397 
C 99.588445 315.600978 99.272346 316.364108 99.272346 317.159718 
C 99.272346 317.955327 99.588445 318.718457 100.151025 319.281038 
C 100.713606 319.843619 101.476736 320.159718 102.272346 320.159718 
z
" clip-path="url(#p9497709687)" style="fill: #cc78bc; stroke: #ffffff; stroke-width: 0.48"/>
    <path d="M 102.272346 304.965799 
C 103.067955 304.965799 103.831085 304.6497 104.393666 304.08712 
C 104.956247 303.524539 105.272346 302.761409 105.272346 301.965799 
C 105.272346 301.17019 104.956247 300.40706 104.393666 299.844479 
C 103.831085 299.281898 103.067955 298.965799 102.272346 298.965799 
C 101.476736 298.965799 100.713606 299.281898 100.151025 299.844479 
C 99.588445 300.40706 99.272346 301.17019 99.272346 301.965799 
C 99.272346 302.761409 99.588445 303.524539 100.151025 304.08712 
C 100.713606 304.6497 101.476736 304.965799 102.272346 304.965799 
z
" clip-path="url(#p9497709687)" style="fill: #cc78bc; stroke: #ffffff; stroke-width: 0.48"/>
    <path d="M 100.772346 266.495333 
L 102.272346 264.995333 
L 103.772346 266.495333 
L 105.272346 264.995333 
L 103.772346 263.495333 
L 105.272346 261.995333 
L 103.772346 260.495333 
L 102.272346 261.995333 
L 100.772346 260.495333 
L 99.272346 261.995333 
L 100.772346 263.495333 
L 99.272346 264.995333 
z
" clip-path="url(#p9497709687)" style="fill: #cc78bc; stroke: #ffffff; stroke-width: 0.48"/>
    <path d="M 100.772346 290.188613 
L 102.272346 288.688613 
L 103.772346 290.188613 
L 105.272346 288.688613 
L 103.772346 287.188613 
L 105.272346 285.688613 
L 103.772346 284.188613 
L 102.272346 285.688613 
L 100.772346 284.188613 
L 99.272346 285.688613 
L 100.772346 287.188613 
L 99.272346 288.688613 
z
" clip-path="url(#p9497709687)" style="fill: #cc78bc; stroke: #ffffff; stroke-width: 0.48"/>
    <path d="M 150.44678 206.588655 
C 151.242389 206.588655 152.00552 206.272556 152.5681 205.709975 
C 153.130681 205.147394 153.44678 204.384264 153.44678 203.588655 
C 153.44678 202.793045 153.130681 202.029915 152.5681 201.467334 
C 152.00552 200.904754 151.242389 200.588655 150.44678 200.588655 
C 149.651171 200.588655 148.88804 200.904754 148.32546 201.467334 
C 147.762879 202.029915 147.44678 202.793045 147.44678 203.588655 
C 147.44678 204.384264 147.762879 205.147394 148.32546 205.709975 
C 148.88804 206.272556 149.651171 206.588655 150.44678 206.588655 
z
" clip-path="url(#p9497709687)" style="fill: #de8f05; stroke: #ffffff; stroke-width: 0.48"/>
    <path d="M 150.44678 160.508857 
C 151.242389 160.508857 152.00552 160.192758 152.5681 159.630177 
C 153.130681 159.067597 153.44678 158.304466 153.44678 157.508857 
C 153.44678 156.713248 153.130681 155.950117 152.5681 155.387537 
C 152.00552 154.824956 151.242389 154.508857 150.44678 154.508857 
C 149.651171 154.508857 148.88804 154.824956 148.32546 155.387537 
C 147.762879 155.950117 147.44678 156.713248 147.44678 157.508857 
C 147.44678 158.304466 147.762879 159.067597 148.32546 159.630177 
C 148.88804 160.192758 149.651171 160.508857 150.44678 160.508857 
z
" clip-path="url(#p9497709687)" style="fill: #de8f05; stroke: #ffffff; stroke-width: 0.48"/>
    <path d="M 148.94678 108.741602 
L 150.44678 107.241602 
L 151.94678 108.741602 
L 153.44678 107.241602 
L 151.94678 105.741602 
L 153.44678 104.241602 
L 151.94678 102.741602 
L 150.44678 104.241602 
L 148.94678 102.741602 
L 147.44678 104.241602 
L 148.94678 105.741602 
L 147.44678 107.241602 
z
" clip-path="url(#p9497709687)" style="fill: #de8f05; stroke: #ffffff; stroke-width: 0.48"/>
    <path d="M 148.94678 122.076469 
L 150.44678 120.576469 
L 151.94678 122.076469 
L 153.44678 120.576469 
L 151.94678 119.076469 
L 153.44678 117.576469 
L 151.94678 116.076469 
L 150.44678 117.576469 
L 148.94678 116.076469 
L 147.44678 117.576469 
L 148.94678 119.076469 
L 147.44678 120.576469 
z
" clip-path="url(#p9497709687)" style="fill: #de8f05; stroke: #ffffff; stroke-width: 0.48"/>
    <path d="M 150.44678 316.364244 
C 151.242389 316.364244 152.00552 316.048145 152.5681 315.485564 
C 153.130681 314.922983 153.44678 314.159853 153.44678 313.364244 
C 153.44678 312.568635 153.130681 311.805504 152.5681 311.242924 
C 152.00552 310.680343 151.242389 310.364244 150.44678 310.364244 
C 149.651171 310.364244 148.88804 310.680343 148.32546 311.242924 
C 147.762879 311.805504 147.44678 312.568635 147.44678 313.364244 
C 147.44678 314.159853 147.762879 314.922983 148.32546 315.485564 
C 148.88804 316.048145 149.651171 316.364244 150.44678 316.364244 
z
" clip-path="url(#p9497709687)" style="fill: #cc78bc; stroke: #ffffff; stroke-width: 0.48"/>
    <path d="M 150.44678 318.834468 
C 151.242389 318.834468 152.00552 318.518369 152.5681 317.955788 
C 153.130681 317.393207 153.44678 316.630077 153.44678 315.834468 
C 153.44678 315.038858 153.130681 314.275728 152.5681 313.713147 
C 152.00552 313.150567 151.242389 312.834468 150.44678 312.834468 
C 149.651171 312.834468 148.88804 313.150567 148.32546 313.713147 
C 147.762879 314.275728 147.44678 315.038858 147.44678 315.834468 
C 147.44678 316.630077 147.762879 317.393207 148.32546 317.955788 
C 148.88804 318.518369 149.651171 318.834468 150.44678 318.834468 
z
" clip-path="url(#p9497709687)" style="fill: #cc78bc; stroke: #ffffff; stroke-width: 0.48"/>
    <path d="M 148.94678 298.78968 
L 150.44678 297.28968 
L 151.94678 298.78968 
L 153.44678 297.28968 
L 151.94678 295.78968 
L 153.44678 294.28968 
L 151.94678 292.78968 
L 150.44678 294.28968 
L 148.94678 292.78968 
L 147.44678 294.28968 
L 148.94678 295.78968 
L 147.44678 297.28968 
z
" clip-path="url(#p9497709687)" style="fill: #cc78bc; stroke: #ffffff; stroke-width: 0.48"/>
    <path d="M 148.94678 301.631468 
L 150.44678 300.131468 
L 151.94678 301.631468 
L 153.44678 300.131468 
L 151.94678 298.631468 
L 153.44678 297.131468 
L 151.94678 295.631468 
L 150.44678 297.131468 
L 148.94678 295.631468 
L 147.44678 297.131468 
L 148.94678 298.631468 
L 147.44678 300.131468 
z
" clip-path="url(#p9497709687)" style="fill: #cc78bc; stroke: #ffffff; stroke-width: 0.48"/>
    <path d="M 198.621215 255.351206 
C 199.416824 255.351206 200.179954 255.035107 200.742535 254.472527 
C 201.305116 253.909946 201.621215 253.146815 201.621215 252.351206 
C 201.621215 251.555597 201.305116 250.792467 200.742535 250.229886 
C 200.179954 249.667305 199.416824 249.351206 198.621215 249.351206 
C 197.825605 249.351206 197.062475 249.667305 196.499894 250.229886 
C 195.937313 250.792467 195.621215 251.555597 195.621215 252.351206 
C 195.621215 253.146815 195.937313 253.909946 196.499894 254.472527 
C 197.062475 255.035107 197.825605 255.351206 198.621215 255.351206 
z
" clip-path="url(#p9497709687)" style="fill: #de8f05; stroke: #ffffff; stroke-width: 0.48"/>
    <path d="M 198.621215 213.202223 
C 199.416824 213.202223 200.179954 212.886124 200.742535 212.323543 
C 201.305116 211.760963 201.621215 210.997832 201.621215 210.202223 
C 201.621215 209.406614 201.305116 208.643483 200.742535 208.080903 
C 200.179954 207.518322 199.416824 207.202223 198.621215 207.202223 
C 197.825605 207.202223 197.062475 207.518322 196.499894 208.080903 
C 195.937313 208.643483 195.621215 209.406614 195.621215 210.202223 
C 195.621215 210.997832 195.937313 211.760963 196.499894 212.323543 
C 197.062475 212.886124 197.825605 213.202223 198.621215 213.202223 
z
" clip-path="url(#p9497709687)" style="fill: #de8f05; stroke: #ffffff; stroke-width: 0.48"/>
    <path d="M 197.121215 166.483467 
L 198.621215 164.983467 
L 200.121215 166.483467 
L 201.621215 164.983467 
L 200.121215 163.483467 
L 201.621215 161.983467 
L 200.121215 160.483467 
L 198.621215 161.983467 
L 197.121215 160.483467 
L 195.621215 161.983467 
L 197.121215 163.483467 
L 195.621215 164.983467 
z
" clip-path="url(#p9497709687)" style="fill: #de8f05; stroke: #ffffff; stroke-width: 0.48"/>
    <path d="M 196.499894 142.820089 
L 196.499894 147.06273 
L 200.742535 147.06273 
L 200.742535 142.820089 
z
" clip-path="url(#p9497709687)" style="fill: #de8f05; stroke: #ffffff; stroke-width: 0.48"/>
    <path d="M 198.621215 347.696504 
C 199.416824 347.696504 200.179954 347.380405 200.742535 346.817824 
C 201.305116 346.255244 201.621215 345.492113 201.621215 344.696504 
C 201.621215 343.900895 201.305116 343.137764 200.742535 342.575184 
C 200.179954 342.012603 199.416824 341.696504 198.621215 341.696504 
C 197.825605 341.696504 197.062475 342.012603 196.499894 342.575184 
C 195.937313 343.137764 195.621215 343.900895 195.621215 344.696504 
C 195.621215 345.492113 195.937313 346.255244 196.499894 346.817824 
C 197.062475 347.380405 197.825605 347.696504 198.621215 347.696504 
z
" clip-path="url(#p9497709687)" style="fill: #cc78bc; stroke: #ffffff; stroke-width: 0.48"/>
    <path d="M 198.621215 333.66767 
C 199.416824 333.66767 200.179954 333.351571 200.742535 332.78899 
C 201.305116 332.22641 201.621215 331.463279 201.621215 330.66767 
C 201.621215 329.872061 201.305116 329.10893 200.742535 328.54635 
C 200.179954 327.983769 199.416824 327.66767 198.621215 327.66767 
C 197.825605 327.66767 197.062475 327.983769 196.499894 328.54635 
C 195.937313 329.10893 195.621215 329.872061 195.621215 330.66767 
C 195.621215 331.463279 195.937313 332.22641 196.499894 332.78899 
C 197.062475 333.351571 197.825605 333.66767 198.621215 333.66767 
z
" clip-path="url(#p9497709687)" style="fill: #cc78bc; stroke: #ffffff; stroke-width: 0.48"/>
    <path d="M 198.621215 337.810494 
C 199.416824 337.810494 200.179954 337.494395 200.742535 336.931814 
C 201.305116 336.369233 201.621215 335.606103 201.621215 334.810494 
C 201.621215 334.014884 201.305116 333.251754 200.742535 332.689173 
C 200.179954 332.126593 199.416824 331.810494 198.621215 331.810494 
C 197.825605 331.810494 197.062475 332.126593 196.499894 332.689173 
C 195.937313 333.251754 195.621215 334.014884 195.621215 334.810494 
C 195.621215 335.606103 195.937313 336.369233 196.499894 336.931814 
C 197.062475 337.494395 197.825605 337.810494 198.621215 337.810494 
z
" clip-path="url(#p9497709687)" style="fill: #cc78bc; stroke: #ffffff; stroke-width: 0.48"/>
    <path d="M 196.499894 321.050493 
L 196.499894 325.293133 
L 200.742535 325.293133 
L 200.742535 321.050493 
z
" clip-path="url(#p9497709687)" style="fill: #cc78bc; stroke: #ffffff; stroke-width: 0.48"/>
    <path d="M 196.499894 322.811371 
L 196.499894 327.054011 
L 200.742535 327.054011 
L 200.742535 322.811371 
z
" clip-path="url(#p9497709687)" style="fill: #cc78bc; stroke: #ffffff; stroke-width: 0.48"/>
    <path d="M 246.795649 228.938847 
C 247.591258 228.938847 248.354389 228.622748 248.916969 228.060167 
C 249.47955 227.497587 249.795649 226.734456 249.795649 225.938847 
C 249.795649 225.143238 249.47955 224.380107 248.916969 223.817527 
C 248.354389 223.254946 247.591258 222.938847 246.795649 222.938847 
C 246.00004 222.938847 245.236909 223.254946 244.674329 223.817527 
C 244.111748 224.380107 243.795649 225.143238 243.795649 225.938847 
C 243.795649 226.734456 244.111748 227.497587 244.674329 228.060167 
C 245.236909 228.622748 246.00004 228.938847 246.795649 228.938847 
z
" clip-path="url(#p9497709687)" style="fill: #de8f05; stroke: #ffffff; stroke-width: 0.48"/>
    <path d="M 246.795649 172.30879 
C 247.591258 172.30879 248.354389 171.992691 248.916969 171.43011 
C 249.47955 170.867529 249.795649 170.104399 249.795649 169.30879 
C 249.795649 168.51318 249.47955 167.75005 248.916969 167.187469 
C 248.354389 166.624889 247.591258 166.30879 246.795649 166.30879 
C 246.00004 166.30879 245.236909 166.624889 244.674329 167.187469 
C 244.111748 167.75005 243.795649 168.51318 243.795649 169.30879 
C 243.795649 170.104399 244.111748 170.867529 244.674329 171.43011 
C 245.236909 171.992691 246.00004 172.30879 246.795649 172.30879 
z
" clip-path="url(#p9497709687)" style="fill: #de8f05; stroke: #ffffff; stroke-width: 0.48"/>
    <path d="M 246.795649 149.616229 
C 247.591258 149.616229 248.354389 149.30013 248.916969 148.737549 
C 249.47955 148.174969 249.795649 147.411838 249.795649 146.616229 
C 249.795649 145.82062 249.47955 145.057489 248.916969 144.494909 
C 248.354389 143.932328 247.591258 143.616229 246.795649 143.616229 
C 246.00004 143.616229 245.236909 143.932328 244.674329 144.494909 
C 244.111748 145.057489 243.795649 145.82062 243.795649 146.616229 
C 243.795649 147.411838 244.111748 148.174969 244.674329 148.737549 
C 245.236909 149.30013 246.00004 149.616229 246.795649 149.616229 
z
" clip-path="url(#p9497709687)" style="fill: #de8f05; stroke: #ffffff; stroke-width: 0.48"/>
    <path d="M 244.674329 97.614367 
L 244.674329 101.857008 
L 248.916969 101.857008 
L 248.916969 97.614367 
z
" clip-path="url(#p9497709687)" style="fill: #de8f05; stroke: #ffffff; stroke-width: 0.48"/>
    <path d="M 245.295649 92.360298 
L 246.795649 90.860298 
L 248.295649 92.360298 
L 249.795649 90.860298 
L 248.295649 89.360298 
L 249.795649 87.860298 
L 248.295649 86.360298 
L 246.795649 87.860298 
L 245.295649 86.360298 
L 243.795649 87.860298 
L 245.295649 89.360298 
L 243.795649 90.860298 
z
" clip-path="url(#p9497709687)" style="fill: #de8f05; stroke: #ffffff; stroke-width: 0.48"/>
    <path d="M 246.795649 340.192196 
C 247.591258 340.192196 248.354389 339.876097 248.916969 339.313516 
C 249.47955 338.750935 249.795649 337.987805 249.795649 337.192196 
C 249.795649 336.396586 249.47955 335.633456 248.916969 335.070875 
C 248.354389 334.508295 247.591258 334.192196 246.795649 334.192196 
C 246.00004 334.192196 245.236909 334.508295 244.674329 335.070875 
C 244.111748 335.633456 243.795649 336.396586 243.795649 337.192196 
C 243.795649 337.987805 244.111748 338.750935 244.674329 339.313516 
C 245.236909 339.876097 246.00004 340.192196 246.795649 340.192196 
z
" clip-path="url(#p9497709687)" style="fill: #cc78bc; stroke: #ffffff; stroke-width: 0.48"/>
    <path d="M 246.795649 320.337905 
C 247.591258 320.337905 248.354389 320.021806 248.916969 319.459226 
C 249.47955 318.896645 249.795649 318.133515 249.795649 317.337905 
C 249.795649 316.542296 249.47955 315.779166 248.916969 315.216585 
C 248.354389 314.654004 247.591258 314.337905 246.795649 314.337905 
C 246.00004 314.337905 245.236909 314.654004 244.674329 315.216585 
C 244.111748 315.779166 243.795649 316.542296 243.795649 317.337905 
C 243.795649 318.133515 244.111748 318.896645 244.674329 319.459226 
C 245.236909 320.021806 246.00004 320.337905 246.795649 320.337905 
z
" clip-path="url(#p9497709687)" style="fill: #cc78bc; stroke: #ffffff; stroke-width: 0.48"/>
    <path d="M 244.674329 304.668892 
L 244.674329 308.911533 
L 248.916969 308.911533 
L 248.916969 304.668892 
z
" clip-path="url(#p9497709687)" style="fill: #cc78bc; stroke: #ffffff; stroke-width: 0.48"/>
    <path d="M 244.674329 299.799119 
L 244.674329 304.04176 
L 248.916969 304.04176 
L 248.916969 299.799119 
z
" clip-path="url(#p9497709687)" style="fill: #cc78bc; stroke: #ffffff; stroke-width: 0.48"/>
    <path d="M 294.970083 280.879526 
C 295.765693 280.879526 296.528823 280.563427 297.091404 280.000847 
C 297.653985 279.438266 297.970083 278.675136 297.970083 277.879526 
C 297.970083 277.083917 297.653985 276.320787 297.091404 275.758206 
C 296.528823 275.195625 295.765693 274.879526 294.970083 274.879526 
C 294.174474 274.879526 293.411344 275.195625 292.848763 275.758206 
C 292.286182 276.320787 291.970083 277.083917 291.970083 277.879526 
C 291.970083 278.675136 292.286182 279.438266 292.848763 280.000847 
C 293.411344 280.563427 294.174474 280.879526 294.970083 280.879526 
z
" clip-path="url(#p9497709687)" style="fill: #de8f05; stroke: #ffffff; stroke-width: 0.48"/>
    <path d="M 294.970083 202.805277 
C 295.765693 202.805277 296.528823 202.489178 297.091404 201.926598 
C 297.653985 201.364017 297.970083 200.600887 297.970083 199.805277 
C 297.970083 199.009668 297.653985 198.246538 297.091404 197.683957 
C 296.528823 197.121376 295.765693 196.805277 294.970083 196.805277 
C 294.174474 196.805277 293.411344 197.121376 292.848763 197.683957 
C 292.286182 198.246538 291.970083 199.009668 291.970083 199.805277 
C 291.970083 200.600887 292.286182 201.364017 292.848763 201.926598 
C 293.411344 202.489178 294.174474 202.805277 294.970083 202.805277 
z
" clip-path="url(#p9497709687)" style="fill: #de8f05; stroke: #ffffff; stroke-width: 0.48"/>
    <path d="M 293.470083 129.144509 
L 294.970083 127.644509 
L 296.470083 129.144509 
L 297.970083 127.644509 
L 296.470083 126.144509 
L 297.970083 124.644509 
L 296.470083 123.144509 
L 294.970083 124.644509 
L 293.470083 123.144509 
L 291.970083 124.644509 
L 293.470083 126.144509 
L 291.970083 127.644509 
z
" clip-path="url(#p9497709687)" style="fill: #de8f05; stroke: #ffffff; stroke-width: 0.48"/>
    <path d="M 292.848763 114.797266 
L 292.848763 119.039906 
L 297.091404 119.039906 
L 297.091404 114.797266 
z
" clip-path="url(#p9497709687)" style="fill: #de8f05; stroke: #ffffff; stroke-width: 0.48"/>
    <path d="M 294.970083 338.775721 
C 295.765693 338.775721 296.528823 338.459622 297.091404 337.897041 
C 297.653985 337.33446 297.970083 336.57133 297.970083 335.775721 
C 297.970083 334.980112 297.653985 334.216981 297.091404 333.6544 
C 296.528823 333.09182 295.765693 332.775721 294.970083 332.775721 
C 294.174474 332.775721 293.411344 333.09182 292.848763 333.6544 
C 292.286182 334.216981 291.970083 334.980112 291.970083 335.775721 
C 291.970083 336.57133 292.286182 337.33446 292.848763 337.897041 
C 293.411344 338.459622 294.174474 338.775721 294.970083 338.775721 
z
" clip-path="url(#p9497709687)" style="fill: #cc78bc; stroke: #ffffff; stroke-width: 0.48"/>
    <path d="M 294.970083 332.978338 
C 295.765693 332.978338 296.528823 332.662239 297.091404 332.099659 
C 297.653985 331.537078 297.970083 330.773948 297.970083 329.978338 
C 297.970083 329.182729 297.653985 328.419599 297.091404 327.857018 
C 296.528823 327.294437 295.765693 326.978338 294.970083 326.978338 
C 294.174474 326.978338 293.411344 327.294437 292.848763 327.857018 
C 292.286182 328.419599 291.970083 329.182729 291.970083 329.978338 
C 291.970083 330.773948 292.286182 331.537078 292.848763 332.099659 
C 293.411344 332.662239 294.174474 332.978338 294.970083 332.978338 
z
" clip-path="url(#p9497709687)" style="fill: #cc78bc; stroke: #ffffff; stroke-width: 0.48"/>
    <path d="M 292.848763 315.406791 
L 292.848763 319.649432 
L 297.091404 319.649432 
L 297.091404 315.406791 
z
" clip-path="url(#p9497709687)" style="fill: #cc78bc; stroke: #ffffff; stroke-width: 0.48"/>
    <path d="M 292.848763 314.970455 
L 292.848763 319.213096 
L 297.091404 319.213096 
L 297.091404 314.970455 
z
" clip-path="url(#p9497709687)" style="fill: #cc78bc; stroke: #ffffff; stroke-width: 0.48"/>
   </g>
   <g id="line2d_12"/>
   <g id="line2d_13"/>
   <g id="line2d_14"/>
   <g id="line2d_15"/>
   <g id="line2d_16"/>
   <g id="line2d_17"/>
   <g id="line2d_18"/>
   <g id="line2d_19">
    <path d="M 42.054303 180.274145 
L 307.013692 180.274145 
" clip-path="url(#p9497709687)" style="fill: none; stroke-dasharray: 5.55,2.4; stroke-dashoffset: 0; stroke: #7f7f7f; stroke-width: 1.5"/>
   </g>
   <g id="line2d_20">
    <path d="M 42.054303 225.040206 
L 307.013692 225.040206 
" clip-path="url(#p9497709687)" style="fill: none; stroke-dasharray: 5.55,2.4; stroke-dashoffset: 0; stroke: #7f7f7f; stroke-width: 1.5"/>
   </g>
   <g id="line2d_21">
    <path d="M 42.054303 287.875215 
L 307.013692 287.875215 
" clip-path="url(#p9497709687)" style="fill: none; stroke-dasharray: 5.55,2.4; stroke-dashoffset: 0; stroke: #7f7f7f; stroke-width: 1.5"/>
   </g>
   <g id="line2d_22">
    <path d="M 42.054303 328.527242 
L 307.013692 328.527242 
" clip-path="url(#p9497709687)" style="fill: none; stroke-dasharray: 5.55,2.4; stroke-dashoffset: 0; stroke: #7f7f7f; stroke-width: 1.5"/>
   </g>
   <g id="patch_3">
    <path d="M 42.054303 360.967755 
L 42.054303 3.00024 
" style="fill: none; stroke: #cccccc; stroke-width: 1.25; stroke-linejoin: miter; stroke-linecap: square"/>
   </g>
   <g id="patch_4">
    <path d="M 307.013692 360.967755 
L 307.013692 3.00024 
" style="fill: none; stroke: #cccccc; stroke-width: 1.25; stroke-linejoin: miter; stroke-linecap: square"/>
   </g>
   <g id="patch_5">
    <path d="M 42.054303 360.967755 
L 307.013692 360.967755 
" style="fill: none; stroke: #cccccc; stroke-width: 1.25; stroke-linejoin: miter; stroke-linecap: square"/>
   </g>
   <g id="patch_6">
    <path d="M 42.054303 3.00024 
L 307.013692 3.00024 
" style="fill: none; stroke: #cccccc; stroke-width: 1.25; stroke-linejoin: miter; stroke-linecap: square"/>
   </g>
   <g id="text_14">
    <g id="patch_7">
     <path d="M 107.089789 178.049345 
L 143.104789 178.049345 
Q 143.344789 178.049345 143.344789 177.809345 
L 143.344789 166.83497 
Q 143.344789 166.59497 143.104789 166.59497 
L 107.089789 166.59497 
Q 106.849789 166.59497 106.849789 166.83497 
L 106.849789 177.809345 
Q 106.849789 178.049345 107.089789 178.049345 
z
" style="fill: #ffffff; stroke: #ffffff; stroke-linejoin: miter"/>
    </g>
    <!-- 10 min -->
    <g style="fill: #262626" transform="translate(107.089789 175.424345) scale(0.12 -0.12)">
     <use xlink:href="#ArialMT-31"/>
     <use xlink:href="#ArialMT-30" x="55.615234"/>
     <use xlink:href="#ArialMT-20" x="111.230469"/>
     <use xlink:href="#ArialMT-6d" x="139.013672"/>
     <use xlink:href="#ArialMT-69" x="222.314453"/>
     <use xlink:href="#ArialMT-6e" x="244.53125"/>
    </g>
   </g>
   <g id="text_15">
    <g id="patch_8">
     <path d="M 107.089789 222.815405 
L 143.104789 222.815405 
Q 143.344789 222.815405 143.344789 222.575405 
L 143.344789 211.60103 
Q 143.344789 211.36103 143.104789 211.36103 
L 107.089789 211.36103 
Q 106.849789 211.36103 106.849789 211.60103 
L 106.849789 222.575405 
Q 106.849789 222.815405 107.089789 222.815405 
z
" style="fill: #ffffff; stroke: #ffffff; stroke-linejoin: miter"/>
    </g>
    <!-- 20 min -->
    <g style="fill: #262626" transform="translate(107.089789 220.190405) scale(0.12 -0.12)">
     <use xlink:href="#ArialMT-32"/>
     <use xlink:href="#ArialMT-30" x="55.615234"/>
     <use xlink:href="#ArialMT-20" x="111.230469"/>
     <use xlink:href="#ArialMT-6d" x="139.013672"/>
     <use xlink:href="#ArialMT-69" x="222.314453"/>
     <use xlink:href="#ArialMT-6e" x="244.53125"/>
    </g>
   </g>
   <g id="text_16">
    <g id="patch_9">
     <path d="M 107.089789 285.650414 
L 127.765414 285.650414 
Q 128.005414 285.650414 128.005414 285.410414 
L 128.005414 274.436039 
Q 128.005414 274.196039 127.765414 274.196039 
L 107.089789 274.196039 
Q 106.849789 274.196039 106.849789 274.436039 
L 106.849789 285.410414 
Q 106.849789 285.650414 107.089789 285.650414 
z
" style="fill: #ffffff; stroke: #ffffff; stroke-linejoin: miter"/>
    </g>
    <!-- 1 hr -->
    <g style="fill: #262626" transform="translate(107.089789 283.025414) scale(0.12 -0.12)">
     <use xlink:href="#ArialMT-31"/>
     <use xlink:href="#ArialMT-20" x="55.615234"/>
     <use xlink:href="#ArialMT-68" x="83.398438"/>
     <use xlink:href="#ArialMT-72" x="139.013672"/>
    </g>
   </g>
   <g id="text_17">
    <g id="patch_10">
     <path d="M 107.089789 326.302442 
L 127.765414 326.302442 
Q 128.005414 326.302442 128.005414 326.062442 
L 128.005414 315.088067 
Q 128.005414 314.848067 127.765414 314.848067 
L 107.089789 314.848067 
Q 106.849789 314.848067 106.849789 315.088067 
L 106.849789 326.062442 
Q 106.849789 326.302442 107.089789 326.302442 
z
" style="fill: #ffffff; stroke: #ffffff; stroke-linejoin: miter"/>
    </g>
    <!-- 4 hr -->
    <g style="fill: #262626" transform="translate(107.089789 323.677442) scale(0.12 -0.12)">
     <use xlink:href="#ArialMT-34"/>
     <use xlink:href="#ArialMT-20" x="55.615234"/>
     <use xlink:href="#ArialMT-68" x="83.398438"/>
     <use xlink:href="#ArialMT-72" x="139.013672"/>
    </g>
   </g>
   <g id="legend_1">
    <g id="patch_11">
     <path d="M 314.713692 120.982115 
L 448.343067 120.982115 
Q 450.543067 120.982115 450.543067 118.782115 
L 450.543067 10.70024 
Q 450.543067 8.50024 448.343067 8.50024 
L 314.713692 8.50024 
Q 312.513692 8.50024 312.513692 10.70024 
L 312.513692 118.782115 
Q 312.513692 120.982115 314.713692 120.982115 
z
" style="fill: #ffffff; opacity: 0.8; stroke: #cccccc; stroke-linejoin: miter"/>
    </g>
    <g id="line2d_23"/>
    <g id="text_18">
     <!-- Road Surface -->
     <g style="fill: #262626" transform="translate(347.713692 20.773834) scale(0.11 -0.11)">
      <defs>
       <path id="ArialMT-64" d="M 2575 0 
L 2575 419 
Q 2259 -75 1647 -75 
Q 1250 -75 917 144 
Q 584 363 401 755 
Q 219 1147 219 1656 
Q 219 2153 384 2558 
Q 550 2963 881 3178 
Q 1213 3394 1622 3394 
Q 1922 3394 2156 3267 
Q 2391 3141 2538 2938 
L 2538 4581 
L 3097 4581 
L 3097 0 
L 2575 0 
z
M 797 1656 
Q 797 1019 1065 703 
Q 1334 388 1700 388 
Q 2069 388 2326 689 
Q 2584 991 2584 1609 
Q 2584 2291 2321 2609 
Q 2059 2928 1675 2928 
Q 1300 2928 1048 2622 
Q 797 2316 797 1656 
z
" transform="scale(0.015625)"/>
       <path id="ArialMT-75" d="M 2597 0 
L 2597 488 
Q 2209 -75 1544 -75 
Q 1250 -75 995 37 
Q 741 150 617 320 
Q 494 491 444 738 
Q 409 903 409 1263 
L 409 3319 
L 972 3319 
L 972 1478 
Q 972 1038 1006 884 
Q 1059 663 1231 536 
Q 1403 409 1656 409 
Q 1909 409 2131 539 
Q 2353 669 2445 892 
Q 2538 1116 2538 1541 
L 2538 3319 
L 3100 3319 
L 3100 0 
L 2597 0 
z
" transform="scale(0.015625)"/>
       <path id="ArialMT-66" d="M 556 0 
L 556 2881 
L 59 2881 
L 59 3319 
L 556 3319 
L 556 3672 
Q 556 4006 616 4169 
Q 697 4388 901 4523 
Q 1106 4659 1475 4659 
Q 1713 4659 2000 4603 
L 1916 4113 
Q 1741 4144 1584 4144 
Q 1328 4144 1222 4034 
Q 1116 3925 1116 3625 
L 1116 3319 
L 1763 3319 
L 1763 2881 
L 1116 2881 
L 1116 0 
L 556 0 
z
" transform="scale(0.015625)"/>
      </defs>
      <use xlink:href="#ArialMT-52"/>
      <use xlink:href="#ArialMT-6f" x="72.216797"/>
      <use xlink:href="#ArialMT-61" x="127.832031"/>
      <use xlink:href="#ArialMT-64" x="183.447266"/>
      <use xlink:href="#ArialMT-20" x="239.0625"/>
      <use xlink:href="#ArialMT-53" x="266.845703"/>
      <use xlink:href="#ArialMT-75" x="333.544922"/>
      <use xlink:href="#ArialMT-72" x="389.160156"/>
      <use xlink:href="#ArialMT-66" x="422.460938"/>
      <use xlink:href="#ArialMT-61" x="450.244141"/>
      <use xlink:href="#ArialMT-63" x="505.859375"/>
      <use xlink:href="#ArialMT-65" x="555.859375"/>
     </g>
    </g>
    <g id="line2d_24">
     <defs>
      <path id="m23b52568a8" d="M 0 3 
C 0.795609 3 1.55874 2.683901 2.12132 2.12132 
C 2.683901 1.55874 3 0.795609 3 0 
C 3 -0.795609 2.683901 -1.55874 2.12132 -2.12132 
C 1.55874 -2.683901 0.795609 -3 0 -3 
C -0.795609 -3 -1.55874 -2.683901 -2.12132 -2.12132 
C -2.683901 -1.55874 -3 -0.795609 -3 0 
C -3 0.795609 -2.683901 1.55874 -2.12132 2.12132 
C -1.55874 2.683901 -0.795609 3 0 3 
z
" style="stroke: #ffffff; stroke-width: 0.48"/>
     </defs>
     <g>
      <use xlink:href="#m23b52568a8" x="327.913692" y="32.483678" style="fill: #de8f05; stroke: #ffffff; stroke-width: 0.48"/>
     </g>
    </g>
    <g id="text_19">
     <!-- Paver Bricks -->
     <g style="fill: #262626" transform="translate(347.713692 36.333678) scale(0.11 -0.11)">
      <defs>
       <path id="ArialMT-76" d="M 1344 0 
L 81 3319 
L 675 3319 
L 1388 1331 
Q 1503 1009 1600 663 
Q 1675 925 1809 1294 
L 2547 3319 
L 3125 3319 
L 1869 0 
L 1344 0 
z
" transform="scale(0.015625)"/>
       <path id="ArialMT-6b" d="M 425 0 
L 425 4581 
L 988 4581 
L 988 1969 
L 2319 3319 
L 3047 3319 
L 1778 2088 
L 3175 0 
L 2481 0 
L 1384 1697 
L 988 1316 
L 988 0 
L 425 0 
z
" transform="scale(0.015625)"/>
      </defs>
      <use xlink:href="#ArialMT-50"/>
      <use xlink:href="#ArialMT-61" x="66.699219"/>
      <use xlink:href="#ArialMT-76" x="122.314453"/>
      <use xlink:href="#ArialMT-65" x="172.314453"/>
      <use xlink:href="#ArialMT-72" x="227.929688"/>
      <use xlink:href="#ArialMT-20" x="261.230469"/>
      <use xlink:href="#ArialMT-42" x="289.013672"/>
      <use xlink:href="#ArialMT-72" x="355.712891"/>
      <use xlink:href="#ArialMT-69" x="389.013672"/>
      <use xlink:href="#ArialMT-63" x="411.230469"/>
      <use xlink:href="#ArialMT-6b" x="461.230469"/>
      <use xlink:href="#ArialMT-73" x="511.230469"/>
     </g>
    </g>
    <g id="line2d_25">
     <defs>
      <path id="mddf0ca46d2" d="M 0 3 
C 0.795609 3 1.55874 2.683901 2.12132 2.12132 
C 2.683901 1.55874 3 0.795609 3 0 
C 3 -0.795609 2.683901 -1.55874 2.12132 -2.12132 
C 1.55874 -2.683901 0.795609 -3 0 -3 
C -0.795609 -3 -1.55874 -2.683901 -2.12132 -2.12132 
C -2.683901 -1.55874 -3 -0.795609 -3 0 
C -3 0.795609 -2.683901 1.55874 -2.12132 2.12132 
C -1.55874 2.683901 -0.795609 3 0 3 
z
" style="stroke: #ffffff; stroke-width: 0.48"/>
     </defs>
     <g>
      <use xlink:href="#mddf0ca46d2" x="327.913692" y="48.043521" style="fill: #cc78bc; stroke: #ffffff; stroke-width: 0.48"/>
     </g>
    </g>
    <g id="text_20">
     <!-- Tarmac -->
     <g style="fill: #262626" transform="translate(347.713692 51.893521) scale(0.11 -0.11)">
      <defs>
       <path id="ArialMT-54" d="M 1659 0 
L 1659 4041 
L 150 4041 
L 150 4581 
L 3781 4581 
L 3781 4041 
L 2266 4041 
L 2266 0 
L 1659 0 
z
" transform="scale(0.015625)"/>
      </defs>
      <use xlink:href="#ArialMT-54"/>
      <use xlink:href="#ArialMT-61" x="49.958984"/>
      <use xlink:href="#ArialMT-72" x="105.574219"/>
      <use xlink:href="#ArialMT-6d" x="138.875"/>
      <use xlink:href="#ArialMT-61" x="222.175781"/>
      <use xlink:href="#ArialMT-63" x="277.791016"/>
     </g>
    </g>
    <g id="line2d_26"/>
    <g id="text_21">
     <!-- Target Speed [km/h] -->
     <g style="fill: #262626" transform="translate(347.713692 67.587427) scale(0.11 -0.11)">
      <defs>
       <path id="ArialMT-70" d="M 422 -1272 
L 422 3319 
L 934 3319 
L 934 2888 
Q 1116 3141 1344 3267 
Q 1572 3394 1897 3394 
Q 2322 3394 2647 3175 
Q 2972 2956 3137 2557 
Q 3303 2159 3303 1684 
Q 3303 1175 3120 767 
Q 2938 359 2589 142 
Q 2241 -75 1856 -75 
Q 1575 -75 1351 44 
Q 1128 163 984 344 
L 984 -1272 
L 422 -1272 
z
M 931 1641 
Q 931 1000 1190 694 
Q 1450 388 1819 388 
Q 2194 388 2461 705 
Q 2728 1022 2728 1688 
Q 2728 2322 2467 2637 
Q 2206 2953 1844 2953 
Q 1484 2953 1207 2617 
Q 931 2281 931 1641 
z
" transform="scale(0.015625)"/>
      </defs>
      <use xlink:href="#ArialMT-54"/>
      <use xlink:href="#ArialMT-61" x="49.958984"/>
      <use xlink:href="#ArialMT-72" x="105.574219"/>
      <use xlink:href="#ArialMT-67" x="138.875"/>
      <use xlink:href="#ArialMT-65" x="194.490234"/>
      <use xlink:href="#ArialMT-74" x="250.105469"/>
      <use xlink:href="#ArialMT-20" x="277.888672"/>
      <use xlink:href="#ArialMT-53" x="305.671875"/>
      <use xlink:href="#ArialMT-70" x="372.371094"/>
      <use xlink:href="#ArialMT-65" x="427.986328"/>
      <use xlink:href="#ArialMT-65" x="483.601562"/>
      <use xlink:href="#ArialMT-64" x="539.216797"/>
      <use xlink:href="#ArialMT-20" x="594.832031"/>
      <use xlink:href="#ArialMT-5b" x="622.615234"/>
      <use xlink:href="#ArialMT-6b" x="650.398438"/>
      <use xlink:href="#ArialMT-6d" x="700.398438"/>
      <use xlink:href="#ArialMT-2f" x="783.699219"/>
      <use xlink:href="#ArialMT-68" x="811.482422"/>
      <use xlink:href="#ArialMT-5d" x="867.097656"/>
     </g>
    </g>
    <g id="line2d_27">
     <defs>
      <path id="me713163553" d="M 0 3 
C 0.795609 3 1.55874 2.683901 2.12132 2.12132 
C 2.683901 1.55874 3 0.795609 3 0 
C 3 -0.795609 2.683901 -1.55874 2.12132 -2.12132 
C 1.55874 -2.683901 0.795609 -3 0 -3 
C -0.795609 -3 -1.55874 -2.683901 -2.12132 -2.12132 
C -2.683901 -1.55874 -3 -0.795609 -3 0 
C -3 0.795609 -2.683901 1.55874 -2.12132 2.12132 
C -1.55874 2.683901 -0.795609 3 0 3 
z
" style="stroke: #ffffff; stroke-width: 0.48"/>
     </defs>
     <g>
      <use xlink:href="#me713163553" x="327.913692" y="79.426178" style="fill: #333333; stroke: #ffffff; stroke-width: 0.48"/>
     </g>
    </g>
    <g id="text_22">
     <!-- 12 -->
     <g style="fill: #262626" transform="translate(347.713692 83.276178) scale(0.11 -0.11)">
      <use xlink:href="#ArialMT-31"/>
      <use xlink:href="#ArialMT-32" x="55.615234"/>
     </g>
    </g>
    <g id="line2d_28">
     <defs>
      <path id="m63d8c9036c" d="M -1.5 3 
L 0 1.5 
L 1.5 3 
L 3 1.5 
L 1.5 0 
L 3 -1.5 
L 1.5 -3 
L 0 -1.5 
L -1.5 -3 
L -3 -1.5 
L -1.5 0 
L -3 1.5 
z
" style="stroke: #ffffff; stroke-width: 0.48; stroke-linejoin: miter"/>
     </defs>
     <g>
      <use xlink:href="#m63d8c9036c" x="327.913692" y="94.986021" style="fill: #333333; stroke: #ffffff; stroke-width: 0.48; stroke-linejoin: miter"/>
     </g>
    </g>
    <g id="text_23">
     <!-- 20 -->
     <g style="fill: #262626" transform="translate(347.713692 98.836021) scale(0.11 -0.11)">
      <use xlink:href="#ArialMT-32"/>
      <use xlink:href="#ArialMT-30" x="55.615234"/>
     </g>
    </g>
    <g id="line2d_29">
     <defs>
      <path id="m4a123b7f0b" d="M -2.12132 -2.12132 
L -2.12132 2.12132 
L 2.12132 2.12132 
L 2.12132 -2.12132 
z
" style="stroke: #ffffff; stroke-width: 0.48; stroke-linejoin: miter"/>
     </defs>
     <g>
      <use xlink:href="#m4a123b7f0b" x="327.913692" y="110.545865" style="fill: #333333; stroke: #ffffff; stroke-width: 0.48; stroke-linejoin: miter"/>
     </g>
    </g>
    <g id="text_24">
     <!-- 25 -->
     <g style="fill: #262626" transform="translate(347.713692 114.395865) scale(0.11 -0.11)">
      <defs>
       <path id="ArialMT-35" d="M 266 1200 
L 856 1250 
Q 922 819 1161 601 
Q 1400 384 1738 384 
Q 2144 384 2425 690 
Q 2706 997 2706 1503 
Q 2706 1984 2436 2262 
Q 2166 2541 1728 2541 
Q 1456 2541 1237 2417 
Q 1019 2294 894 2097 
L 366 2166 
L 809 4519 
L 3088 4519 
L 3088 3981 
L 1259 3981 
L 1013 2750 
Q 1425 3038 1878 3038 
Q 2478 3038 2890 2622 
Q 3303 2206 3303 1553 
Q 3303 931 2941 478 
Q 2500 -78 1738 -78 
Q 1113 -78 717 272 
Q 322 622 266 1200 
z
" transform="scale(0.015625)"/>
      </defs>
      <use xlink:href="#ArialMT-32"/>
      <use xlink:href="#ArialMT-35" x="55.615234"/>
     </g>
    </g>
   </g>
  </g>
 </g>
 <defs>
  <clipPath id="p9497709687">
   <rect x="42.054303" y="3.00024" width="264.95939" height="357.967515"/>
  </clipPath>
 </defs>
</svg>
