<?xml version="1.0" encoding="utf-8" standalone="no"?>
<!DOCTYPE svg PUBLIC "-//W3C//DTD SVG 1.1//EN"
  "http://www.w3.org/Graphics/SVG/1.1/DTD/svg11.dtd">
<svg xmlns:xlink="http://www.w3.org/1999/xlink" width="453.543307pt" height="453.543307pt" viewBox="0 0 453.543307 453.543307" xmlns="http://www.w3.org/2000/svg" version="1.1">
 <metadata>
  <rdf:RDF xmlns:dc="http://purl.org/dc/elements/1.1/" xmlns:cc="http://creativecommons.org/ns#" xmlns:rdf="http://www.w3.org/1999/02/22-rdf-syntax-ns#">
   <cc:Work>
    <dc:type rdf:resource="http://purl.org/dc/dcmitype/StillImage"/>
    <dc:date>2025-09-20T18:45:02.305649</dc:date>
    <dc:format>image/svg+xml</dc:format>
    <dc:creator>
     <cc:Agent>
      <dc:title>Matplotlib v3.9.3, https://matplotlib.org/</dc:title>
     </cc:Agent>
    </dc:creator>
   </cc:Work>
  </rdf:RDF>
 </metadata>
 <defs>
  <style type="text/css">*{stroke-linejoin: round; stroke-linecap: butt}</style>
 </defs>
 <g id="figure_1">
  <g id="patch_1">
   <path d="M 0 453.543307 
L 453.543307 453.543307 
L 453.543307 0 
L 0 0 
z
" style="fill: #ffffff"/>
  </g>
  <g id="axes_1">
   <g id="patch_2">
    <path d="M 43.09774 352.954786 
L 293.581661 352.954786 
L 293.581661 3.00024 
L 43.09774 3.00024 
z
" style="fill: #ffffff"/>
   </g>
   <g id="matplotlib.axis_1">
    <g id="xtick_1">
     <g id="line2d_1">
      <path d="M 54.483373 352.954786 
L 54.483373 3.00024 
" clip-path="url(#pf0346008f8)" style="fill: none; stroke: #cccccc; stroke-linecap: round"/>
     </g>
     <g id="text_1">
      <!-- keiler, -->
      <g style="fill: #262626" transform="translate(51.359888 411.90752) rotate(-90) scale(0.11 -0.11)">
       <defs>
        <path id="DejaVuSans-6b" d="M 581 4863 
L 1159 4863 
L 1159 1991 
L 2875 3500 
L 3609 3500 
L 1753 1863 
L 3688 0 
L 2938 0 
L 1159 1709 
L 1159 0 
L 581 0 
L 581 4863 
z
" transform="scale(0.015625)"/>
        <path id="DejaVuSans-65" d="M 3597 1894 
L 3597 1613 
L 953 1613 
Q 991 1019 1311 708 
Q 1631 397 2203 397 
Q 2534 397 2845 478 
Q 3156 559 3463 722 
L 3463 178 
Q 3153 47 2828 -22 
Q 2503 -91 2169 -91 
Q 1331 -91 842 396 
Q 353 884 353 1716 
Q 353 2575 817 3079 
Q 1281 3584 2069 3584 
Q 2775 3584 3186 3129 
Q 3597 2675 3597 1894 
z
M 3022 2063 
Q 3016 2534 2758 2815 
Q 2500 3097 2075 3097 
Q 1594 3097 1305 2825 
Q 1016 2553 972 2059 
L 3022 2063 
z
" transform="scale(0.015625)"/>
        <path id="DejaVuSans-69" d="M 603 3500 
L 1178 3500 
L 1178 0 
L 603 0 
L 603 3500 
z
M 603 4863 
L 1178 4863 
L 1178 4134 
L 603 4134 
L 603 4863 
z
" transform="scale(0.015625)"/>
        <path id="DejaVuSans-6c" d="M 603 4863 
L 1178 4863 
L 1178 0 
L 603 0 
L 603 4863 
z
" transform="scale(0.015625)"/>
        <path id="DejaVuSans-72" d="M 2631 2963 
Q 2534 3019 2420 3045 
Q 2306 3072 2169 3072 
Q 1681 3072 1420 2755 
Q 1159 2438 1159 1844 
L 1159 0 
L 581 0 
L 581 3500 
L 1159 3500 
L 1159 2956 
Q 1341 3275 1631 3429 
Q 1922 3584 2338 3584 
Q 2397 3584 2469 3576 
Q 2541 3569 2628 3553 
L 2631 2963 
z
" transform="scale(0.015625)"/>
        <path id="DejaVuSans-2c" d="M 750 794 
L 1409 794 
L 1409 256 
L 897 -744 
L 494 -744 
L 750 256 
L 750 794 
z
" transform="scale(0.015625)"/>
       </defs>
       <use xlink:href="#DejaVuSans-6b"/>
       <use xlink:href="#DejaVuSans-65" x="54.285156"/>
       <use xlink:href="#DejaVuSans-69" x="115.808594"/>
       <use xlink:href="#DejaVuSans-6c" x="143.591797"/>
       <use xlink:href="#DejaVuSans-65" x="171.375"/>
       <use xlink:href="#DejaVuSans-72" x="232.898438"/>
       <use xlink:href="#DejaVuSans-2c" x="274.011719"/>
      </g>
      <!-- melia, 3 mo -->
      <g style="fill: #262626" transform="translate(63.677482 427.722598) rotate(-90) scale(0.11 -0.11)">
       <defs>
        <path id="DejaVuSans-6d" d="M 3328 2828 
Q 3544 3216 3844 3400 
Q 4144 3584 4550 3584 
Q 5097 3584 5394 3201 
Q 5691 2819 5691 2113 
L 5691 0 
L 5113 0 
L 5113 2094 
Q 5113 2597 4934 2840 
Q 4756 3084 4391 3084 
Q 3944 3084 3684 2787 
Q 3425 2491 3425 1978 
L 3425 0 
L 2847 0 
L 2847 2094 
Q 2847 2600 2669 2842 
Q 2491 3084 2119 3084 
Q 1678 3084 1418 2786 
Q 1159 2488 1159 1978 
L 1159 0 
L 581 0 
L 581 3500 
L 1159 3500 
L 1159 2956 
Q 1356 3278 1631 3431 
Q 1906 3584 2284 3584 
Q 2666 3584 2933 3390 
Q 3200 3197 3328 2828 
z
" transform="scale(0.015625)"/>
        <path id="DejaVuSans-61" d="M 2194 1759 
Q 1497 1759 1228 1600 
Q 959 1441 959 1056 
Q 959 750 1161 570 
Q 1363 391 1709 391 
Q 2188 391 2477 730 
Q 2766 1069 2766 1631 
L 2766 1759 
L 2194 1759 
z
M 3341 1997 
L 3341 0 
L 2766 0 
L 2766 531 
Q 2569 213 2275 61 
Q 1981 -91 1556 -91 
Q 1019 -91 701 211 
Q 384 513 384 1019 
Q 384 1609 779 1909 
Q 1175 2209 1959 2209 
L 2766 2209 
L 2766 2266 
Q 2766 2663 2505 2880 
Q 2244 3097 1772 3097 
Q 1472 3097 1187 3025 
Q 903 2953 641 2809 
L 641 3341 
Q 956 3463 1253 3523 
Q 1550 3584 1831 3584 
Q 2591 3584 2966 3190 
Q 3341 2797 3341 1997 
z
" transform="scale(0.015625)"/>
        <path id="DejaVuSans-20" transform="scale(0.015625)"/>
        <path id="DejaVuSans-33" d="M 2597 2516 
Q 3050 2419 3304 2112 
Q 3559 1806 3559 1356 
Q 3559 666 3084 287 
Q 2609 -91 1734 -91 
Q 1441 -91 1130 -33 
Q 819 25 488 141 
L 488 750 
Q 750 597 1062 519 
Q 1375 441 1716 441 
Q 2309 441 2620 675 
Q 2931 909 2931 1356 
Q 2931 1769 2642 2001 
Q 2353 2234 1838 2234 
L 1294 2234 
L 1294 2753 
L 1863 2753 
Q 2328 2753 2575 2939 
Q 2822 3125 2822 3475 
Q 2822 3834 2567 4026 
Q 2313 4219 1838 4219 
Q 1578 4219 1281 4162 
Q 984 4106 628 3988 
L 628 4550 
Q 988 4650 1302 4700 
Q 1616 4750 1894 4750 
Q 2613 4750 3031 4423 
Q 3450 4097 3450 3541 
Q 3450 3153 3228 2886 
Q 3006 2619 2597 2516 
z
" transform="scale(0.015625)"/>
        <path id="DejaVuSans-6f" d="M 1959 3097 
Q 1497 3097 1228 2736 
Q 959 2375 959 1747 
Q 959 1119 1226 758 
Q 1494 397 1959 397 
Q 2419 397 2687 759 
Q 2956 1122 2956 1747 
Q 2956 2369 2687 2733 
Q 2419 3097 1959 3097 
z
M 1959 3584 
Q 2709 3584 3137 3096 
Q 3566 2609 3566 1747 
Q 3566 888 3137 398 
Q 2709 -91 1959 -91 
Q 1206 -91 779 398 
Q 353 888 353 1747 
Q 353 2609 779 3096 
Q 1206 3584 1959 3584 
z
" transform="scale(0.015625)"/>
       </defs>
       <use xlink:href="#DejaVuSans-6d"/>
       <use xlink:href="#DejaVuSans-65" x="97.412109"/>
       <use xlink:href="#DejaVuSans-6c" x="158.935547"/>
       <use xlink:href="#DejaVuSans-69" x="186.71875"/>
       <use xlink:href="#DejaVuSans-61" x="214.501953"/>
       <use xlink:href="#DejaVuSans-2c" x="275.78125"/>
       <use xlink:href="#DejaVuSans-20" x="307.568359"/>
       <use xlink:href="#DejaVuSans-33" x="339.355469"/>
       <use xlink:href="#DejaVuSans-20" x="402.978516"/>
       <use xlink:href="#DejaVuSans-6d" x="434.765625"/>
       <use xlink:href="#DejaVuSans-6f" x="532.177734"/>
      </g>
     </g>
    </g>
    <g id="xtick_2">
     <g id="line2d_2">
      <path d="M 100.025904 352.954786 
L 100.025904 3.00024 
" clip-path="url(#pf0346008f8)" style="fill: none; stroke: #cccccc; stroke-linecap: round"/>
     </g>
     <g id="text_2">
      <!-- keiler, -->
      <g style="fill: #262626" transform="translate(96.902419 415.51088) rotate(-90) scale(0.11 -0.11)">
       <use xlink:href="#DejaVuSans-6b"/>
       <use xlink:href="#DejaVuSans-65" x="54.285156"/>
       <use xlink:href="#DejaVuSans-69" x="115.808594"/>
       <use xlink:href="#DejaVuSans-6c" x="143.591797"/>
       <use xlink:href="#DejaVuSans-65" x="171.375"/>
       <use xlink:href="#DejaVuSans-72" x="232.898438"/>
       <use xlink:href="#DejaVuSans-2c" x="274.011719"/>
      </g>
      <!-- pebble, 0 mo -->
      <g style="fill: #262626" transform="translate(109.220013 434.929317) rotate(-90) scale(0.11 -0.11)">
       <defs>
        <path id="DejaVuSans-70" d="M 1159 525 
L 1159 -1331 
L 581 -1331 
L 581 3500 
L 1159 3500 
L 1159 2969 
Q 1341 3281 1617 3432 
Q 1894 3584 2278 3584 
Q 2916 3584 3314 3078 
Q 3713 2572 3713 1747 
Q 3713 922 3314 415 
Q 2916 -91 2278 -91 
Q 1894 -91 1617 61 
Q 1341 213 1159 525 
z
M 3116 1747 
Q 3116 2381 2855 2742 
Q 2594 3103 2138 3103 
Q 1681 3103 1420 2742 
Q 1159 2381 1159 1747 
Q 1159 1113 1420 752 
Q 1681 391 2138 391 
Q 2594 391 2855 752 
Q 3116 1113 3116 1747 
z
" transform="scale(0.015625)"/>
        <path id="DejaVuSans-62" d="M 3116 1747 
Q 3116 2381 2855 2742 
Q 2594 3103 2138 3103 
Q 1681 3103 1420 2742 
Q 1159 2381 1159 1747 
Q 1159 1113 1420 752 
Q 1681 391 2138 391 
Q 2594 391 2855 752 
Q 3116 1113 3116 1747 
z
M 1159 2969 
Q 1341 3281 1617 3432 
Q 1894 3584 2278 3584 
Q 2916 3584 3314 3078 
Q 3713 2572 3713 1747 
Q 3713 922 3314 415 
Q 2916 -91 2278 -91 
Q 1894 -91 1617 61 
Q 1341 213 1159 525 
L 1159 0 
L 581 0 
L 581 4863 
L 1159 4863 
L 1159 2969 
z
" transform="scale(0.015625)"/>
        <path id="DejaVuSans-30" d="M 2034 4250 
Q 1547 4250 1301 3770 
Q 1056 3291 1056 2328 
Q 1056 1369 1301 889 
Q 1547 409 2034 409 
Q 2525 409 2770 889 
Q 3016 1369 3016 2328 
Q 3016 3291 2770 3770 
Q 2525 4250 2034 4250 
z
M 2034 4750 
Q 2819 4750 3233 4129 
Q 3647 3509 3647 2328 
Q 3647 1150 3233 529 
Q 2819 -91 2034 -91 
Q 1250 -91 836 529 
Q 422 1150 422 2328 
Q 422 3509 836 4129 
Q 1250 4750 2034 4750 
z
" transform="scale(0.015625)"/>
       </defs>
       <use xlink:href="#DejaVuSans-70"/>
       <use xlink:href="#DejaVuSans-65" x="63.476562"/>
       <use xlink:href="#DejaVuSans-62" x="125"/>
       <use xlink:href="#DejaVuSans-62" x="188.476562"/>
       <use xlink:href="#DejaVuSans-6c" x="251.953125"/>
       <use xlink:href="#DejaVuSans-65" x="279.736328"/>
       <use xlink:href="#DejaVuSans-2c" x="341.259766"/>
       <use xlink:href="#DejaVuSans-20" x="373.046875"/>
       <use xlink:href="#DejaVuSans-30" x="404.833984"/>
       <use xlink:href="#DejaVuSans-20" x="468.457031"/>
       <use xlink:href="#DejaVuSans-6d" x="500.244141"/>
       <use xlink:href="#DejaVuSans-6f" x="597.65625"/>
      </g>
     </g>
    </g>
    <g id="xtick_3">
     <g id="line2d_3">
      <path d="M 145.568435 352.954786 
L 145.568435 3.00024 
" clip-path="url(#pf0346008f8)" style="fill: none; stroke: #cccccc; stroke-linecap: round"/>
     </g>
     <g id="text_3">
      <!-- keiler, -->
      <g style="fill: #262626" transform="translate(142.444951 415.51088) rotate(-90) scale(0.11 -0.11)">
       <use xlink:href="#DejaVuSans-6b"/>
       <use xlink:href="#DejaVuSans-65" x="54.285156"/>
       <use xlink:href="#DejaVuSans-69" x="115.808594"/>
       <use xlink:href="#DejaVuSans-6c" x="143.591797"/>
       <use xlink:href="#DejaVuSans-65" x="171.375"/>
       <use xlink:href="#DejaVuSans-72" x="232.898438"/>
       <use xlink:href="#DejaVuSans-2c" x="274.011719"/>
      </g>
      <!-- pebble, 3 mo -->
      <g style="fill: #262626" transform="translate(154.762544 434.929317) rotate(-90) scale(0.11 -0.11)">
       <use xlink:href="#DejaVuSans-70"/>
       <use xlink:href="#DejaVuSans-65" x="63.476562"/>
       <use xlink:href="#DejaVuSans-62" x="125"/>
       <use xlink:href="#DejaVuSans-62" x="188.476562"/>
       <use xlink:href="#DejaVuSans-6c" x="251.953125"/>
       <use xlink:href="#DejaVuSans-65" x="279.736328"/>
       <use xlink:href="#DejaVuSans-2c" x="341.259766"/>
       <use xlink:href="#DejaVuSans-20" x="373.046875"/>
       <use xlink:href="#DejaVuSans-33" x="404.833984"/>
       <use xlink:href="#DejaVuSans-20" x="468.457031"/>
       <use xlink:href="#DejaVuSans-6d" x="500.244141"/>
       <use xlink:href="#DejaVuSans-6f" x="597.65625"/>
      </g>
     </g>
    </g>
    <g id="xtick_4">
     <g id="line2d_4">
      <path d="M 191.110966 352.954786 
L 191.110966 3.00024 
" clip-path="url(#pf0346008f8)" style="fill: none; stroke: #cccccc; stroke-linecap: round"/>
     </g>
     <g id="text_4">
      <!-- urbanarrow, -->
      <g style="fill: #262626" transform="translate(187.987482 429.211036) rotate(-90) scale(0.11 -0.11)">
       <defs>
        <path id="DejaVuSans-75" d="M 544 1381 
L 544 3500 
L 1119 3500 
L 1119 1403 
Q 1119 906 1312 657 
Q 1506 409 1894 409 
Q 2359 409 2629 706 
Q 2900 1003 2900 1516 
L 2900 3500 
L 3475 3500 
L 3475 0 
L 2900 0 
L 2900 538 
Q 2691 219 2414 64 
Q 2138 -91 1772 -91 
Q 1169 -91 856 284 
Q 544 659 544 1381 
z
M 1991 3584 
L 1991 3584 
z
" transform="scale(0.015625)"/>
        <path id="DejaVuSans-6e" d="M 3513 2113 
L 3513 0 
L 2938 0 
L 2938 2094 
Q 2938 2591 2744 2837 
Q 2550 3084 2163 3084 
Q 1697 3084 1428 2787 
Q 1159 2491 1159 1978 
L 1159 0 
L 581 0 
L 581 3500 
L 1159 3500 
L 1159 2956 
Q 1366 3272 1645 3428 
Q 1925 3584 2291 3584 
Q 2894 3584 3203 3211 
Q 3513 2838 3513 2113 
z
" transform="scale(0.015625)"/>
        <path id="DejaVuSans-77" d="M 269 3500 
L 844 3500 
L 1563 769 
L 2278 3500 
L 2956 3500 
L 3675 769 
L 4391 3500 
L 4966 3500 
L 4050 0 
L 3372 0 
L 2619 2869 
L 1863 0 
L 1184 0 
L 269 3500 
z
" transform="scale(0.015625)"/>
       </defs>
       <use xlink:href="#DejaVuSans-75"/>
       <use xlink:href="#DejaVuSans-72" x="63.378906"/>
       <use xlink:href="#DejaVuSans-62" x="104.492188"/>
       <use xlink:href="#DejaVuSans-61" x="167.96875"/>
       <use xlink:href="#DejaVuSans-6e" x="229.248047"/>
       <use xlink:href="#DejaVuSans-61" x="292.626953"/>
       <use xlink:href="#DejaVuSans-72" x="353.90625"/>
       <use xlink:href="#DejaVuSans-72" x="393.269531"/>
       <use xlink:href="#DejaVuSans-6f" x="432.132812"/>
       <use xlink:href="#DejaVuSans-77" x="493.314453"/>
       <use xlink:href="#DejaVuSans-2c" x="575.101562"/>
      </g>
      <!-- melia, 3 mo -->
      <g style="fill: #262626" transform="translate(200.305075 428.466817) rotate(-90) scale(0.11 -0.11)">
       <use xlink:href="#DejaVuSans-6d"/>
       <use xlink:href="#DejaVuSans-65" x="97.412109"/>
       <use xlink:href="#DejaVuSans-6c" x="158.935547"/>
       <use xlink:href="#DejaVuSans-69" x="186.71875"/>
       <use xlink:href="#DejaVuSans-61" x="214.501953"/>
       <use xlink:href="#DejaVuSans-2c" x="275.78125"/>
       <use xlink:href="#DejaVuSans-20" x="307.568359"/>
       <use xlink:href="#DejaVuSans-33" x="339.355469"/>
       <use xlink:href="#DejaVuSans-20" x="402.978516"/>
       <use xlink:href="#DejaVuSans-6d" x="434.765625"/>
       <use xlink:href="#DejaVuSans-6f" x="532.177734"/>
      </g>
     </g>
    </g>
    <g id="xtick_5">
     <g id="line2d_5">
      <path d="M 236.653497 352.954786 
L 236.653497 3.00024 
" clip-path="url(#pf0346008f8)" style="fill: none; stroke: #cccccc; stroke-linecap: round"/>
     </g>
     <g id="text_5">
      <!-- urbanarrow, -->
      <g style="fill: #262626" transform="translate(233.530013 432.070176) rotate(-90) scale(0.11 -0.11)">
       <use xlink:href="#DejaVuSans-75"/>
       <use xlink:href="#DejaVuSans-72" x="63.378906"/>
       <use xlink:href="#DejaVuSans-62" x="104.492188"/>
       <use xlink:href="#DejaVuSans-61" x="167.96875"/>
       <use xlink:href="#DejaVuSans-6e" x="229.248047"/>
       <use xlink:href="#DejaVuSans-61" x="292.626953"/>
       <use xlink:href="#DejaVuSans-72" x="353.90625"/>
       <use xlink:href="#DejaVuSans-72" x="393.269531"/>
       <use xlink:href="#DejaVuSans-6f" x="432.132812"/>
       <use xlink:href="#DejaVuSans-77" x="493.314453"/>
       <use xlink:href="#DejaVuSans-2c" x="575.101562"/>
      </g>
      <!-- pebble, 0 mo -->
      <g style="fill: #262626" transform="translate(245.847606 434.929317) rotate(-90) scale(0.11 -0.11)">
       <use xlink:href="#DejaVuSans-70"/>
       <use xlink:href="#DejaVuSans-65" x="63.476562"/>
       <use xlink:href="#DejaVuSans-62" x="125"/>
       <use xlink:href="#DejaVuSans-62" x="188.476562"/>
       <use xlink:href="#DejaVuSans-6c" x="251.953125"/>
       <use xlink:href="#DejaVuSans-65" x="279.736328"/>
       <use xlink:href="#DejaVuSans-2c" x="341.259766"/>
       <use xlink:href="#DejaVuSans-20" x="373.046875"/>
       <use xlink:href="#DejaVuSans-30" x="404.833984"/>
       <use xlink:href="#DejaVuSans-20" x="468.457031"/>
       <use xlink:href="#DejaVuSans-6d" x="500.244141"/>
       <use xlink:href="#DejaVuSans-6f" x="597.65625"/>
      </g>
     </g>
    </g>
    <g id="xtick_6">
     <g id="line2d_6">
      <path d="M 282.196028 352.954786 
L 282.196028 3.00024 
" clip-path="url(#pf0346008f8)" style="fill: none; stroke: #cccccc; stroke-linecap: round"/>
     </g>
     <g id="text_6">
      <!-- urbanarrow, -->
      <g style="fill: #262626" transform="translate(279.072544 432.070176) rotate(-90) scale(0.11 -0.11)">
       <use xlink:href="#DejaVuSans-75"/>
       <use xlink:href="#DejaVuSans-72" x="63.378906"/>
       <use xlink:href="#DejaVuSans-62" x="104.492188"/>
       <use xlink:href="#DejaVuSans-61" x="167.96875"/>
       <use xlink:href="#DejaVuSans-6e" x="229.248047"/>
       <use xlink:href="#DejaVuSans-61" x="292.626953"/>
       <use xlink:href="#DejaVuSans-72" x="353.90625"/>
       <use xlink:href="#DejaVuSans-72" x="393.269531"/>
       <use xlink:href="#DejaVuSans-6f" x="432.132812"/>
       <use xlink:href="#DejaVuSans-77" x="493.314453"/>
       <use xlink:href="#DejaVuSans-2c" x="575.101562"/>
      </g>
      <!-- pebble, 3 mo -->
      <g style="fill: #262626" transform="translate(291.390137 434.929317) rotate(-90) scale(0.11 -0.11)">
       <use xlink:href="#DejaVuSans-70"/>
       <use xlink:href="#DejaVuSans-65" x="63.476562"/>
       <use xlink:href="#DejaVuSans-62" x="125"/>
       <use xlink:href="#DejaVuSans-62" x="188.476562"/>
       <use xlink:href="#DejaVuSans-6c" x="251.953125"/>
       <use xlink:href="#DejaVuSans-65" x="279.736328"/>
       <use xlink:href="#DejaVuSans-2c" x="341.259766"/>
       <use xlink:href="#DejaVuSans-20" x="373.046875"/>
       <use xlink:href="#DejaVuSans-33" x="404.833984"/>
       <use xlink:href="#DejaVuSans-20" x="468.457031"/>
       <use xlink:href="#DejaVuSans-6d" x="500.244141"/>
       <use xlink:href="#DejaVuSans-6f" x="597.65625"/>
      </g>
     </g>
    </g>
    <g id="text_7">
     <!-- Vehicle, Seat, Baby Age -->
     <g style="fill: #262626" transform="translate(97.057825 448.047442) scale(0.12 -0.12)">
      <defs>
       <path id="DejaVuSans-56" d="M 1831 0 
L 50 4666 
L 709 4666 
L 2188 738 
L 3669 4666 
L 4325 4666 
L 2547 0 
L 1831 0 
z
" transform="scale(0.015625)"/>
       <path id="DejaVuSans-68" d="M 3513 2113 
L 3513 0 
L 2938 0 
L 2938 2094 
Q 2938 2591 2744 2837 
Q 2550 3084 2163 3084 
Q 1697 3084 1428 2787 
Q 1159 2491 1159 1978 
L 1159 0 
L 581 0 
L 581 4863 
L 1159 4863 
L 1159 2956 
Q 1366 3272 1645 3428 
Q 1925 3584 2291 3584 
Q 2894 3584 3203 3211 
Q 3513 2838 3513 2113 
z
" transform="scale(0.015625)"/>
       <path id="DejaVuSans-63" d="M 3122 3366 
L 3122 2828 
Q 2878 2963 2633 3030 
Q 2388 3097 2138 3097 
Q 1578 3097 1268 2742 
Q 959 2388 959 1747 
Q 959 1106 1268 751 
Q 1578 397 2138 397 
Q 2388 397 2633 464 
Q 2878 531 3122 666 
L 3122 134 
Q 2881 22 2623 -34 
Q 2366 -91 2075 -91 
Q 1284 -91 818 406 
Q 353 903 353 1747 
Q 353 2603 823 3093 
Q 1294 3584 2113 3584 
Q 2378 3584 2631 3529 
Q 2884 3475 3122 3366 
z
" transform="scale(0.015625)"/>
       <path id="DejaVuSans-53" d="M 3425 4513 
L 3425 3897 
Q 3066 4069 2747 4153 
Q 2428 4238 2131 4238 
Q 1616 4238 1336 4038 
Q 1056 3838 1056 3469 
Q 1056 3159 1242 3001 
Q 1428 2844 1947 2747 
L 2328 2669 
Q 3034 2534 3370 2195 
Q 3706 1856 3706 1288 
Q 3706 609 3251 259 
Q 2797 -91 1919 -91 
Q 1588 -91 1214 -16 
Q 841 59 441 206 
L 441 856 
Q 825 641 1194 531 
Q 1563 422 1919 422 
Q 2459 422 2753 634 
Q 3047 847 3047 1241 
Q 3047 1584 2836 1778 
Q 2625 1972 2144 2069 
L 1759 2144 
Q 1053 2284 737 2584 
Q 422 2884 422 3419 
Q 422 4038 858 4394 
Q 1294 4750 2059 4750 
Q 2388 4750 2728 4690 
Q 3069 4631 3425 4513 
z
" transform="scale(0.015625)"/>
       <path id="DejaVuSans-74" d="M 1172 4494 
L 1172 3500 
L 2356 3500 
L 2356 3053 
L 1172 3053 
L 1172 1153 
Q 1172 725 1289 603 
Q 1406 481 1766 481 
L 2356 481 
L 2356 0 
L 1766 0 
Q 1100 0 847 248 
Q 594 497 594 1153 
L 594 3053 
L 172 3053 
L 172 3500 
L 594 3500 
L 594 4494 
L 1172 4494 
z
" transform="scale(0.015625)"/>
       <path id="DejaVuSans-42" d="M 1259 2228 
L 1259 519 
L 2272 519 
Q 2781 519 3026 730 
Q 3272 941 3272 1375 
Q 3272 1813 3026 2020 
Q 2781 2228 2272 2228 
L 1259 2228 
z
M 1259 4147 
L 1259 2741 
L 2194 2741 
Q 2656 2741 2882 2914 
Q 3109 3088 3109 3444 
Q 3109 3797 2882 3972 
Q 2656 4147 2194 4147 
L 1259 4147 
z
M 628 4666 
L 2241 4666 
Q 2963 4666 3353 4366 
Q 3744 4066 3744 3513 
Q 3744 3084 3544 2831 
Q 3344 2578 2956 2516 
Q 3422 2416 3680 2098 
Q 3938 1781 3938 1306 
Q 3938 681 3513 340 
Q 3088 0 2303 0 
L 628 0 
L 628 4666 
z
" transform="scale(0.015625)"/>
       <path id="DejaVuSans-79" d="M 2059 -325 
Q 1816 -950 1584 -1140 
Q 1353 -1331 966 -1331 
L 506 -1331 
L 506 -850 
L 844 -850 
Q 1081 -850 1212 -737 
Q 1344 -625 1503 -206 
L 1606 56 
L 191 3500 
L 800 3500 
L 1894 763 
L 2988 3500 
L 3597 3500 
L 2059 -325 
z
" transform="scale(0.015625)"/>
       <path id="DejaVuSans-41" d="M 2188 4044 
L 1331 1722 
L 3047 1722 
L 2188 4044 
z
M 1831 4666 
L 2547 4666 
L 4325 0 
L 3669 0 
L 3244 1197 
L 1141 1197 
L 716 0 
L 50 0 
L 1831 4666 
z
" transform="scale(0.015625)"/>
       <path id="DejaVuSans-67" d="M 2906 1791 
Q 2906 2416 2648 2759 
Q 2391 3103 1925 3103 
Q 1463 3103 1205 2759 
Q 947 2416 947 1791 
Q 947 1169 1205 825 
Q 1463 481 1925 481 
Q 2391 481 2648 825 
Q 2906 1169 2906 1791 
z
M 3481 434 
Q 3481 -459 3084 -895 
Q 2688 -1331 1869 -1331 
Q 1566 -1331 1297 -1286 
Q 1028 -1241 775 -1147 
L 775 -588 
Q 1028 -725 1275 -790 
Q 1522 -856 1778 -856 
Q 2344 -856 2625 -561 
Q 2906 -266 2906 331 
L 2906 616 
Q 2728 306 2450 153 
Q 2172 0 1784 0 
Q 1141 0 747 490 
Q 353 981 353 1791 
Q 353 2603 747 3093 
Q 1141 3584 1784 3584 
Q 2172 3584 2450 3431 
Q 2728 3278 2906 2969 
L 2906 3500 
L 3481 3500 
L 3481 434 
z
" transform="scale(0.015625)"/>
      </defs>
      <use xlink:href="#DejaVuSans-56"/>
      <use xlink:href="#DejaVuSans-65" x="60.658203"/>
      <use xlink:href="#DejaVuSans-68" x="122.181641"/>
      <use xlink:href="#DejaVuSans-69" x="185.560547"/>
      <use xlink:href="#DejaVuSans-63" x="213.34375"/>
      <use xlink:href="#DejaVuSans-6c" x="268.324219"/>
      <use xlink:href="#DejaVuSans-65" x="296.107422"/>
      <use xlink:href="#DejaVuSans-2c" x="357.630859"/>
      <use xlink:href="#DejaVuSans-20" x="389.417969"/>
      <use xlink:href="#DejaVuSans-53" x="421.205078"/>
      <use xlink:href="#DejaVuSans-65" x="484.681641"/>
      <use xlink:href="#DejaVuSans-61" x="546.205078"/>
      <use xlink:href="#DejaVuSans-74" x="607.484375"/>
      <use xlink:href="#DejaVuSans-2c" x="646.693359"/>
      <use xlink:href="#DejaVuSans-20" x="678.480469"/>
      <use xlink:href="#DejaVuSans-42" x="710.267578"/>
      <use xlink:href="#DejaVuSans-61" x="778.871094"/>
      <use xlink:href="#DejaVuSans-62" x="840.150391"/>
      <use xlink:href="#DejaVuSans-79" x="903.626953"/>
      <use xlink:href="#DejaVuSans-20" x="962.806641"/>
      <use xlink:href="#DejaVuSans-41" x="994.59375"/>
      <use xlink:href="#DejaVuSans-67" x="1063.001953"/>
      <use xlink:href="#DejaVuSans-65" x="1126.478516"/>
     </g>
    </g>
   </g>
   <g id="matplotlib.axis_2">
    <g id="ytick_1">
     <g id="line2d_7">
      <path d="M 43.09774 293.256513 
L 293.581661 293.256513 
" clip-path="url(#pf0346008f8)" style="fill: none; stroke: #cccccc; stroke-linecap: round"/>
     </g>
     <g id="text_8">
      <!-- 2 -->
      <g style="fill: #262626" transform="translate(26.59899 297.435654) scale(0.11 -0.11)">
       <defs>
        <path id="DejaVuSans-32" d="M 1228 531 
L 3431 531 
L 3431 0 
L 469 0 
L 469 531 
Q 828 903 1448 1529 
Q 2069 2156 2228 2338 
Q 2531 2678 2651 2914 
Q 2772 3150 2772 3378 
Q 2772 3750 2511 3984 
Q 2250 4219 1831 4219 
Q 1534 4219 1204 4116 
Q 875 4013 500 3803 
L 500 4441 
Q 881 4594 1212 4672 
Q 1544 4750 1819 4750 
Q 2544 4750 2975 4387 
Q 3406 4025 3406 3419 
Q 3406 3131 3298 2873 
Q 3191 2616 2906 2266 
Q 2828 2175 2409 1742 
Q 1991 1309 1228 531 
z
" transform="scale(0.015625)"/>
       </defs>
       <use xlink:href="#DejaVuSans-32"/>
      </g>
     </g>
    </g>
    <g id="ytick_2">
     <g id="line2d_8">
      <path d="M 43.09774 230.039984 
L 293.581661 230.039984 
" clip-path="url(#pf0346008f8)" style="fill: none; stroke: #cccccc; stroke-linecap: round"/>
     </g>
     <g id="text_9">
      <!-- 4 -->
      <g style="fill: #262626" transform="translate(26.59899 234.219125) scale(0.11 -0.11)">
       <defs>
        <path id="DejaVuSans-34" d="M 2419 4116 
L 825 1625 
L 2419 1625 
L 2419 4116 
z
M 2253 4666 
L 3047 4666 
L 3047 1625 
L 3713 1625 
L 3713 1100 
L 3047 1100 
L 3047 0 
L 2419 0 
L 2419 1100 
L 313 1100 
L 313 1709 
L 2253 4666 
z
" transform="scale(0.015625)"/>
       </defs>
       <use xlink:href="#DejaVuSans-34"/>
      </g>
     </g>
    </g>
    <g id="ytick_3">
     <g id="line2d_9">
      <path d="M 43.09774 166.823456 
L 293.581661 166.823456 
" clip-path="url(#pf0346008f8)" style="fill: none; stroke: #cccccc; stroke-linecap: round"/>
     </g>
     <g id="text_10">
      <!-- 6 -->
      <g style="fill: #262626" transform="translate(26.59899 171.002597) scale(0.11 -0.11)">
       <defs>
        <path id="DejaVuSans-36" d="M 2113 2584 
Q 1688 2584 1439 2293 
Q 1191 2003 1191 1497 
Q 1191 994 1439 701 
Q 1688 409 2113 409 
Q 2538 409 2786 701 
Q 3034 994 3034 1497 
Q 3034 2003 2786 2293 
Q 2538 2584 2113 2584 
z
M 3366 4563 
L 3366 3988 
Q 3128 4100 2886 4159 
Q 2644 4219 2406 4219 
Q 1781 4219 1451 3797 
Q 1122 3375 1075 2522 
Q 1259 2794 1537 2939 
Q 1816 3084 2150 3084 
Q 2853 3084 3261 2657 
Q 3669 2231 3669 1497 
Q 3669 778 3244 343 
Q 2819 -91 2113 -91 
Q 1303 -91 875 529 
Q 447 1150 447 2328 
Q 447 3434 972 4092 
Q 1497 4750 2381 4750 
Q 2619 4750 2861 4703 
Q 3103 4656 3366 4563 
z
" transform="scale(0.015625)"/>
       </defs>
       <use xlink:href="#DejaVuSans-36"/>
      </g>
     </g>
    </g>
    <g id="ytick_4">
     <g id="line2d_10">
      <path d="M 43.09774 103.606927 
L 293.581661 103.606927 
" clip-path="url(#pf0346008f8)" style="fill: none; stroke: #cccccc; stroke-linecap: round"/>
     </g>
     <g id="text_11">
      <!-- 8 -->
      <g style="fill: #262626" transform="translate(26.59899 107.786068) scale(0.11 -0.11)">
       <defs>
        <path id="DejaVuSans-38" d="M 2034 2216 
Q 1584 2216 1326 1975 
Q 1069 1734 1069 1313 
Q 1069 891 1326 650 
Q 1584 409 2034 409 
Q 2484 409 2743 651 
Q 3003 894 3003 1313 
Q 3003 1734 2745 1975 
Q 2488 2216 2034 2216 
z
M 1403 2484 
Q 997 2584 770 2862 
Q 544 3141 544 3541 
Q 544 4100 942 4425 
Q 1341 4750 2034 4750 
Q 2731 4750 3128 4425 
Q 3525 4100 3525 3541 
Q 3525 3141 3298 2862 
Q 3072 2584 2669 2484 
Q 3125 2378 3379 2068 
Q 3634 1759 3634 1313 
Q 3634 634 3220 271 
Q 2806 -91 2034 -91 
Q 1263 -91 848 271 
Q 434 634 434 1313 
Q 434 1759 690 2068 
Q 947 2378 1403 2484 
z
M 1172 3481 
Q 1172 3119 1398 2916 
Q 1625 2713 2034 2713 
Q 2441 2713 2670 2916 
Q 2900 3119 2900 3481 
Q 2900 3844 2670 4047 
Q 2441 4250 2034 4250 
Q 1625 4250 1398 4047 
Q 1172 3844 1172 3481 
z
" transform="scale(0.015625)"/>
       </defs>
       <use xlink:href="#DejaVuSans-38"/>
      </g>
     </g>
    </g>
    <g id="ytick_5">
     <g id="line2d_11">
      <path d="M 43.09774 40.390399 
L 293.581661 40.390399 
" clip-path="url(#pf0346008f8)" style="fill: none; stroke: #cccccc; stroke-linecap: round"/>
     </g>
     <g id="text_12">
      <!-- 10 -->
      <g style="fill: #262626" transform="translate(19.60024 44.56954) scale(0.11 -0.11)">
       <defs>
        <path id="DejaVuSans-31" d="M 794 531 
L 1825 531 
L 1825 4091 
L 703 3866 
L 703 4441 
L 1819 4666 
L 2450 4666 
L 2450 531 
L 3481 531 
L 3481 0 
L 794 0 
L 794 531 
z
" transform="scale(0.015625)"/>
       </defs>
       <use xlink:href="#DejaVuSans-31"/>
       <use xlink:href="#DejaVuSans-30" x="63.623047"/>
      </g>
     </g>
    </g>
    <g id="text_13">
     <!-- Vertical Acceleration RMS [m/s$^2$] -->
     <g style="fill: #262626" transform="translate(13.104615 275.777513) rotate(-90) scale(0.12 -0.12)">
      <defs>
       <path id="DejaVuSans-52" d="M 2841 2188 
Q 3044 2119 3236 1894 
Q 3428 1669 3622 1275 
L 4263 0 
L 3584 0 
L 2988 1197 
Q 2756 1666 2539 1819 
Q 2322 1972 1947 1972 
L 1259 1972 
L 1259 0 
L 628 0 
L 628 4666 
L 2053 4666 
Q 2853 4666 3247 4331 
Q 3641 3997 3641 3322 
Q 3641 2881 3436 2590 
Q 3231 2300 2841 2188 
z
M 1259 4147 
L 1259 2491 
L 2053 2491 
Q 2509 2491 2742 2702 
Q 2975 2913 2975 3322 
Q 2975 3731 2742 3939 
Q 2509 4147 2053 4147 
L 1259 4147 
z
" transform="scale(0.015625)"/>
       <path id="DejaVuSans-4d" d="M 628 4666 
L 1569 4666 
L 2759 1491 
L 3956 4666 
L 4897 4666 
L 4897 0 
L 4281 0 
L 4281 4097 
L 3078 897 
L 2444 897 
L 1241 4097 
L 1241 0 
L 628 0 
L 628 4666 
z
" transform="scale(0.015625)"/>
       <path id="DejaVuSans-5b" d="M 550 4863 
L 1875 4863 
L 1875 4416 
L 1125 4416 
L 1125 -397 
L 1875 -397 
L 1875 -844 
L 550 -844 
L 550 4863 
z
" transform="scale(0.015625)"/>
       <path id="DejaVuSans-2f" d="M 1625 4666 
L 2156 4666 
L 531 -594 
L 0 -594 
L 1625 4666 
z
" transform="scale(0.015625)"/>
       <path id="DejaVuSans-73" d="M 2834 3397 
L 2834 2853 
Q 2591 2978 2328 3040 
Q 2066 3103 1784 3103 
Q 1356 3103 1142 2972 
Q 928 2841 928 2578 
Q 928 2378 1081 2264 
Q 1234 2150 1697 2047 
L 1894 2003 
Q 2506 1872 2764 1633 
Q 3022 1394 3022 966 
Q 3022 478 2636 193 
Q 2250 -91 1575 -91 
Q 1294 -91 989 -36 
Q 684 19 347 128 
L 347 722 
Q 666 556 975 473 
Q 1284 391 1588 391 
Q 1994 391 2212 530 
Q 2431 669 2431 922 
Q 2431 1156 2273 1281 
Q 2116 1406 1581 1522 
L 1381 1569 
Q 847 1681 609 1914 
Q 372 2147 372 2553 
Q 372 3047 722 3315 
Q 1072 3584 1716 3584 
Q 2034 3584 2315 3537 
Q 2597 3491 2834 3397 
z
" transform="scale(0.015625)"/>
       <path id="DejaVuSans-5d" d="M 1947 4863 
L 1947 -844 
L 622 -844 
L 622 -397 
L 1369 -397 
L 1369 4416 
L 622 4416 
L 622 4863 
L 1947 4863 
z
" transform="scale(0.015625)"/>
      </defs>
      <use xlink:href="#DejaVuSans-56" transform="translate(0 0.765625)"/>
      <use xlink:href="#DejaVuSans-65" transform="translate(68.408203 0.765625)"/>
      <use xlink:href="#DejaVuSans-72" transform="translate(129.931641 0.765625)"/>
      <use xlink:href="#DejaVuSans-74" transform="translate(171.044922 0.765625)"/>
      <use xlink:href="#DejaVuSans-69" transform="translate(210.253906 0.765625)"/>
      <use xlink:href="#DejaVuSans-63" transform="translate(238.037109 0.765625)"/>
      <use xlink:href="#DejaVuSans-61" transform="translate(293.017578 0.765625)"/>
      <use xlink:href="#DejaVuSans-6c" transform="translate(354.296875 0.765625)"/>
      <use xlink:href="#DejaVuSans-20" transform="translate(382.080078 0.765625)"/>
      <use xlink:href="#DejaVuSans-41" transform="translate(413.867188 0.765625)"/>
      <use xlink:href="#DejaVuSans-63" transform="translate(482.275391 0.765625)"/>
      <use xlink:href="#DejaVuSans-63" transform="translate(537.255859 0.765625)"/>
      <use xlink:href="#DejaVuSans-65" transform="translate(592.236328 0.765625)"/>
      <use xlink:href="#DejaVuSans-6c" transform="translate(653.759766 0.765625)"/>
      <use xlink:href="#DejaVuSans-65" transform="translate(681.542969 0.765625)"/>
      <use xlink:href="#DejaVuSans-72" transform="translate(743.066406 0.765625)"/>
      <use xlink:href="#DejaVuSans-61" transform="translate(784.179688 0.765625)"/>
      <use xlink:href="#DejaVuSans-74" transform="translate(845.458984 0.765625)"/>
      <use xlink:href="#DejaVuSans-69" transform="translate(884.667969 0.765625)"/>
      <use xlink:href="#DejaVuSans-6f" transform="translate(912.451172 0.765625)"/>
      <use xlink:href="#DejaVuSans-6e" transform="translate(973.632812 0.765625)"/>
      <use xlink:href="#DejaVuSans-20" transform="translate(1037.011719 0.765625)"/>
      <use xlink:href="#DejaVuSans-52" transform="translate(1068.798828 0.765625)"/>
      <use xlink:href="#DejaVuSans-4d" transform="translate(1138.28125 0.765625)"/>
      <use xlink:href="#DejaVuSans-53" transform="translate(1224.560547 0.765625)"/>
      <use xlink:href="#DejaVuSans-20" transform="translate(1288.037109 0.765625)"/>
      <use xlink:href="#DejaVuSans-5b" transform="translate(1319.824219 0.765625)"/>
      <use xlink:href="#DejaVuSans-6d" transform="translate(1358.837891 0.765625)"/>
      <use xlink:href="#DejaVuSans-2f" transform="translate(1456.25 0.765625)"/>
      <use xlink:href="#DejaVuSans-73" transform="translate(1489.941406 0.765625)"/>
      <use xlink:href="#DejaVuSans-32" transform="translate(1542.998047 39.046875) scale(0.7)"/>
      <use xlink:href="#DejaVuSans-5d" transform="translate(1590.268555 0.765625)"/>
     </g>
    </g>
   </g>
   <g id="PathCollection_1">
    <path d="M 54.483373 235.742823 
C 55.278982 235.742823 56.042112 235.426724 56.604693 234.864143 
C 57.167274 234.301562 57.483373 233.538432 57.483373 232.742823 
C 57.483373 231.947213 57.167274 231.184083 56.604693 230.621502 
C 56.042112 230.058922 55.278982 229.742823 54.483373 229.742823 
C 53.687763 229.742823 52.924633 230.058922 52.362052 230.621502 
C 51.799472 231.184083 51.483373 231.947213 51.483373 232.742823 
C 51.483373 233.538432 51.799472 234.301562 52.362052 234.864143 
C 52.924633 235.426724 53.687763 235.742823 54.483373 235.742823 
z
" clip-path="url(#pf0346008f8)" style="fill: #de8f05; stroke: #ffffff; stroke-width: 0.48"/>
    <path d="M 54.483373 173.227337 
C 55.278982 173.227337 56.042112 172.911238 56.604693 172.348657 
C 57.167274 171.786077 57.483373 171.022946 57.483373 170.227337 
C 57.483373 169.431728 57.167274 168.668597 56.604693 168.106017 
C 56.042112 167.543436 55.278982 167.227337 54.483373 167.227337 
C 53.687763 167.227337 52.924633 167.543436 52.362052 168.106017 
C 51.799472 168.668597 51.483373 169.431728 51.483373 170.227337 
C 51.483373 171.022946 51.799472 171.786077 52.362052 172.348657 
C 52.924633 172.911238 53.687763 173.227337 54.483373 173.227337 
z
" clip-path="url(#pf0346008f8)" style="fill: #de8f05; stroke: #ffffff; stroke-width: 0.48"/>
    <path d="M 52.983373 173.649274 
L 54.483373 172.149274 
L 55.983373 173.649274 
L 57.483373 172.149274 
L 55.983373 170.649274 
L 57.483373 169.149274 
L 55.983373 167.649274 
L 54.483373 169.149274 
L 52.983373 167.649274 
L 51.483373 169.149274 
L 52.983373 170.649274 
L 51.483373 172.149274 
z
" clip-path="url(#pf0346008f8)" style="fill: #de8f05; stroke: #ffffff; stroke-width: 0.48"/>
    <path d="M 52.983373 120.168048 
L 54.483373 118.668048 
L 55.983373 120.168048 
L 57.483373 118.668048 
L 55.983373 117.168048 
L 57.483373 115.668048 
L 55.983373 114.168048 
L 54.483373 115.668048 
L 52.983373 114.168048 
L 51.483373 115.668048 
L 52.983373 117.168048 
L 51.483373 118.668048 
z
" clip-path="url(#pf0346008f8)" style="fill: #de8f05; stroke: #ffffff; stroke-width: 0.48"/>
    <path d="M 54.483373 317.065314 
C 55.278982 317.065314 56.042112 316.749216 56.604693 316.186635 
C 57.167274 315.624054 57.483373 314.860924 57.483373 314.065314 
C 57.483373 313.269705 57.167274 312.506575 56.604693 311.943994 
C 56.042112 311.381413 55.278982 311.065314 54.483373 311.065314 
C 53.687763 311.065314 52.924633 311.381413 52.362052 311.943994 
C 51.799472 312.506575 51.483373 313.269705 51.483373 314.065314 
C 51.483373 314.860924 51.799472 315.624054 52.362052 316.186635 
C 52.924633 316.749216 53.687763 317.065314 54.483373 317.065314 
z
" clip-path="url(#pf0346008f8)" style="fill: #cc78bc; stroke: #ffffff; stroke-width: 0.48"/>
    <path d="M 54.483373 325.090942 
C 55.278982 325.090942 56.042112 324.774843 56.604693 324.212262 
C 57.167274 323.649681 57.483373 322.886551 57.483373 322.090942 
C 57.483373 321.295333 57.167274 320.532202 56.604693 319.969622 
C 56.042112 319.407041 55.278982 319.090942 54.483373 319.090942 
C 53.687763 319.090942 52.924633 319.407041 52.362052 319.969622 
C 51.799472 320.532202 51.483373 321.295333 51.483373 322.090942 
C 51.483373 322.886551 51.799472 323.649681 52.362052 324.212262 
C 52.924633 324.774843 53.687763 325.090942 54.483373 325.090942 
z
" clip-path="url(#pf0346008f8)" style="fill: #cc78bc; stroke: #ffffff; stroke-width: 0.48"/>
    <path d="M 52.983373 313.739761 
L 54.483373 312.239761 
L 55.983373 313.739761 
L 57.483373 312.239761 
L 55.983373 310.739761 
L 57.483373 309.239761 
L 55.983373 307.739761 
L 54.483373 309.239761 
L 52.983373 307.739761 
L 51.483373 309.239761 
L 52.983373 310.739761 
L 51.483373 312.239761 
z
" clip-path="url(#pf0346008f8)" style="fill: #cc78bc; stroke: #ffffff; stroke-width: 0.48"/>
    <path d="M 52.983373 308.214164 
L 54.483373 306.714164 
L 55.983373 308.214164 
L 57.483373 306.714164 
L 55.983373 305.214164 
L 57.483373 303.714164 
L 55.983373 302.214164 
L 54.483373 303.714164 
L 52.983373 302.214164 
L 51.483373 303.714164 
L 52.983373 305.214164 
L 51.483373 306.714164 
z
" clip-path="url(#pf0346008f8)" style="fill: #cc78bc; stroke: #ffffff; stroke-width: 0.48"/>
    <path d="M 100.025904 172.335533 
C 100.821513 172.335533 101.584643 172.019434 102.147224 171.456853 
C 102.709805 170.894272 103.025904 170.131142 103.025904 169.335533 
C 103.025904 168.539923 102.709805 167.776793 102.147224 167.214212 
C 101.584643 166.651632 100.821513 166.335533 100.025904 166.335533 
C 99.230295 166.335533 98.467164 166.651632 97.904583 167.214212 
C 97.342003 167.776793 97.025904 168.539923 97.025904 169.335533 
C 97.025904 170.131142 97.342003 170.894272 97.904583 171.456853 
C 98.467164 172.019434 99.230295 172.335533 100.025904 172.335533 
z
" clip-path="url(#pf0346008f8)" style="fill: #de8f05; stroke: #ffffff; stroke-width: 0.48"/>
    <path d="M 100.025904 111.178434 
C 100.821513 111.178434 101.584643 110.862335 102.147224 110.299755 
C 102.709805 109.737174 103.025904 108.974044 103.025904 108.178434 
C 103.025904 107.382825 102.709805 106.619695 102.147224 106.057114 
C 101.584643 105.494533 100.821513 105.178434 100.025904 105.178434 
C 99.230295 105.178434 98.467164 105.494533 97.904583 106.057114 
C 97.342003 106.619695 97.025904 107.382825 97.025904 108.178434 
C 97.025904 108.974044 97.342003 109.737174 97.904583 110.299755 
C 98.467164 110.862335 99.230295 111.178434 100.025904 111.178434 
z
" clip-path="url(#pf0346008f8)" style="fill: #de8f05; stroke: #ffffff; stroke-width: 0.48"/>
    <path d="M 98.525904 21.907265 
L 100.025904 20.407265 
L 101.525904 21.907265 
L 103.025904 20.407265 
L 101.525904 18.907265 
L 103.025904 17.407265 
L 101.525904 15.907265 
L 100.025904 17.407265 
L 98.525904 15.907265 
L 97.025904 17.407265 
L 98.525904 18.907265 
L 97.025904 20.407265 
z
" clip-path="url(#pf0346008f8)" style="fill: #de8f05; stroke: #ffffff; stroke-width: 0.48"/>
    <path d="M 100.025904 294.305276 
C 100.821513 294.305276 101.584643 293.989177 102.147224 293.426597 
C 102.709805 292.864016 103.025904 292.100886 103.025904 291.305276 
C 103.025904 290.509667 102.709805 289.746537 102.147224 289.183956 
C 101.584643 288.621375 100.821513 288.305276 100.025904 288.305276 
C 99.230295 288.305276 98.467164 288.621375 97.904583 289.183956 
C 97.342003 289.746537 97.025904 290.509667 97.025904 291.305276 
C 97.025904 292.100886 97.342003 292.864016 97.904583 293.426597 
C 98.467164 293.989177 99.230295 294.305276 100.025904 294.305276 
z
" clip-path="url(#pf0346008f8)" style="fill: #cc78bc; stroke: #ffffff; stroke-width: 0.48"/>
    <path d="M 100.025904 313.127375 
C 100.821513 313.127375 101.584643 312.811276 102.147224 312.248696 
C 102.709805 311.686115 103.025904 310.922985 103.025904 310.127375 
C 103.025904 309.331766 102.709805 308.568636 102.147224 308.006055 
C 101.584643 307.443474 100.821513 307.127375 100.025904 307.127375 
C 99.230295 307.127375 98.467164 307.443474 97.904583 308.006055 
C 97.342003 308.568636 97.025904 309.331766 97.025904 310.127375 
C 97.025904 310.922985 97.342003 311.686115 97.904583 312.248696 
C 98.467164 312.811276 99.230295 313.127375 100.025904 313.127375 
z
" clip-path="url(#pf0346008f8)" style="fill: #cc78bc; stroke: #ffffff; stroke-width: 0.48"/>
    <path d="M 100.025904 298.273567 
C 100.821513 298.273567 101.584643 297.957468 102.147224 297.394888 
C 102.709805 296.832307 103.025904 296.069177 103.025904 295.273567 
C 103.025904 294.477958 102.709805 293.714828 102.147224 293.152247 
C 101.584643 292.589666 100.821513 292.273567 100.025904 292.273567 
C 99.230295 292.273567 98.467164 292.589666 97.904583 293.152247 
C 97.342003 293.714828 97.025904 294.477958 97.025904 295.273567 
C 97.025904 296.069177 97.342003 296.832307 97.904583 297.394888 
C 98.467164 297.957468 99.230295 298.273567 100.025904 298.273567 
z
" clip-path="url(#pf0346008f8)" style="fill: #cc78bc; stroke: #ffffff; stroke-width: 0.48"/>
    <path d="M 98.525904 260.664248 
L 100.025904 259.164248 
L 101.525904 260.664248 
L 103.025904 259.164248 
L 101.525904 257.664248 
L 103.025904 256.164248 
L 101.525904 254.664248 
L 100.025904 256.164248 
L 98.525904 254.664248 
L 97.025904 256.164248 
L 98.525904 257.664248 
L 97.025904 259.164248 
z
" clip-path="url(#pf0346008f8)" style="fill: #cc78bc; stroke: #ffffff; stroke-width: 0.48"/>
    <path d="M 98.525904 283.827163 
L 100.025904 282.327163 
L 101.525904 283.827163 
L 103.025904 282.327163 
L 101.525904 280.827163 
L 103.025904 279.327163 
L 101.525904 277.827163 
L 100.025904 279.327163 
L 98.525904 277.827163 
L 97.025904 279.327163 
L 98.525904 280.827163 
L 97.025904 282.327163 
z
" clip-path="url(#pf0346008f8)" style="fill: #cc78bc; stroke: #ffffff; stroke-width: 0.48"/>
    <path d="M 145.568435 202.098558 
C 146.364044 202.098558 147.127175 201.782459 147.689755 201.219878 
C 148.252336 200.657298 148.568435 199.894167 148.568435 199.098558 
C 148.568435 198.302949 148.252336 197.539818 147.689755 196.977238 
C 147.127175 196.414657 146.364044 196.098558 145.568435 196.098558 
C 144.772826 196.098558 144.009695 196.414657 143.447115 196.977238 
C 142.884534 197.539818 142.568435 198.302949 142.568435 199.098558 
C 142.568435 199.894167 142.884534 200.657298 143.447115 201.219878 
C 144.009695 201.782459 144.772826 202.098558 145.568435 202.098558 
z
" clip-path="url(#pf0346008f8)" style="fill: #de8f05; stroke: #ffffff; stroke-width: 0.48"/>
    <path d="M 145.568435 157.050239 
C 146.364044 157.050239 147.127175 156.734141 147.689755 156.17156 
C 148.252336 155.608979 148.568435 154.845849 148.568435 154.050239 
C 148.568435 153.25463 148.252336 152.4915 147.689755 151.928919 
C 147.127175 151.366338 146.364044 151.050239 145.568435 151.050239 
C 144.772826 151.050239 144.009695 151.366338 143.447115 151.928919 
C 142.884534 152.4915 142.568435 153.25463 142.568435 154.050239 
C 142.568435 154.845849 142.884534 155.608979 143.447115 156.17156 
C 144.009695 156.734141 144.772826 157.050239 145.568435 157.050239 
z
" clip-path="url(#pf0346008f8)" style="fill: #de8f05; stroke: #ffffff; stroke-width: 0.48"/>
    <path d="M 144.068435 106.441775 
L 145.568435 104.941775 
L 147.068435 106.441775 
L 148.568435 104.941775 
L 147.068435 103.441775 
L 148.568435 101.941775 
L 147.068435 100.441775 
L 145.568435 101.941775 
L 144.068435 100.441775 
L 142.568435 101.941775 
L 144.068435 103.441775 
L 142.568435 104.941775 
z
" clip-path="url(#pf0346008f8)" style="fill: #de8f05; stroke: #ffffff; stroke-width: 0.48"/>
    <path d="M 144.068435 119.478146 
L 145.568435 117.978146 
L 147.068435 119.478146 
L 148.568435 117.978146 
L 147.068435 116.478146 
L 148.568435 114.978146 
L 147.068435 113.478146 
L 145.568435 114.978146 
L 144.068435 113.478146 
L 142.568435 114.978146 
L 144.068435 116.478146 
L 142.568435 117.978146 
z
" clip-path="url(#pf0346008f8)" style="fill: #de8f05; stroke: #ffffff; stroke-width: 0.48"/>
    <path d="M 145.568435 309.416862 
C 146.364044 309.416862 147.127175 309.100763 147.689755 308.538182 
C 148.252336 307.975601 148.568435 307.212471 148.568435 306.416862 
C 148.568435 305.621253 148.252336 304.858122 147.689755 304.295542 
C 147.127175 303.732961 146.364044 303.416862 145.568435 303.416862 
C 144.772826 303.416862 144.009695 303.732961 143.447115 304.295542 
C 142.884534 304.858122 142.568435 305.621253 142.568435 306.416862 
C 142.568435 307.212471 142.884534 307.975601 143.447115 308.538182 
C 144.009695 309.100763 144.772826 309.416862 145.568435 309.416862 
z
" clip-path="url(#pf0346008f8)" style="fill: #cc78bc; stroke: #ffffff; stroke-width: 0.48"/>
    <path d="M 145.568435 311.831791 
C 146.364044 311.831791 147.127175 311.515692 147.689755 310.953111 
C 148.252336 310.39053 148.568435 309.6274 148.568435 308.831791 
C 148.568435 308.036181 148.252336 307.273051 147.689755 306.71047 
C 147.127175 306.14789 146.364044 305.831791 145.568435 305.831791 
C 144.772826 305.831791 144.009695 306.14789 143.447115 306.71047 
C 142.884534 307.273051 142.568435 308.036181 142.568435 308.831791 
C 142.568435 309.6274 142.884534 310.39053 143.447115 310.953111 
C 144.009695 311.515692 144.772826 311.831791 145.568435 311.831791 
z
" clip-path="url(#pf0346008f8)" style="fill: #cc78bc; stroke: #ffffff; stroke-width: 0.48"/>
    <path d="M 144.068435 292.235698 
L 145.568435 290.735698 
L 147.068435 292.235698 
L 148.568435 290.735698 
L 147.068435 289.235698 
L 148.568435 287.735698 
L 147.068435 286.235698 
L 145.568435 287.735698 
L 144.068435 286.235698 
L 142.568435 287.735698 
L 144.068435 289.235698 
L 142.568435 290.735698 
z
" clip-path="url(#pf0346008f8)" style="fill: #cc78bc; stroke: #ffffff; stroke-width: 0.48"/>
    <path d="M 144.068435 295.013874 
L 145.568435 293.513874 
L 147.068435 295.013874 
L 148.568435 293.513874 
L 147.068435 292.013874 
L 148.568435 290.513874 
L 147.068435 289.013874 
L 145.568435 290.513874 
L 144.068435 289.013874 
L 142.568435 290.513874 
L 144.068435 292.013874 
L 142.568435 293.513874 
z
" clip-path="url(#pf0346008f8)" style="fill: #cc78bc; stroke: #ffffff; stroke-width: 0.48"/>
    <path d="M 191.110966 249.769578 
C 191.906575 249.769578 192.669706 249.453479 193.232286 248.890899 
C 193.794867 248.328318 194.110966 247.565187 194.110966 246.769578 
C 194.110966 245.973969 193.794867 245.210839 193.232286 244.648258 
C 192.669706 244.085677 191.906575 243.769578 191.110966 243.769578 
C 190.315357 243.769578 189.552226 244.085677 188.989646 244.648258 
C 188.427065 245.210839 188.110966 245.973969 188.110966 246.769578 
C 188.110966 247.565187 188.427065 248.328318 188.989646 248.890899 
C 189.552226 249.453479 190.315357 249.769578 191.110966 249.769578 
z
" clip-path="url(#pf0346008f8)" style="fill: #de8f05; stroke: #ffffff; stroke-width: 0.48"/>
    <path d="M 191.110966 208.564084 
C 191.906575 208.564084 192.669706 208.247985 193.232286 207.685405 
C 193.794867 207.122824 194.110966 206.359693 194.110966 205.564084 
C 194.110966 204.768475 193.794867 204.005345 193.232286 203.442764 
C 192.669706 202.880183 191.906575 202.564084 191.110966 202.564084 
C 190.315357 202.564084 189.552226 202.880183 188.989646 203.442764 
C 188.427065 204.005345 188.110966 204.768475 188.110966 205.564084 
C 188.110966 206.359693 188.427065 207.122824 188.989646 207.685405 
C 189.552226 208.247985 190.315357 208.564084 191.110966 208.564084 
z
" clip-path="url(#pf0346008f8)" style="fill: #de8f05; stroke: #ffffff; stroke-width: 0.48"/>
    <path d="M 189.610966 162.89111 
L 191.110966 161.39111 
L 192.610966 162.89111 
L 194.110966 161.39111 
L 192.610966 159.89111 
L 194.110966 158.39111 
L 192.610966 156.89111 
L 191.110966 158.39111 
L 189.610966 156.89111 
L 188.110966 158.39111 
L 189.610966 159.89111 
L 188.110966 161.39111 
z
" clip-path="url(#pf0346008f8)" style="fill: #de8f05; stroke: #ffffff; stroke-width: 0.48"/>
    <path d="M 188.989646 139.642789 
L 188.989646 143.88543 
L 193.232286 143.88543 
L 193.232286 139.642789 
z
" clip-path="url(#pf0346008f8)" style="fill: #de8f05; stroke: #ffffff; stroke-width: 0.48"/>
    <path d="M 191.110966 340.047761 
C 191.906575 340.047761 192.669706 339.731662 193.232286 339.169081 
C 193.794867 338.606501 194.110966 337.84337 194.110966 337.047761 
C 194.110966 336.252152 193.794867 335.489021 193.232286 334.926441 
C 192.669706 334.36386 191.906575 334.047761 191.110966 334.047761 
C 190.315357 334.047761 189.552226 334.36386 188.989646 334.926441 
C 188.427065 335.489021 188.110966 336.252152 188.110966 337.047761 
C 188.110966 337.84337 188.427065 338.606501 188.989646 339.169081 
C 189.552226 339.731662 190.315357 340.047761 191.110966 340.047761 
z
" clip-path="url(#pf0346008f8)" style="fill: #cc78bc; stroke: #ffffff; stroke-width: 0.48"/>
    <path d="M 191.110966 326.332957 
C 191.906575 326.332957 192.669706 326.016858 193.232286 325.454278 
C 193.794867 324.891697 194.110966 324.128567 194.110966 323.332957 
C 194.110966 322.537348 193.794867 321.774218 193.232286 321.211637 
C 192.669706 320.649056 191.906575 320.332957 191.110966 320.332957 
C 190.315357 320.332957 189.552226 320.649056 188.989646 321.211637 
C 188.427065 321.774218 188.110966 322.537348 188.110966 323.332957 
C 188.110966 324.128567 188.427065 324.891697 188.989646 325.454278 
C 189.552226 326.016858 190.315357 326.332957 191.110966 326.332957 
z
" clip-path="url(#pf0346008f8)" style="fill: #cc78bc; stroke: #ffffff; stroke-width: 0.48"/>
    <path d="M 191.110966 330.383045 
C 191.906575 330.383045 192.669706 330.066946 193.232286 329.504366 
C 193.794867 328.941785 194.110966 328.178655 194.110966 327.383045 
C 194.110966 326.587436 193.794867 325.824306 193.232286 325.261725 
C 192.669706 324.699144 191.906575 324.383045 191.110966 324.383045 
C 190.315357 324.383045 189.552226 324.699144 188.989646 325.261725 
C 188.427065 325.824306 188.110966 326.587436 188.110966 327.383045 
C 188.110966 328.178655 188.427065 328.941785 188.989646 329.504366 
C 189.552226 330.066946 190.315357 330.383045 191.110966 330.383045 
z
" clip-path="url(#pf0346008f8)" style="fill: #cc78bc; stroke: #ffffff; stroke-width: 0.48"/>
    <path d="M 188.989646 313.883572 
L 188.989646 318.126213 
L 193.232286 318.126213 
L 193.232286 313.883572 
z
" clip-path="url(#pf0346008f8)" style="fill: #cc78bc; stroke: #ffffff; stroke-width: 0.48"/>
    <path d="M 188.989646 315.605033 
L 188.989646 319.847674 
L 193.232286 319.847674 
L 193.232286 315.605033 
z
" clip-path="url(#pf0346008f8)" style="fill: #cc78bc; stroke: #ffffff; stroke-width: 0.48"/>
    <path d="M 236.653497 223.94845 
C 237.449106 223.94845 238.212237 223.632351 238.774817 223.06977 
C 239.337398 222.507189 239.653497 221.744059 239.653497 220.94845 
C 239.653497 220.15284 239.337398 219.38971 238.774817 218.827129 
C 238.212237 218.264549 237.449106 217.94845 236.653497 217.94845 
C 235.857888 217.94845 235.094757 218.264549 234.532177 218.827129 
C 233.969596 219.38971 233.653497 220.15284 233.653497 220.94845 
C 233.653497 221.744059 233.969596 222.507189 234.532177 223.06977 
C 235.094757 223.632351 235.857888 223.94845 236.653497 223.94845 
z
" clip-path="url(#pf0346008f8)" style="fill: #de8f05; stroke: #ffffff; stroke-width: 0.48"/>
    <path d="M 236.653497 168.586035 
C 237.449106 168.586035 238.212237 168.269936 238.774817 167.707355 
C 239.337398 167.144775 239.653497 166.381644 239.653497 165.586035 
C 239.653497 164.790426 239.337398 164.027295 238.774817 163.464715 
C 238.212237 162.902134 237.449106 162.586035 236.653497 162.586035 
C 235.857888 162.586035 235.094757 162.902134 234.532177 163.464715 
C 233.969596 164.027295 233.653497 164.790426 233.653497 165.586035 
C 233.653497 166.381644 233.969596 167.144775 234.532177 167.707355 
C 235.094757 168.269936 235.857888 168.586035 236.653497 168.586035 
z
" clip-path="url(#pf0346008f8)" style="fill: #de8f05; stroke: #ffffff; stroke-width: 0.48"/>
    <path d="M 236.653497 146.401439 
C 237.449106 146.401439 238.212237 146.08534 238.774817 145.522759 
C 239.337398 144.960179 239.653497 144.197048 239.653497 143.401439 
C 239.653497 142.60583 239.337398 141.842699 238.774817 141.280119 
C 238.212237 140.717538 237.449106 140.401439 236.653497 140.401439 
C 235.857888 140.401439 235.094757 140.717538 234.532177 141.280119 
C 233.969596 141.842699 233.653497 142.60583 233.653497 143.401439 
C 233.653497 144.197048 233.969596 144.960179 234.532177 145.522759 
C 235.094757 146.08534 235.857888 146.401439 236.653497 146.401439 
z
" clip-path="url(#pf0346008f8)" style="fill: #de8f05; stroke: #ffffff; stroke-width: 0.48"/>
    <path d="M 234.532177 95.44898 
L 234.532177 99.691621 
L 238.774817 99.691621 
L 238.774817 95.44898 
z
" clip-path="url(#pf0346008f8)" style="fill: #de8f05; stroke: #ffffff; stroke-width: 0.48"/>
    <path d="M 235.153497 90.427161 
L 236.653497 88.927161 
L 238.153497 90.427161 
L 239.653497 88.927161 
L 238.153497 87.427161 
L 239.653497 85.927161 
L 238.153497 84.427161 
L 236.653497 85.927161 
L 235.153497 84.427161 
L 233.653497 85.927161 
L 235.153497 87.427161 
L 233.653497 88.927161 
z
" clip-path="url(#pf0346008f8)" style="fill: #de8f05; stroke: #ffffff; stroke-width: 0.48"/>
    <path d="M 236.653497 332.711434 
C 237.449106 332.711434 238.212237 332.395335 238.774817 331.832754 
C 239.337398 331.270174 239.653497 330.507043 239.653497 329.711434 
C 239.653497 328.915825 239.337398 328.152694 238.774817 327.590114 
C 238.212237 327.027533 237.449106 326.711434 236.653497 326.711434 
C 235.857888 326.711434 235.094757 327.027533 234.532177 327.590114 
C 233.969596 328.152694 233.653497 328.915825 233.653497 329.711434 
C 233.653497 330.507043 233.969596 331.270174 234.532177 331.832754 
C 235.094757 332.395335 235.857888 332.711434 236.653497 332.711434 
z
" clip-path="url(#pf0346008f8)" style="fill: #cc78bc; stroke: #ffffff; stroke-width: 0.48"/>
    <path d="M 236.653497 313.301574 
C 237.449106 313.301574 238.212237 312.985476 238.774817 312.422895 
C 239.337398 311.860314 239.653497 311.097184 239.653497 310.301574 
C 239.653497 309.505965 239.337398 308.742835 238.774817 308.180254 
C 238.212237 307.617673 237.449106 307.301574 236.653497 307.301574 
C 235.857888 307.301574 235.094757 307.617673 234.532177 308.180254 
C 233.969596 308.742835 233.653497 309.505965 233.653497 310.301574 
C 233.653497 311.097184 233.969596 311.860314 234.532177 312.422895 
C 235.094757 312.985476 235.857888 313.301574 236.653497 313.301574 
z
" clip-path="url(#pf0346008f8)" style="fill: #cc78bc; stroke: #ffffff; stroke-width: 0.48"/>
    <path d="M 234.532177 297.868668 
L 234.532177 302.111308 
L 238.774817 302.111308 
L 238.774817 297.868668 
z
" clip-path="url(#pf0346008f8)" style="fill: #cc78bc; stroke: #ffffff; stroke-width: 0.48"/>
    <path d="M 234.532177 293.107902 
L 234.532177 297.350543 
L 238.774817 297.350543 
L 238.774817 293.107902 
z
" clip-path="url(#pf0346008f8)" style="fill: #cc78bc; stroke: #ffffff; stroke-width: 0.48"/>
    <path d="M 282.196028 274.726456 
C 282.991637 274.726456 283.754768 274.410357 284.317348 273.847777 
C 284.879929 273.285196 285.196028 272.522066 285.196028 271.726456 
C 285.196028 270.930847 284.879929 270.167717 284.317348 269.605136 
C 283.754768 269.042555 282.991637 268.726456 282.196028 268.726456 
C 281.400419 268.726456 280.637288 269.042555 280.074708 269.605136 
C 279.512127 270.167717 279.196028 270.930847 279.196028 271.726456 
C 279.196028 272.522066 279.512127 273.285196 280.074708 273.847777 
C 280.637288 274.410357 281.400419 274.726456 282.196028 274.726456 
z
" clip-path="url(#pf0346008f8)" style="fill: #de8f05; stroke: #ffffff; stroke-width: 0.48"/>
    <path d="M 282.196028 198.39987 
C 282.991637 198.39987 283.754768 198.083771 284.317348 197.521191 
C 284.879929 196.95861 285.196028 196.19548 285.196028 195.39987 
C 285.196028 194.604261 284.879929 193.841131 284.317348 193.27855 
C 283.754768 192.715969 282.991637 192.39987 282.196028 192.39987 
C 281.400419 192.39987 280.637288 192.715969 280.074708 193.27855 
C 279.512127 193.841131 279.196028 194.604261 279.196028 195.39987 
C 279.196028 196.19548 279.512127 196.95861 280.074708 197.521191 
C 280.637288 198.083771 281.400419 198.39987 282.196028 198.39987 
z
" clip-path="url(#pf0346008f8)" style="fill: #de8f05; stroke: #ffffff; stroke-width: 0.48"/>
    <path d="M 280.696028 126.38797 
L 282.196028 124.88797 
L 283.696028 126.38797 
L 285.196028 124.88797 
L 283.696028 123.38797 
L 285.196028 121.88797 
L 283.696028 120.38797 
L 282.196028 121.88797 
L 280.696028 120.38797 
L 279.196028 121.88797 
L 280.696028 123.38797 
L 279.196028 124.88797 
z
" clip-path="url(#pf0346008f8)" style="fill: #de8f05; stroke: #ffffff; stroke-width: 0.48"/>
    <path d="M 280.074708 112.247246 
L 280.074708 116.489887 
L 284.317348 116.489887 
L 284.317348 112.247246 
z
" clip-path="url(#pf0346008f8)" style="fill: #de8f05; stroke: #ffffff; stroke-width: 0.48"/>
    <path d="M 282.196028 331.326666 
C 282.991637 331.326666 283.754768 331.010567 284.317348 330.447987 
C 284.879929 329.885406 285.196028 329.122276 285.196028 328.326666 
C 285.196028 327.531057 284.879929 326.767927 284.317348 326.205346 
C 283.754768 325.642765 282.991637 325.326666 282.196028 325.326666 
C 281.400419 325.326666 280.637288 325.642765 280.074708 326.205346 
C 279.512127 326.767927 279.196028 327.531057 279.196028 328.326666 
C 279.196028 329.122276 279.512127 329.885406 280.074708 330.447987 
C 280.637288 331.010567 281.400419 331.326666 282.196028 331.326666 
z
" clip-path="url(#pf0346008f8)" style="fill: #cc78bc; stroke: #ffffff; stroke-width: 0.48"/>
    <path d="M 282.196028 325.659056 
C 282.991637 325.659056 283.754768 325.342957 284.317348 324.780376 
C 284.879929 324.217796 285.196028 323.454665 285.196028 322.659056 
C 285.196028 321.863447 284.879929 321.100316 284.317348 320.537736 
C 283.754768 319.975155 282.991637 319.659056 282.196028 319.659056 
C 281.400419 319.659056 280.637288 319.975155 280.074708 320.537736 
C 279.512127 321.100316 279.196028 321.863447 279.196028 322.659056 
C 279.196028 323.454665 279.512127 324.217796 280.074708 324.780376 
C 280.637288 325.342957 281.400419 325.659056 282.196028 325.659056 
z
" clip-path="url(#pf0346008f8)" style="fill: #cc78bc; stroke: #ffffff; stroke-width: 0.48"/>
    <path d="M 280.074708 308.366202 
L 280.074708 312.608843 
L 284.317348 312.608843 
L 284.317348 308.366202 
z
" clip-path="url(#pf0346008f8)" style="fill: #cc78bc; stroke: #ffffff; stroke-width: 0.48"/>
    <path d="M 280.074708 307.939634 
L 280.074708 312.182275 
L 284.317348 312.182275 
L 284.317348 307.939634 
z
" clip-path="url(#pf0346008f8)" style="fill: #cc78bc; stroke: #ffffff; stroke-width: 0.48"/>
   </g>
   <g id="line2d_12"/>
   <g id="line2d_13"/>
   <g id="line2d_14"/>
   <g id="line2d_15"/>
   <g id="line2d_16"/>
   <g id="line2d_17"/>
   <g id="line2d_18"/>
   <g id="line2d_19">
    <path d="M 43.09774 176.305935 
L 293.581661 176.305935 
" clip-path="url(#pf0346008f8)" style="fill: none; stroke-dasharray: 5.55,2.4; stroke-dashoffset: 0; stroke: #7f7f7f; stroke-width: 1.5"/>
   </g>
   <g id="line2d_20">
    <path d="M 43.09774 220.069924 
L 293.581661 220.069924 
" clip-path="url(#pf0346008f8)" style="fill: none; stroke-dasharray: 5.55,2.4; stroke-dashoffset: 0; stroke: #7f7f7f; stroke-width: 1.5"/>
   </g>
   <g id="line2d_21">
    <path d="M 43.09774 281.498395 
L 293.581661 281.498395 
" clip-path="url(#pf0346008f8)" style="fill: none; stroke-dasharray: 5.55,2.4; stroke-dashoffset: 0; stroke: #7f7f7f; stroke-width: 1.5"/>
   </g>
   <g id="line2d_22">
    <path d="M 43.09774 321.240442 
L 293.581661 321.240442 
" clip-path="url(#pf0346008f8)" style="fill: none; stroke-dasharray: 5.55,2.4; stroke-dashoffset: 0; stroke: #7f7f7f; stroke-width: 1.5"/>
   </g>
   <g id="patch_3">
    <path d="M 43.09774 352.954786 
L 43.09774 3.00024 
" style="fill: none; stroke: #cccccc; stroke-width: 1.25; stroke-linejoin: miter; stroke-linecap: square"/>
   </g>
   <g id="patch_4">
    <path d="M 293.581661 352.954786 
L 293.581661 3.00024 
" style="fill: none; stroke: #cccccc; stroke-width: 1.25; stroke-linejoin: miter; stroke-linecap: square"/>
   </g>
   <g id="patch_5">
    <path d="M 43.09774 352.954786 
L 293.581661 352.954786 
" style="fill: none; stroke: #cccccc; stroke-width: 1.25; stroke-linejoin: miter; stroke-linecap: square"/>
   </g>
   <g id="patch_6">
    <path d="M 43.09774 3.00024 
L 293.581661 3.00024 
" style="fill: none; stroke: #cccccc; stroke-width: 1.25; stroke-linejoin: miter; stroke-linecap: square"/>
   </g>
   <g id="text_14">
    <g id="patch_7">
     <path d="M 104.580157 174.300321 
L 146.291407 174.300321 
Q 146.531407 174.300321 146.531407 174.060321 
L 146.531407 162.446571 
Q 146.531407 162.206571 146.291407 162.206571 
L 104.580157 162.206571 
Q 104.340157 162.206571 104.340157 162.446571 
L 104.340157 174.060321 
Q 104.340157 174.300321 104.580157 174.300321 
z
" style="fill: #ffffff; stroke: #ffffff; stroke-linejoin: miter"/>
    </g>
    <!-- 10 min -->
    <g style="fill: #262626" transform="translate(104.580157 171.564696) scale(0.12 -0.12)">
     <use xlink:href="#DejaVuSans-31"/>
     <use xlink:href="#DejaVuSans-30" x="63.623047"/>
     <use xlink:href="#DejaVuSans-20" x="127.246094"/>
     <use xlink:href="#DejaVuSans-6d" x="159.033203"/>
     <use xlink:href="#DejaVuSans-69" x="256.445312"/>
     <use xlink:href="#DejaVuSans-6e" x="284.228516"/>
    </g>
   </g>
   <g id="text_15">
    <g id="patch_8">
     <path d="M 104.580157 218.06431 
L 146.291407 218.06431 
Q 146.531407 218.06431 146.531407 217.82431 
L 146.531407 206.21056 
Q 146.531407 205.97056 146.291407 205.97056 
L 104.580157 205.97056 
Q 104.340157 205.97056 104.340157 206.21056 
L 104.340157 217.82431 
Q 104.340157 218.06431 104.580157 218.06431 
z
" style="fill: #ffffff; stroke: #ffffff; stroke-linejoin: miter"/>
    </g>
    <!-- 20 min -->
    <g style="fill: #262626" transform="translate(104.580157 215.328685) scale(0.12 -0.12)">
     <use xlink:href="#DejaVuSans-32"/>
     <use xlink:href="#DejaVuSans-30" x="63.623047"/>
     <use xlink:href="#DejaVuSans-20" x="127.246094"/>
     <use xlink:href="#DejaVuSans-6d" x="159.033203"/>
     <use xlink:href="#DejaVuSans-69" x="256.445312"/>
     <use xlink:href="#DejaVuSans-6e" x="284.228516"/>
    </g>
   </g>
   <g id="text_16">
    <g id="patch_9">
     <path d="M 104.580157 279.492781 
L 128.567032 279.492781 
Q 128.807032 279.492781 128.807032 279.252781 
L 128.807032 267.639031 
Q 128.807032 267.399031 128.567032 267.399031 
L 104.580157 267.399031 
Q 104.340157 267.399031 104.340157 267.639031 
L 104.340157 279.252781 
Q 104.340157 279.492781 104.580157 279.492781 
z
" style="fill: #ffffff; stroke: #ffffff; stroke-linejoin: miter"/>
    </g>
    <!-- 1 hr -->
    <g style="fill: #262626" transform="translate(104.580157 276.757156) scale(0.12 -0.12)">
     <use xlink:href="#DejaVuSans-31"/>
     <use xlink:href="#DejaVuSans-20" x="63.623047"/>
     <use xlink:href="#DejaVuSans-68" x="95.410156"/>
     <use xlink:href="#DejaVuSans-72" x="158.789062"/>
    </g>
   </g>
   <g id="text_17">
    <g id="patch_10">
     <path d="M 104.580157 319.234828 
L 128.567032 319.234828 
Q 128.807032 319.234828 128.807032 318.994828 
L 128.807032 307.381078 
Q 128.807032 307.141078 128.567032 307.141078 
L 104.580157 307.141078 
Q 104.340157 307.141078 104.340157 307.381078 
L 104.340157 318.994828 
Q 104.340157 319.234828 104.580157 319.234828 
z
" style="fill: #ffffff; stroke: #ffffff; stroke-linejoin: miter"/>
    </g>
    <!-- 4 hr -->
    <g style="fill: #262626" transform="translate(104.580157 316.499203) scale(0.12 -0.12)">
     <use xlink:href="#DejaVuSans-34"/>
     <use xlink:href="#DejaVuSans-20" x="63.623047"/>
     <use xlink:href="#DejaVuSans-68" x="95.410156"/>
     <use xlink:href="#DejaVuSans-72" x="158.789062"/>
    </g>
   </g>
   <g id="legend_1">
    <g id="patch_11">
     <path d="M 301.281661 124.821803 
L 448.343067 124.821803 
Q 450.543067 124.821803 450.543067 122.621803 
L 450.543067 10.70024 
Q 450.543067 8.50024 448.343067 8.50024 
L 301.281661 8.50024 
Q 299.081661 8.50024 299.081661 10.70024 
L 299.081661 122.621803 
Q 299.081661 124.821803 301.281661 124.821803 
z
" style="fill: #ffffff; opacity: 0.8; stroke: #cccccc; stroke-linejoin: miter"/>
    </g>
    <g id="line2d_23"/>
    <g id="text_18">
     <!-- Road Surface -->
     <g style="fill: #262626" transform="translate(334.281661 21.258521) scale(0.11 -0.11)">
      <defs>
       <path id="DejaVuSans-64" d="M 2906 2969 
L 2906 4863 
L 3481 4863 
L 3481 0 
L 2906 0 
L 2906 525 
Q 2725 213 2448 61 
Q 2172 -91 1784 -91 
Q 1150 -91 751 415 
Q 353 922 353 1747 
Q 353 2572 751 3078 
Q 1150 3584 1784 3584 
Q 2172 3584 2448 3432 
Q 2725 3281 2906 2969 
z
M 947 1747 
Q 947 1113 1208 752 
Q 1469 391 1925 391 
Q 2381 391 2643 752 
Q 2906 1113 2906 1747 
Q 2906 2381 2643 2742 
Q 2381 3103 1925 3103 
Q 1469 3103 1208 2742 
Q 947 2381 947 1747 
z
" transform="scale(0.015625)"/>
       <path id="DejaVuSans-66" d="M 2375 4863 
L 2375 4384 
L 1825 4384 
Q 1516 4384 1395 4259 
Q 1275 4134 1275 3809 
L 1275 3500 
L 2222 3500 
L 2222 3053 
L 1275 3053 
L 1275 0 
L 697 0 
L 697 3053 
L 147 3053 
L 147 3500 
L 697 3500 
L 697 3744 
Q 697 4328 969 4595 
Q 1241 4863 1831 4863 
L 2375 4863 
z
" transform="scale(0.015625)"/>
      </defs>
      <use xlink:href="#DejaVuSans-52"/>
      <use xlink:href="#DejaVuSans-6f" x="64.982422"/>
      <use xlink:href="#DejaVuSans-61" x="126.164062"/>
      <use xlink:href="#DejaVuSans-64" x="187.443359"/>
      <use xlink:href="#DejaVuSans-20" x="250.919922"/>
      <use xlink:href="#DejaVuSans-53" x="282.707031"/>
      <use xlink:href="#DejaVuSans-75" x="346.183594"/>
      <use xlink:href="#DejaVuSans-72" x="409.5625"/>
      <use xlink:href="#DejaVuSans-66" x="450.675781"/>
      <use xlink:href="#DejaVuSans-61" x="485.880859"/>
      <use xlink:href="#DejaVuSans-63" x="547.160156"/>
      <use xlink:href="#DejaVuSans-65" x="602.140625"/>
     </g>
    </g>
    <g id="line2d_24">
     <defs>
      <path id="ma89f96e8be" d="M 0 3 
C 0.795609 3 1.55874 2.683901 2.12132 2.12132 
C 2.683901 1.55874 3 0.795609 3 0 
C 3 -0.795609 2.683901 -1.55874 2.12132 -2.12132 
C 1.55874 -2.683901 0.795609 -3 0 -3 
C -0.795609 -3 -1.55874 -2.683901 -2.12132 -2.12132 
C -2.683901 -1.55874 -3 -0.795609 -3 0 
C -3 0.795609 -2.683901 1.55874 -2.12132 2.12132 
C -1.55874 2.683901 -0.795609 3 0 3 
z
" style="stroke: #ffffff; stroke-width: 0.48"/>
     </defs>
     <g>
      <use xlink:href="#ma89f96e8be" x="314.481661" y="33.554459" style="fill: #de8f05; stroke: #ffffff; stroke-width: 0.48"/>
     </g>
    </g>
    <g id="text_19">
     <!-- Paver Bricks -->
     <g style="fill: #262626" transform="translate(334.281661 37.404459) scale(0.11 -0.11)">
      <defs>
       <path id="DejaVuSans-50" d="M 1259 4147 
L 1259 2394 
L 2053 2394 
Q 2494 2394 2734 2622 
Q 2975 2850 2975 3272 
Q 2975 3691 2734 3919 
Q 2494 4147 2053 4147 
L 1259 4147 
z
M 628 4666 
L 2053 4666 
Q 2838 4666 3239 4311 
Q 3641 3956 3641 3272 
Q 3641 2581 3239 2228 
Q 2838 1875 2053 1875 
L 1259 1875 
L 1259 0 
L 628 0 
L 628 4666 
z
" transform="scale(0.015625)"/>
       <path id="DejaVuSans-76" d="M 191 3500 
L 800 3500 
L 1894 563 
L 2988 3500 
L 3597 3500 
L 2284 0 
L 1503 0 
L 191 3500 
z
" transform="scale(0.015625)"/>
      </defs>
      <use xlink:href="#DejaVuSans-50"/>
      <use xlink:href="#DejaVuSans-61" x="55.802734"/>
      <use xlink:href="#DejaVuSans-76" x="117.082031"/>
      <use xlink:href="#DejaVuSans-65" x="176.261719"/>
      <use xlink:href="#DejaVuSans-72" x="237.785156"/>
      <use xlink:href="#DejaVuSans-20" x="278.898438"/>
      <use xlink:href="#DejaVuSans-42" x="310.685547"/>
      <use xlink:href="#DejaVuSans-72" x="379.289062"/>
      <use xlink:href="#DejaVuSans-69" x="420.402344"/>
      <use xlink:href="#DejaVuSans-63" x="448.185547"/>
      <use xlink:href="#DejaVuSans-6b" x="503.166016"/>
      <use xlink:href="#DejaVuSans-73" x="561.076172"/>
     </g>
    </g>
    <g id="line2d_25">
     <defs>
      <path id="mdd07a39ced" d="M 0 3 
C 0.795609 3 1.55874 2.683901 2.12132 2.12132 
C 2.683901 1.55874 3 0.795609 3 0 
C 3 -0.795609 2.683901 -1.55874 2.12132 -2.12132 
C 1.55874 -2.683901 0.795609 -3 0 -3 
C -0.795609 -3 -1.55874 -2.683901 -2.12132 -2.12132 
C -2.683901 -1.55874 -3 -0.795609 -3 0 
C -3 0.795609 -2.683901 1.55874 -2.12132 2.12132 
C -1.55874 2.683901 -0.795609 3 0 3 
z
" style="stroke: #ffffff; stroke-width: 0.48"/>
     </defs>
     <g>
      <use xlink:href="#mdd07a39ced" x="314.481661" y="49.700396" style="fill: #cc78bc; stroke: #ffffff; stroke-width: 0.48"/>
     </g>
    </g>
    <g id="text_20">
     <!-- Tarmac -->
     <g style="fill: #262626" transform="translate(334.281661 53.550396) scale(0.11 -0.11)">
      <defs>
       <path id="DejaVuSans-54" d="M -19 4666 
L 3928 4666 
L 3928 4134 
L 2272 4134 
L 2272 0 
L 1638 0 
L 1638 4134 
L -19 4134 
L -19 4666 
z
" transform="scale(0.015625)"/>
      </defs>
      <use xlink:href="#DejaVuSans-54"/>
      <use xlink:href="#DejaVuSans-61" x="44.583984"/>
      <use xlink:href="#DejaVuSans-72" x="105.863281"/>
      <use xlink:href="#DejaVuSans-6d" x="145.226562"/>
      <use xlink:href="#DejaVuSans-61" x="242.638672"/>
      <use xlink:href="#DejaVuSans-63" x="303.917969"/>
     </g>
    </g>
    <g id="line2d_26"/>
    <g id="text_21">
     <!-- Target Speed [km/h] -->
     <g style="fill: #262626" transform="translate(334.281661 69.696334) scale(0.11 -0.11)">
      <use xlink:href="#DejaVuSans-54"/>
      <use xlink:href="#DejaVuSans-61" x="44.583984"/>
      <use xlink:href="#DejaVuSans-72" x="105.863281"/>
      <use xlink:href="#DejaVuSans-67" x="145.226562"/>
      <use xlink:href="#DejaVuSans-65" x="208.703125"/>
      <use xlink:href="#DejaVuSans-74" x="270.226562"/>
      <use xlink:href="#DejaVuSans-20" x="309.435547"/>
      <use xlink:href="#DejaVuSans-53" x="341.222656"/>
      <use xlink:href="#DejaVuSans-70" x="404.699219"/>
      <use xlink:href="#DejaVuSans-65" x="468.175781"/>
      <use xlink:href="#DejaVuSans-65" x="529.699219"/>
      <use xlink:href="#DejaVuSans-64" x="591.222656"/>
      <use xlink:href="#DejaVuSans-20" x="654.699219"/>
      <use xlink:href="#DejaVuSans-5b" x="686.486328"/>
      <use xlink:href="#DejaVuSans-6b" x="725.5"/>
      <use xlink:href="#DejaVuSans-6d" x="783.410156"/>
      <use xlink:href="#DejaVuSans-2f" x="880.822266"/>
      <use xlink:href="#DejaVuSans-68" x="914.513672"/>
      <use xlink:href="#DejaVuSans-5d" x="977.892578"/>
     </g>
    </g>
    <g id="line2d_27">
     <defs>
      <path id="m360784c24a" d="M 0 3 
C 0.795609 3 1.55874 2.683901 2.12132 2.12132 
C 2.683901 1.55874 3 0.795609 3 0 
C 3 -0.795609 2.683901 -1.55874 2.12132 -2.12132 
C 1.55874 -2.683901 0.795609 -3 0 -3 
C -0.795609 -3 -1.55874 -2.683901 -2.12132 -2.12132 
C -2.683901 -1.55874 -3 -0.795609 -3 0 
C -3 0.795609 -2.683901 1.55874 -2.12132 2.12132 
C -1.55874 2.683901 -0.795609 3 0 3 
z
" style="stroke: #ffffff; stroke-width: 0.48"/>
     </defs>
     <g>
      <use xlink:href="#m360784c24a" x="314.481661" y="81.992271" style="fill: #333333; stroke: #ffffff; stroke-width: 0.48"/>
     </g>
    </g>
    <g id="text_22">
     <!-- 12 -->
     <g style="fill: #262626" transform="translate(334.281661 85.842271) scale(0.11 -0.11)">
      <use xlink:href="#DejaVuSans-31"/>
      <use xlink:href="#DejaVuSans-32" x="63.623047"/>
     </g>
    </g>
    <g id="line2d_28">
     <defs>
      <path id="m9157b817cf" d="M -1.5 3 
L 0 1.5 
L 1.5 3 
L 3 1.5 
L 1.5 0 
L 3 -1.5 
L 1.5 -3 
L 0 -1.5 
L -1.5 -3 
L -3 -1.5 
L -1.5 0 
L -3 1.5 
z
" style="stroke: #ffffff; stroke-width: 0.48; stroke-linejoin: miter"/>
     </defs>
     <g>
      <use xlink:href="#m9157b817cf" x="314.481661" y="98.138209" style="fill: #333333; stroke: #ffffff; stroke-width: 0.48; stroke-linejoin: miter"/>
     </g>
    </g>
    <g id="text_23">
     <!-- 20 -->
     <g style="fill: #262626" transform="translate(334.281661 101.988209) scale(0.11 -0.11)">
      <use xlink:href="#DejaVuSans-32"/>
      <use xlink:href="#DejaVuSans-30" x="63.623047"/>
     </g>
    </g>
    <g id="line2d_29">
     <defs>
      <path id="m8bd678526e" d="M -2.12132 -2.12132 
L -2.12132 2.12132 
L 2.12132 2.12132 
L 2.12132 -2.12132 
z
" style="stroke: #ffffff; stroke-width: 0.48; stroke-linejoin: miter"/>
     </defs>
     <g>
      <use xlink:href="#m8bd678526e" x="314.481661" y="114.284146" style="fill: #333333; stroke: #ffffff; stroke-width: 0.48; stroke-linejoin: miter"/>
     </g>
    </g>
    <g id="text_24">
     <!-- 25 -->
     <g style="fill: #262626" transform="translate(334.281661 118.134146) scale(0.11 -0.11)">
      <defs>
       <path id="DejaVuSans-35" d="M 691 4666 
L 3169 4666 
L 3169 4134 
L 1269 4134 
L 1269 2991 
Q 1406 3038 1543 3061 
Q 1681 3084 1819 3084 
Q 2600 3084 3056 2656 
Q 3513 2228 3513 1497 
Q 3513 744 3044 326 
Q 2575 -91 1722 -91 
Q 1428 -91 1123 -41 
Q 819 9 494 109 
L 494 744 
Q 775 591 1075 516 
Q 1375 441 1709 441 
Q 2250 441 2565 725 
Q 2881 1009 2881 1497 
Q 2881 1984 2565 2268 
Q 2250 2553 1709 2553 
Q 1456 2553 1204 2497 
Q 953 2441 691 2322 
L 691 4666 
z
" transform="scale(0.015625)"/>
      </defs>
      <use xlink:href="#DejaVuSans-32"/>
      <use xlink:href="#DejaVuSans-35" x="63.623047"/>
     </g>
    </g>
   </g>
  </g>
 </g>
 <defs>
  <clipPath id="pf0346008f8">
   <rect x="43.09774" y="3.00024" width="250.483921" height="349.954546"/>
  </clipPath>
 </defs>
</svg>
