<?xml version="1.0" encoding="utf-8" standalone="no"?>
<!DOCTYPE svg PUBLIC "-//W3C//DTD SVG 1.1//EN"
  "http://www.w3.org/Graphics/SVG/1.1/DTD/svg11.dtd">
<svg xmlns:xlink="http://www.w3.org/1999/xlink" width="453.543307pt" height="453.543307pt" viewBox="0 0 453.543307 453.543307" xmlns="http://www.w3.org/2000/svg" version="1.1">
 <metadata>
  <rdf:RDF xmlns:dc="http://purl.org/dc/elements/1.1/" xmlns:cc="http://creativecommons.org/ns#" xmlns:rdf="http://www.w3.org/1999/02/22-rdf-syntax-ns#">
   <cc:Work>
    <dc:type rdf:resource="http://purl.org/dc/dcmitype/StillImage"/>
    <dc:date>2025-04-03T10:55:09.995618</dc:date>
    <dc:format>image/svg+xml</dc:format>
    <dc:creator>
     <cc:Agent>
      <dc:title>Matplotlib v3.9.3, https://matplotlib.org/</dc:title>
     </cc:Agent>
    </dc:creator>
   </cc:Work>
  </rdf:RDF>
 </metadata>
 <defs>
  <style type="text/css">*{stroke-linejoin: round; stroke-linecap: butt}</style>
 </defs>
 <g id="figure_1">
  <g id="patch_1">
   <path d="M 0 453.543307 
L 453.543307 453.543307 
L 453.543307 0 
L 0 0 
z
" style="fill: #ffffff"/>
  </g>
  <g id="axes_1">
   <g id="patch_2">
    <path d="M 42.054303 352.432442 
L 307.013692 352.432442 
L 307.013692 3.00024 
L 42.054303 3.00024 
z
" style="fill: #ffffff"/>
   </g>
   <g id="matplotlib.axis_1">
    <g id="xtick_1">
     <g id="line2d_1">
      <path d="M 54.097911 352.432442 
L 54.097911 3.00024 
" clip-path="url(#p6d7613ac92)" style="fill: none; stroke: #cccccc; stroke-linecap: round"/>
     </g>
     <g id="text_1">
      <!-- keiler, -->
      <g style="fill: #262626" transform="translate(51.124302 412.97502) rotate(-90) scale(0.11 -0.11)">
       <defs>
        <path id="ArialMT-6b" d="M 425 0 
L 425 4581 
L 988 4581 
L 988 1969 
L 2319 3319 
L 3047 3319 
L 1778 2088 
L 3175 0 
L 2481 0 
L 1384 1697 
L 988 1316 
L 988 0 
L 425 0 
z
" transform="scale(0.015625)"/>
        <path id="ArialMT-65" d="M 2694 1069 
L 3275 997 
Q 3138 488 2766 206 
Q 2394 -75 1816 -75 
Q 1088 -75 661 373 
Q 234 822 234 1631 
Q 234 2469 665 2931 
Q 1097 3394 1784 3394 
Q 2450 3394 2872 2941 
Q 3294 2488 3294 1666 
Q 3294 1616 3291 1516 
L 816 1516 
Q 847 969 1125 678 
Q 1403 388 1819 388 
Q 2128 388 2347 550 
Q 2566 713 2694 1069 
z
M 847 1978 
L 2700 1978 
Q 2663 2397 2488 2606 
Q 2219 2931 1791 2931 
Q 1403 2931 1139 2672 
Q 875 2413 847 1978 
z
" transform="scale(0.015625)"/>
        <path id="ArialMT-69" d="M 425 3934 
L 425 4581 
L 988 4581 
L 988 3934 
L 425 3934 
z
M 425 0 
L 425 3319 
L 988 3319 
L 988 0 
L 425 0 
z
" transform="scale(0.015625)"/>
        <path id="ArialMT-6c" d="M 409 0 
L 409 4581 
L 972 4581 
L 972 0 
L 409 0 
z
" transform="scale(0.015625)"/>
        <path id="ArialMT-72" d="M 416 0 
L 416 3319 
L 922 3319 
L 922 2816 
Q 1116 3169 1280 3281 
Q 1444 3394 1641 3394 
Q 1925 3394 2219 3213 
L 2025 2691 
Q 1819 2813 1613 2813 
Q 1428 2813 1281 2702 
Q 1134 2591 1072 2394 
Q 978 2094 978 1738 
L 978 0 
L 416 0 
z
" transform="scale(0.015625)"/>
        <path id="ArialMT-2c" d="M 569 0 
L 569 641 
L 1209 641 
L 1209 0 
Q 1209 -353 1084 -570 
Q 959 -788 688 -906 
L 531 -666 
Q 709 -588 793 -436 
Q 878 -284 888 0 
L 569 0 
z
" transform="scale(0.015625)"/>
       </defs>
       <use xlink:href="#ArialMT-6b"/>
       <use xlink:href="#ArialMT-65" x="50"/>
       <use xlink:href="#ArialMT-69" x="105.615234"/>
       <use xlink:href="#ArialMT-6c" x="127.832031"/>
       <use xlink:href="#ArialMT-65" x="150.048828"/>
       <use xlink:href="#ArialMT-72" x="205.664062"/>
       <use xlink:href="#ArialMT-2c" x="233.464844"/>
      </g>
      <!-- maxicosi, 0 mo -->
      <g style="fill: #262626" transform="translate(62.758864 435.281817) rotate(-90) scale(0.11 -0.11)">
       <defs>
        <path id="ArialMT-6d" d="M 422 0 
L 422 3319 
L 925 3319 
L 925 2853 
Q 1081 3097 1340 3245 
Q 1600 3394 1931 3394 
Q 2300 3394 2536 3241 
Q 2772 3088 2869 2813 
Q 3263 3394 3894 3394 
Q 4388 3394 4653 3120 
Q 4919 2847 4919 2278 
L 4919 0 
L 4359 0 
L 4359 2091 
Q 4359 2428 4304 2576 
Q 4250 2725 4106 2815 
Q 3963 2906 3769 2906 
Q 3419 2906 3187 2673 
Q 2956 2441 2956 1928 
L 2956 0 
L 2394 0 
L 2394 2156 
Q 2394 2531 2256 2718 
Q 2119 2906 1806 2906 
Q 1569 2906 1367 2781 
Q 1166 2656 1075 2415 
Q 984 2175 984 1722 
L 984 0 
L 422 0 
z
" transform="scale(0.015625)"/>
        <path id="ArialMT-61" d="M 2588 409 
Q 2275 144 1986 34 
Q 1697 -75 1366 -75 
Q 819 -75 525 192 
Q 231 459 231 875 
Q 231 1119 342 1320 
Q 453 1522 633 1644 
Q 813 1766 1038 1828 
Q 1203 1872 1538 1913 
Q 2219 1994 2541 2106 
Q 2544 2222 2544 2253 
Q 2544 2597 2384 2738 
Q 2169 2928 1744 2928 
Q 1347 2928 1158 2789 
Q 969 2650 878 2297 
L 328 2372 
Q 403 2725 575 2942 
Q 747 3159 1072 3276 
Q 1397 3394 1825 3394 
Q 2250 3394 2515 3294 
Q 2781 3194 2906 3042 
Q 3031 2891 3081 2659 
Q 3109 2516 3109 2141 
L 3109 1391 
Q 3109 606 3145 398 
Q 3181 191 3288 0 
L 2700 0 
Q 2613 175 2588 409 
z
M 2541 1666 
Q 2234 1541 1622 1453 
Q 1275 1403 1131 1340 
Q 988 1278 909 1158 
Q 831 1038 831 891 
Q 831 666 1001 516 
Q 1172 366 1500 366 
Q 1825 366 2078 508 
Q 2331 650 2450 897 
Q 2541 1088 2541 1459 
L 2541 1666 
z
" transform="scale(0.015625)"/>
        <path id="ArialMT-78" d="M 47 0 
L 1259 1725 
L 138 3319 
L 841 3319 
L 1350 2541 
Q 1494 2319 1581 2169 
Q 1719 2375 1834 2534 
L 2394 3319 
L 3066 3319 
L 1919 1756 
L 3153 0 
L 2463 0 
L 1781 1031 
L 1600 1309 
L 728 0 
L 47 0 
z
" transform="scale(0.015625)"/>
        <path id="ArialMT-63" d="M 2588 1216 
L 3141 1144 
Q 3050 572 2676 248 
Q 2303 -75 1759 -75 
Q 1078 -75 664 370 
Q 250 816 250 1647 
Q 250 2184 428 2587 
Q 606 2991 970 3192 
Q 1334 3394 1763 3394 
Q 2303 3394 2647 3120 
Q 2991 2847 3088 2344 
L 2541 2259 
Q 2463 2594 2264 2762 
Q 2066 2931 1784 2931 
Q 1359 2931 1093 2626 
Q 828 2322 828 1663 
Q 828 994 1084 691 
Q 1341 388 1753 388 
Q 2084 388 2306 591 
Q 2528 794 2588 1216 
z
" transform="scale(0.015625)"/>
        <path id="ArialMT-6f" d="M 213 1659 
Q 213 2581 725 3025 
Q 1153 3394 1769 3394 
Q 2453 3394 2887 2945 
Q 3322 2497 3322 1706 
Q 3322 1066 3130 698 
Q 2938 331 2570 128 
Q 2203 -75 1769 -75 
Q 1072 -75 642 372 
Q 213 819 213 1659 
z
M 791 1659 
Q 791 1022 1069 705 
Q 1347 388 1769 388 
Q 2188 388 2466 706 
Q 2744 1025 2744 1678 
Q 2744 2294 2464 2611 
Q 2184 2928 1769 2928 
Q 1347 2928 1069 2612 
Q 791 2297 791 1659 
z
" transform="scale(0.015625)"/>
        <path id="ArialMT-73" d="M 197 991 
L 753 1078 
Q 800 744 1014 566 
Q 1228 388 1613 388 
Q 2000 388 2187 545 
Q 2375 703 2375 916 
Q 2375 1106 2209 1216 
Q 2094 1291 1634 1406 
Q 1016 1563 777 1677 
Q 538 1791 414 1992 
Q 291 2194 291 2438 
Q 291 2659 392 2848 
Q 494 3038 669 3163 
Q 800 3259 1026 3326 
Q 1253 3394 1513 3394 
Q 1903 3394 2198 3281 
Q 2494 3169 2634 2976 
Q 2775 2784 2828 2463 
L 2278 2388 
Q 2241 2644 2061 2787 
Q 1881 2931 1553 2931 
Q 1166 2931 1000 2803 
Q 834 2675 834 2503 
Q 834 2394 903 2306 
Q 972 2216 1119 2156 
Q 1203 2125 1616 2013 
Q 2213 1853 2448 1751 
Q 2684 1650 2818 1456 
Q 2953 1263 2953 975 
Q 2953 694 2789 445 
Q 2625 197 2315 61 
Q 2006 -75 1616 -75 
Q 969 -75 630 194 
Q 291 463 197 991 
z
" transform="scale(0.015625)"/>
        <path id="ArialMT-20" transform="scale(0.015625)"/>
        <path id="ArialMT-30" d="M 266 2259 
Q 266 3072 433 3567 
Q 600 4063 929 4331 
Q 1259 4600 1759 4600 
Q 2128 4600 2406 4451 
Q 2684 4303 2865 4023 
Q 3047 3744 3150 3342 
Q 3253 2941 3253 2259 
Q 3253 1453 3087 958 
Q 2922 463 2592 192 
Q 2263 -78 1759 -78 
Q 1097 -78 719 397 
Q 266 969 266 2259 
z
M 844 2259 
Q 844 1131 1108 757 
Q 1372 384 1759 384 
Q 2147 384 2411 759 
Q 2675 1134 2675 2259 
Q 2675 3391 2411 3762 
Q 2147 4134 1753 4134 
Q 1366 4134 1134 3806 
Q 844 3388 844 2259 
z
" transform="scale(0.015625)"/>
       </defs>
       <use xlink:href="#ArialMT-6d"/>
       <use xlink:href="#ArialMT-61" x="83.300781"/>
       <use xlink:href="#ArialMT-78" x="138.916016"/>
       <use xlink:href="#ArialMT-69" x="188.916016"/>
       <use xlink:href="#ArialMT-63" x="211.132812"/>
       <use xlink:href="#ArialMT-6f" x="261.132812"/>
       <use xlink:href="#ArialMT-73" x="316.748047"/>
       <use xlink:href="#ArialMT-69" x="366.748047"/>
       <use xlink:href="#ArialMT-2c" x="388.964844"/>
       <use xlink:href="#ArialMT-20" x="416.748047"/>
       <use xlink:href="#ArialMT-30" x="444.53125"/>
       <use xlink:href="#ArialMT-20" x="500.146484"/>
       <use xlink:href="#ArialMT-6d" x="527.929688"/>
       <use xlink:href="#ArialMT-6f" x="611.230469"/>
      </g>
     </g>
    </g>
    <g id="xtick_2">
     <g id="line2d_2">
      <path d="M 102.272346 352.432442 
L 102.272346 3.00024 
" clip-path="url(#p6d7613ac92)" style="fill: none; stroke: #cccccc; stroke-linecap: round"/>
     </g>
     <g id="text_2">
      <!-- keiler, -->
      <g style="fill: #262626" transform="translate(99.298736 412.97502) rotate(-90) scale(0.11 -0.11)">
       <use xlink:href="#ArialMT-6b"/>
       <use xlink:href="#ArialMT-65" x="50"/>
       <use xlink:href="#ArialMT-69" x="105.615234"/>
       <use xlink:href="#ArialMT-6c" x="127.832031"/>
       <use xlink:href="#ArialMT-65" x="150.048828"/>
       <use xlink:href="#ArialMT-72" x="205.664062"/>
       <use xlink:href="#ArialMT-2c" x="233.464844"/>
      </g>
      <!-- maxicosi, 3 mo -->
      <g style="fill: #262626" transform="translate(110.933299 435.281817) rotate(-90) scale(0.11 -0.11)">
       <defs>
        <path id="ArialMT-33" d="M 269 1209 
L 831 1284 
Q 928 806 1161 595 
Q 1394 384 1728 384 
Q 2125 384 2398 659 
Q 2672 934 2672 1341 
Q 2672 1728 2419 1979 
Q 2166 2231 1775 2231 
Q 1616 2231 1378 2169 
L 1441 2663 
Q 1497 2656 1531 2656 
Q 1891 2656 2178 2843 
Q 2466 3031 2466 3422 
Q 2466 3731 2256 3934 
Q 2047 4138 1716 4138 
Q 1388 4138 1169 3931 
Q 950 3725 888 3313 
L 325 3413 
Q 428 3978 793 4289 
Q 1159 4600 1703 4600 
Q 2078 4600 2393 4439 
Q 2709 4278 2876 4000 
Q 3044 3722 3044 3409 
Q 3044 3113 2884 2869 
Q 2725 2625 2413 2481 
Q 2819 2388 3044 2092 
Q 3269 1797 3269 1353 
Q 3269 753 2831 336 
Q 2394 -81 1725 -81 
Q 1122 -81 723 278 
Q 325 638 269 1209 
z
" transform="scale(0.015625)"/>
       </defs>
       <use xlink:href="#ArialMT-6d"/>
       <use xlink:href="#ArialMT-61" x="83.300781"/>
       <use xlink:href="#ArialMT-78" x="138.916016"/>
       <use xlink:href="#ArialMT-69" x="188.916016"/>
       <use xlink:href="#ArialMT-63" x="211.132812"/>
       <use xlink:href="#ArialMT-6f" x="261.132812"/>
       <use xlink:href="#ArialMT-73" x="316.748047"/>
       <use xlink:href="#ArialMT-69" x="366.748047"/>
       <use xlink:href="#ArialMT-2c" x="388.964844"/>
       <use xlink:href="#ArialMT-20" x="416.748047"/>
       <use xlink:href="#ArialMT-33" x="444.53125"/>
       <use xlink:href="#ArialMT-20" x="500.146484"/>
       <use xlink:href="#ArialMT-6d" x="527.929688"/>
       <use xlink:href="#ArialMT-6f" x="611.230469"/>
      </g>
     </g>
    </g>
    <g id="xtick_3">
     <g id="line2d_3">
      <path d="M 150.44678 352.432442 
L 150.44678 3.00024 
" clip-path="url(#p6d7613ac92)" style="fill: none; stroke: #cccccc; stroke-linecap: round"/>
     </g>
     <g id="text_3">
      <!-- keiler, -->
      <g style="fill: #262626" transform="translate(147.473171 404.72502) rotate(-90) scale(0.11 -0.11)">
       <use xlink:href="#ArialMT-6b"/>
       <use xlink:href="#ArialMT-65" x="50"/>
       <use xlink:href="#ArialMT-69" x="105.615234"/>
       <use xlink:href="#ArialMT-6c" x="127.832031"/>
       <use xlink:href="#ArialMT-65" x="150.048828"/>
       <use xlink:href="#ArialMT-72" x="205.664062"/>
       <use xlink:href="#ArialMT-2c" x="233.464844"/>
      </g>
      <!-- melia, 3 mo -->
      <g style="fill: #262626" transform="translate(159.107733 418.781817) rotate(-90) scale(0.11 -0.11)">
       <use xlink:href="#ArialMT-6d"/>
       <use xlink:href="#ArialMT-65" x="83.300781"/>
       <use xlink:href="#ArialMT-6c" x="138.916016"/>
       <use xlink:href="#ArialMT-69" x="161.132812"/>
       <use xlink:href="#ArialMT-61" x="183.349609"/>
       <use xlink:href="#ArialMT-2c" x="238.964844"/>
       <use xlink:href="#ArialMT-20" x="266.748047"/>
       <use xlink:href="#ArialMT-33" x="294.53125"/>
       <use xlink:href="#ArialMT-20" x="350.146484"/>
       <use xlink:href="#ArialMT-6d" x="377.929688"/>
       <use xlink:href="#ArialMT-6f" x="461.230469"/>
      </g>
     </g>
    </g>
    <g id="xtick_4">
     <g id="line2d_4">
      <path d="M 198.621215 352.432442 
L 198.621215 3.00024 
" clip-path="url(#p6d7613ac92)" style="fill: none; stroke: #cccccc; stroke-linecap: round"/>
     </g>
     <g id="text_4">
      <!-- urbanarrow, -->
      <g style="fill: #262626" transform="translate(195.647605 427.649708) rotate(-90) scale(0.11 -0.11)">
       <defs>
        <path id="ArialMT-75" d="M 2597 0 
L 2597 488 
Q 2209 -75 1544 -75 
Q 1250 -75 995 37 
Q 741 150 617 320 
Q 494 491 444 738 
Q 409 903 409 1263 
L 409 3319 
L 972 3319 
L 972 1478 
Q 972 1038 1006 884 
Q 1059 663 1231 536 
Q 1403 409 1656 409 
Q 1909 409 2131 539 
Q 2353 669 2445 892 
Q 2538 1116 2538 1541 
L 2538 3319 
L 3100 3319 
L 3100 0 
L 2597 0 
z
" transform="scale(0.015625)"/>
        <path id="ArialMT-62" d="M 941 0 
L 419 0 
L 419 4581 
L 981 4581 
L 981 2947 
Q 1338 3394 1891 3394 
Q 2197 3394 2470 3270 
Q 2744 3147 2920 2923 
Q 3097 2700 3197 2384 
Q 3297 2069 3297 1709 
Q 3297 856 2875 390 
Q 2453 -75 1863 -75 
Q 1275 -75 941 416 
L 941 0 
z
M 934 1684 
Q 934 1088 1097 822 
Q 1363 388 1816 388 
Q 2184 388 2453 708 
Q 2722 1028 2722 1663 
Q 2722 2313 2464 2622 
Q 2206 2931 1841 2931 
Q 1472 2931 1203 2611 
Q 934 2291 934 1684 
z
" transform="scale(0.015625)"/>
        <path id="ArialMT-6e" d="M 422 0 
L 422 3319 
L 928 3319 
L 928 2847 
Q 1294 3394 1984 3394 
Q 2284 3394 2536 3286 
Q 2788 3178 2913 3003 
Q 3038 2828 3088 2588 
Q 3119 2431 3119 2041 
L 3119 0 
L 2556 0 
L 2556 2019 
Q 2556 2363 2490 2533 
Q 2425 2703 2258 2804 
Q 2091 2906 1866 2906 
Q 1506 2906 1245 2678 
Q 984 2450 984 1813 
L 984 0 
L 422 0 
z
" transform="scale(0.015625)"/>
        <path id="ArialMT-77" d="M 1034 0 
L 19 3319 
L 600 3319 
L 1128 1403 
L 1325 691 
Q 1338 744 1497 1375 
L 2025 3319 
L 2603 3319 
L 3100 1394 
L 3266 759 
L 3456 1400 
L 4025 3319 
L 4572 3319 
L 3534 0 
L 2950 0 
L 2422 1988 
L 2294 2553 
L 1622 0 
L 1034 0 
z
" transform="scale(0.015625)"/>
       </defs>
       <use xlink:href="#ArialMT-75"/>
       <use xlink:href="#ArialMT-72" x="55.615234"/>
       <use xlink:href="#ArialMT-62" x="88.916016"/>
       <use xlink:href="#ArialMT-61" x="144.53125"/>
       <use xlink:href="#ArialMT-6e" x="200.146484"/>
       <use xlink:href="#ArialMT-61" x="255.761719"/>
       <use xlink:href="#ArialMT-72" x="311.376953"/>
       <use xlink:href="#ArialMT-72" x="344.677734"/>
       <use xlink:href="#ArialMT-6f" x="377.978516"/>
       <use xlink:href="#ArialMT-77" x="433.59375"/>
       <use xlink:href="#ArialMT-2c" x="500.310547"/>
      </g>
      <!-- maxicosi, 0 mo -->
      <g style="fill: #262626" transform="translate(207.282168 435.281817) rotate(-90) scale(0.11 -0.11)">
       <use xlink:href="#ArialMT-6d"/>
       <use xlink:href="#ArialMT-61" x="83.300781"/>
       <use xlink:href="#ArialMT-78" x="138.916016"/>
       <use xlink:href="#ArialMT-69" x="188.916016"/>
       <use xlink:href="#ArialMT-63" x="211.132812"/>
       <use xlink:href="#ArialMT-6f" x="261.132812"/>
       <use xlink:href="#ArialMT-73" x="316.748047"/>
       <use xlink:href="#ArialMT-69" x="366.748047"/>
       <use xlink:href="#ArialMT-2c" x="388.964844"/>
       <use xlink:href="#ArialMT-20" x="416.748047"/>
       <use xlink:href="#ArialMT-30" x="444.53125"/>
       <use xlink:href="#ArialMT-20" x="500.146484"/>
       <use xlink:href="#ArialMT-6d" x="527.929688"/>
       <use xlink:href="#ArialMT-6f" x="611.230469"/>
      </g>
     </g>
    </g>
    <g id="xtick_5">
     <g id="line2d_5">
      <path d="M 246.795649 352.432442 
L 246.795649 3.00024 
" clip-path="url(#p6d7613ac92)" style="fill: none; stroke: #cccccc; stroke-linecap: round"/>
     </g>
     <g id="text_5">
      <!-- urbanarrow, -->
      <g style="fill: #262626" transform="translate(243.82204 427.649708) rotate(-90) scale(0.11 -0.11)">
       <use xlink:href="#ArialMT-75"/>
       <use xlink:href="#ArialMT-72" x="55.615234"/>
       <use xlink:href="#ArialMT-62" x="88.916016"/>
       <use xlink:href="#ArialMT-61" x="144.53125"/>
       <use xlink:href="#ArialMT-6e" x="200.146484"/>
       <use xlink:href="#ArialMT-61" x="255.761719"/>
       <use xlink:href="#ArialMT-72" x="311.376953"/>
       <use xlink:href="#ArialMT-72" x="344.677734"/>
       <use xlink:href="#ArialMT-6f" x="377.978516"/>
       <use xlink:href="#ArialMT-77" x="433.59375"/>
       <use xlink:href="#ArialMT-2c" x="500.310547"/>
      </g>
      <!-- maxicosi, 3 mo -->
      <g style="fill: #262626" transform="translate(255.456602 435.281817) rotate(-90) scale(0.11 -0.11)">
       <use xlink:href="#ArialMT-6d"/>
       <use xlink:href="#ArialMT-61" x="83.300781"/>
       <use xlink:href="#ArialMT-78" x="138.916016"/>
       <use xlink:href="#ArialMT-69" x="188.916016"/>
       <use xlink:href="#ArialMT-63" x="211.132812"/>
       <use xlink:href="#ArialMT-6f" x="261.132812"/>
       <use xlink:href="#ArialMT-73" x="316.748047"/>
       <use xlink:href="#ArialMT-69" x="366.748047"/>
       <use xlink:href="#ArialMT-2c" x="388.964844"/>
       <use xlink:href="#ArialMT-20" x="416.748047"/>
       <use xlink:href="#ArialMT-33" x="444.53125"/>
       <use xlink:href="#ArialMT-20" x="500.146484"/>
       <use xlink:href="#ArialMT-6d" x="527.929688"/>
       <use xlink:href="#ArialMT-6f" x="611.230469"/>
      </g>
     </g>
    </g>
    <g id="xtick_6">
     <g id="line2d_6">
      <path d="M 294.970083 352.432442 
L 294.970083 3.00024 
" clip-path="url(#p6d7613ac92)" style="fill: none; stroke: #cccccc; stroke-linecap: round"/>
     </g>
     <g id="text_6">
      <!-- urbanarrow, -->
      <g style="fill: #262626" transform="translate(291.996474 420.017598) rotate(-90) scale(0.11 -0.11)">
       <use xlink:href="#ArialMT-75"/>
       <use xlink:href="#ArialMT-72" x="55.615234"/>
       <use xlink:href="#ArialMT-62" x="88.916016"/>
       <use xlink:href="#ArialMT-61" x="144.53125"/>
       <use xlink:href="#ArialMT-6e" x="200.146484"/>
       <use xlink:href="#ArialMT-61" x="255.761719"/>
       <use xlink:href="#ArialMT-72" x="311.376953"/>
       <use xlink:href="#ArialMT-72" x="344.677734"/>
       <use xlink:href="#ArialMT-6f" x="377.978516"/>
       <use xlink:href="#ArialMT-77" x="433.59375"/>
       <use xlink:href="#ArialMT-2c" x="500.310547"/>
      </g>
      <!-- melia, 3 mo -->
      <g style="fill: #262626" transform="translate(303.631037 419.399708) rotate(-90) scale(0.11 -0.11)">
       <use xlink:href="#ArialMT-6d"/>
       <use xlink:href="#ArialMT-65" x="83.300781"/>
       <use xlink:href="#ArialMT-6c" x="138.916016"/>
       <use xlink:href="#ArialMT-69" x="161.132812"/>
       <use xlink:href="#ArialMT-61" x="183.349609"/>
       <use xlink:href="#ArialMT-2c" x="238.964844"/>
       <use xlink:href="#ArialMT-20" x="266.748047"/>
       <use xlink:href="#ArialMT-33" x="294.53125"/>
       <use xlink:href="#ArialMT-20" x="350.146484"/>
       <use xlink:href="#ArialMT-6d" x="377.929688"/>
       <use xlink:href="#ArialMT-6f" x="461.230469"/>
      </g>
     </g>
    </g>
    <g id="text_7">
     <!-- Vehicle, Seat, Baby Age -->
     <g style="fill: #262626" transform="translate(110.488685 448.017442) scale(0.12 -0.12)">
      <defs>
       <path id="ArialMT-56" d="M 1803 0 
L 28 4581 
L 684 4581 
L 1875 1253 
Q 2019 853 2116 503 
Q 2222 878 2363 1253 
L 3600 4581 
L 4219 4581 
L 2425 0 
L 1803 0 
z
" transform="scale(0.015625)"/>
       <path id="ArialMT-68" d="M 422 0 
L 422 4581 
L 984 4581 
L 984 2938 
Q 1378 3394 1978 3394 
Q 2347 3394 2619 3248 
Q 2891 3103 3008 2847 
Q 3125 2591 3125 2103 
L 3125 0 
L 2563 0 
L 2563 2103 
Q 2563 2525 2380 2717 
Q 2197 2909 1863 2909 
Q 1613 2909 1392 2779 
Q 1172 2650 1078 2428 
Q 984 2206 984 1816 
L 984 0 
L 422 0 
z
" transform="scale(0.015625)"/>
       <path id="ArialMT-53" d="M 288 1472 
L 859 1522 
Q 900 1178 1048 958 
Q 1197 738 1509 602 
Q 1822 466 2213 466 
Q 2559 466 2825 569 
Q 3091 672 3220 851 
Q 3350 1031 3350 1244 
Q 3350 1459 3225 1620 
Q 3100 1781 2813 1891 
Q 2628 1963 1997 2114 
Q 1366 2266 1113 2400 
Q 784 2572 623 2826 
Q 463 3081 463 3397 
Q 463 3744 659 4045 
Q 856 4347 1234 4503 
Q 1613 4659 2075 4659 
Q 2584 4659 2973 4495 
Q 3363 4331 3572 4012 
Q 3781 3694 3797 3291 
L 3216 3247 
Q 3169 3681 2898 3903 
Q 2628 4125 2100 4125 
Q 1550 4125 1298 3923 
Q 1047 3722 1047 3438 
Q 1047 3191 1225 3031 
Q 1400 2872 2139 2705 
Q 2878 2538 3153 2413 
Q 3553 2228 3743 1945 
Q 3934 1663 3934 1294 
Q 3934 928 3725 604 
Q 3516 281 3123 101 
Q 2731 -78 2241 -78 
Q 1619 -78 1198 103 
Q 778 284 539 648 
Q 300 1013 288 1472 
z
" transform="scale(0.015625)"/>
       <path id="ArialMT-74" d="M 1650 503 
L 1731 6 
Q 1494 -44 1306 -44 
Q 1000 -44 831 53 
Q 663 150 594 308 
Q 525 466 525 972 
L 525 2881 
L 113 2881 
L 113 3319 
L 525 3319 
L 525 4141 
L 1084 4478 
L 1084 3319 
L 1650 3319 
L 1650 2881 
L 1084 2881 
L 1084 941 
Q 1084 700 1114 631 
Q 1144 563 1211 522 
Q 1278 481 1403 481 
Q 1497 481 1650 503 
z
" transform="scale(0.015625)"/>
       <path id="ArialMT-42" d="M 469 0 
L 469 4581 
L 2188 4581 
Q 2713 4581 3030 4442 
Q 3347 4303 3526 4014 
Q 3706 3725 3706 3409 
Q 3706 3116 3547 2856 
Q 3388 2597 3066 2438 
Q 3481 2316 3704 2022 
Q 3928 1728 3928 1328 
Q 3928 1006 3792 729 
Q 3656 453 3456 303 
Q 3256 153 2954 76 
Q 2653 0 2216 0 
L 469 0 
z
M 1075 2656 
L 2066 2656 
Q 2469 2656 2644 2709 
Q 2875 2778 2992 2937 
Q 3109 3097 3109 3338 
Q 3109 3566 3000 3739 
Q 2891 3913 2687 3977 
Q 2484 4041 1991 4041 
L 1075 4041 
L 1075 2656 
z
M 1075 541 
L 2216 541 
Q 2509 541 2628 563 
Q 2838 600 2978 687 
Q 3119 775 3209 942 
Q 3300 1109 3300 1328 
Q 3300 1584 3169 1773 
Q 3038 1963 2805 2039 
Q 2572 2116 2134 2116 
L 1075 2116 
L 1075 541 
z
" transform="scale(0.015625)"/>
       <path id="ArialMT-79" d="M 397 -1278 
L 334 -750 
Q 519 -800 656 -800 
Q 844 -800 956 -737 
Q 1069 -675 1141 -563 
Q 1194 -478 1313 -144 
Q 1328 -97 1363 -6 
L 103 3319 
L 709 3319 
L 1400 1397 
Q 1534 1031 1641 628 
Q 1738 1016 1872 1384 
L 2581 3319 
L 3144 3319 
L 1881 -56 
Q 1678 -603 1566 -809 
Q 1416 -1088 1222 -1217 
Q 1028 -1347 759 -1347 
Q 597 -1347 397 -1278 
z
" transform="scale(0.015625)"/>
       <path id="ArialMT-41" d="M -9 0 
L 1750 4581 
L 2403 4581 
L 4278 0 
L 3588 0 
L 3053 1388 
L 1138 1388 
L 634 0 
L -9 0 
z
M 1313 1881 
L 2866 1881 
L 2388 3150 
Q 2169 3728 2063 4100 
Q 1975 3659 1816 3225 
L 1313 1881 
z
" transform="scale(0.015625)"/>
       <path id="ArialMT-67" d="M 319 -275 
L 866 -356 
Q 900 -609 1056 -725 
Q 1266 -881 1628 -881 
Q 2019 -881 2231 -725 
Q 2444 -569 2519 -288 
Q 2563 -116 2559 434 
Q 2191 0 1641 0 
Q 956 0 581 494 
Q 206 988 206 1678 
Q 206 2153 378 2554 
Q 550 2956 876 3175 
Q 1203 3394 1644 3394 
Q 2231 3394 2613 2919 
L 2613 3319 
L 3131 3319 
L 3131 450 
Q 3131 -325 2973 -648 
Q 2816 -972 2473 -1159 
Q 2131 -1347 1631 -1347 
Q 1038 -1347 672 -1080 
Q 306 -813 319 -275 
z
M 784 1719 
Q 784 1066 1043 766 
Q 1303 466 1694 466 
Q 2081 466 2343 764 
Q 2606 1063 2606 1700 
Q 2606 2309 2336 2618 
Q 2066 2928 1684 2928 
Q 1309 2928 1046 2623 
Q 784 2319 784 1719 
z
" transform="scale(0.015625)"/>
      </defs>
      <use xlink:href="#ArialMT-56"/>
      <use xlink:href="#ArialMT-65" x="61.199219"/>
      <use xlink:href="#ArialMT-68" x="116.814453"/>
      <use xlink:href="#ArialMT-69" x="172.429688"/>
      <use xlink:href="#ArialMT-63" x="194.646484"/>
      <use xlink:href="#ArialMT-6c" x="244.646484"/>
      <use xlink:href="#ArialMT-65" x="266.863281"/>
      <use xlink:href="#ArialMT-2c" x="322.478516"/>
      <use xlink:href="#ArialMT-20" x="350.261719"/>
      <use xlink:href="#ArialMT-53" x="378.044922"/>
      <use xlink:href="#ArialMT-65" x="444.744141"/>
      <use xlink:href="#ArialMT-61" x="500.359375"/>
      <use xlink:href="#ArialMT-74" x="555.974609"/>
      <use xlink:href="#ArialMT-2c" x="583.757812"/>
      <use xlink:href="#ArialMT-20" x="611.541016"/>
      <use xlink:href="#ArialMT-42" x="639.324219"/>
      <use xlink:href="#ArialMT-61" x="706.023438"/>
      <use xlink:href="#ArialMT-62" x="761.638672"/>
      <use xlink:href="#ArialMT-79" x="817.253906"/>
      <use xlink:href="#ArialMT-20" x="867.253906"/>
      <use xlink:href="#ArialMT-41" x="889.537109"/>
      <use xlink:href="#ArialMT-67" x="956.236328"/>
      <use xlink:href="#ArialMT-65" x="1011.851562"/>
     </g>
    </g>
   </g>
   <g id="matplotlib.axis_2">
    <g id="ytick_1">
     <g id="line2d_7">
      <path d="M 42.054303 292.823275 
L 307.013692 292.823275 
" clip-path="url(#p6d7613ac92)" style="fill: none; stroke: #cccccc; stroke-linecap: round"/>
     </g>
     <g id="text_8">
      <!-- 2 -->
      <g style="fill: #262626" transform="translate(26.437271 296.760072) scale(0.11 -0.11)">
       <defs>
        <path id="ArialMT-32" d="M 3222 541 
L 3222 0 
L 194 0 
Q 188 203 259 391 
Q 375 700 629 1000 
Q 884 1300 1366 1694 
Q 2113 2306 2375 2664 
Q 2638 3022 2638 3341 
Q 2638 3675 2398 3904 
Q 2159 4134 1775 4134 
Q 1369 4134 1125 3890 
Q 881 3647 878 3216 
L 300 3275 
Q 359 3922 746 4261 
Q 1134 4600 1788 4600 
Q 2447 4600 2831 4234 
Q 3216 3869 3216 3328 
Q 3216 3053 3103 2787 
Q 2991 2522 2730 2228 
Q 2469 1934 1863 1422 
Q 1356 997 1212 845 
Q 1069 694 975 541 
L 3222 541 
z
" transform="scale(0.015625)"/>
       </defs>
       <use xlink:href="#ArialMT-32"/>
      </g>
     </g>
    </g>
    <g id="ytick_2">
     <g id="line2d_8">
      <path d="M 42.054303 229.701104 
L 307.013692 229.701104 
" clip-path="url(#p6d7613ac92)" style="fill: none; stroke: #cccccc; stroke-linecap: round"/>
     </g>
     <g id="text_9">
      <!-- 4 -->
      <g style="fill: #262626" transform="translate(26.437271 233.637901) scale(0.11 -0.11)">
       <defs>
        <path id="ArialMT-34" d="M 2069 0 
L 2069 1097 
L 81 1097 
L 81 1613 
L 2172 4581 
L 2631 4581 
L 2631 1613 
L 3250 1613 
L 3250 1097 
L 2631 1097 
L 2631 0 
L 2069 0 
z
M 2069 1613 
L 2069 3678 
L 634 1613 
L 2069 1613 
z
" transform="scale(0.015625)"/>
       </defs>
       <use xlink:href="#ArialMT-34"/>
      </g>
     </g>
    </g>
    <g id="ytick_3">
     <g id="line2d_9">
      <path d="M 42.054303 166.578933 
L 307.013692 166.578933 
" clip-path="url(#p6d7613ac92)" style="fill: none; stroke: #cccccc; stroke-linecap: round"/>
     </g>
     <g id="text_10">
      <!-- 6 -->
      <g style="fill: #262626" transform="translate(26.437271 170.515729) scale(0.11 -0.11)">
       <defs>
        <path id="ArialMT-36" d="M 3184 3459 
L 2625 3416 
Q 2550 3747 2413 3897 
Q 2184 4138 1850 4138 
Q 1581 4138 1378 3988 
Q 1113 3794 959 3422 
Q 806 3050 800 2363 
Q 1003 2672 1297 2822 
Q 1591 2972 1913 2972 
Q 2475 2972 2870 2558 
Q 3266 2144 3266 1488 
Q 3266 1056 3080 686 
Q 2894 316 2569 119 
Q 2244 -78 1831 -78 
Q 1128 -78 684 439 
Q 241 956 241 2144 
Q 241 3472 731 4075 
Q 1159 4600 1884 4600 
Q 2425 4600 2770 4297 
Q 3116 3994 3184 3459 
z
M 888 1484 
Q 888 1194 1011 928 
Q 1134 663 1356 523 
Q 1578 384 1822 384 
Q 2178 384 2434 671 
Q 2691 959 2691 1453 
Q 2691 1928 2437 2201 
Q 2184 2475 1800 2475 
Q 1419 2475 1153 2201 
Q 888 1928 888 1484 
z
" transform="scale(0.015625)"/>
       </defs>
       <use xlink:href="#ArialMT-36"/>
      </g>
     </g>
    </g>
    <g id="ytick_4">
     <g id="line2d_10">
      <path d="M 42.054303 103.456761 
L 307.013692 103.456761 
" clip-path="url(#p6d7613ac92)" style="fill: none; stroke: #cccccc; stroke-linecap: round"/>
     </g>
     <g id="text_11">
      <!-- 8 -->
      <g style="fill: #262626" transform="translate(26.437271 107.393558) scale(0.11 -0.11)">
       <defs>
        <path id="ArialMT-38" d="M 1131 2484 
Q 781 2613 612 2850 
Q 444 3088 444 3419 
Q 444 3919 803 4259 
Q 1163 4600 1759 4600 
Q 2359 4600 2725 4251 
Q 3091 3903 3091 3403 
Q 3091 3084 2923 2848 
Q 2756 2613 2416 2484 
Q 2838 2347 3058 2040 
Q 3278 1734 3278 1309 
Q 3278 722 2862 322 
Q 2447 -78 1769 -78 
Q 1091 -78 675 323 
Q 259 725 259 1325 
Q 259 1772 486 2073 
Q 713 2375 1131 2484 
z
M 1019 3438 
Q 1019 3113 1228 2906 
Q 1438 2700 1772 2700 
Q 2097 2700 2305 2904 
Q 2513 3109 2513 3406 
Q 2513 3716 2298 3927 
Q 2084 4138 1766 4138 
Q 1444 4138 1231 3931 
Q 1019 3725 1019 3438 
z
M 838 1322 
Q 838 1081 952 856 
Q 1066 631 1291 507 
Q 1516 384 1775 384 
Q 2178 384 2440 643 
Q 2703 903 2703 1303 
Q 2703 1709 2433 1975 
Q 2163 2241 1756 2241 
Q 1359 2241 1098 1978 
Q 838 1716 838 1322 
z
" transform="scale(0.015625)"/>
       </defs>
       <use xlink:href="#ArialMT-38"/>
      </g>
     </g>
    </g>
    <g id="ytick_5">
     <g id="line2d_11">
      <path d="M 42.054303 40.33459 
L 307.013692 40.33459 
" clip-path="url(#p6d7613ac92)" style="fill: none; stroke: #cccccc; stroke-linecap: round"/>
     </g>
     <g id="text_12">
      <!-- 10 -->
      <g style="fill: #262626" transform="translate(20.32024 44.271387) scale(0.11 -0.11)">
       <defs>
        <path id="ArialMT-31" d="M 2384 0 
L 1822 0 
L 1822 3584 
Q 1619 3391 1289 3197 
Q 959 3003 697 2906 
L 697 3450 
Q 1169 3672 1522 3987 
Q 1875 4303 2022 4600 
L 2384 4600 
L 2384 0 
z
" transform="scale(0.015625)"/>
       </defs>
       <use xlink:href="#ArialMT-31"/>
       <use xlink:href="#ArialMT-30" x="55.615234"/>
      </g>
     </g>
    </g>
    <g id="text_13">
     <!-- Vertical Acceleration RMS [m/s$^2$] -->
     <g style="fill: #262626" transform="translate(13.92024 265.016341) rotate(-90) scale(0.12 -0.12)">
      <defs>
       <path id="ArialMT-52" d="M 503 0 
L 503 4581 
L 2534 4581 
Q 3147 4581 3465 4457 
Q 3784 4334 3975 4021 
Q 4166 3709 4166 3331 
Q 4166 2844 3850 2509 
Q 3534 2175 2875 2084 
Q 3116 1969 3241 1856 
Q 3506 1613 3744 1247 
L 4541 0 
L 3778 0 
L 3172 953 
Q 2906 1366 2734 1584 
Q 2563 1803 2427 1890 
Q 2291 1978 2150 2013 
Q 2047 2034 1813 2034 
L 1109 2034 
L 1109 0 
L 503 0 
z
M 1109 2559 
L 2413 2559 
Q 2828 2559 3062 2645 
Q 3297 2731 3419 2920 
Q 3541 3109 3541 3331 
Q 3541 3656 3305 3865 
Q 3069 4075 2559 4075 
L 1109 4075 
L 1109 2559 
z
" transform="scale(0.015625)"/>
       <path id="ArialMT-4d" d="M 475 0 
L 475 4581 
L 1388 4581 
L 2472 1338 
Q 2622 884 2691 659 
Q 2769 909 2934 1394 
L 4031 4581 
L 4847 4581 
L 4847 0 
L 4263 0 
L 4263 3834 
L 2931 0 
L 2384 0 
L 1059 3900 
L 1059 0 
L 475 0 
z
" transform="scale(0.015625)"/>
       <path id="ArialMT-5b" d="M 434 -1272 
L 434 4581 
L 1675 4581 
L 1675 4116 
L 997 4116 
L 997 -806 
L 1675 -806 
L 1675 -1272 
L 434 -1272 
z
" transform="scale(0.015625)"/>
       <path id="ArialMT-2f" d="M 0 -78 
L 1328 4659 
L 1778 4659 
L 453 -78 
L 0 -78 
z
" transform="scale(0.015625)"/>
       <path id="DejaVuSans-32" d="M 1228 531 
L 3431 531 
L 3431 0 
L 469 0 
L 469 531 
Q 828 903 1448 1529 
Q 2069 2156 2228 2338 
Q 2531 2678 2651 2914 
Q 2772 3150 2772 3378 
Q 2772 3750 2511 3984 
Q 2250 4219 1831 4219 
Q 1534 4219 1204 4116 
Q 875 4013 500 3803 
L 500 4441 
Q 881 4594 1212 4672 
Q 1544 4750 1819 4750 
Q 2544 4750 2975 4387 
Q 3406 4025 3406 3419 
Q 3406 3131 3298 2873 
Q 3191 2616 2906 2266 
Q 2828 2175 2409 1742 
Q 1991 1309 1228 531 
z
" transform="scale(0.015625)"/>
       <path id="ArialMT-5d" d="M 1363 -1272 
L 122 -1272 
L 122 -806 
L 800 -806 
L 800 4116 
L 122 4116 
L 122 4581 
L 1363 4581 
L 1363 -1272 
z
" transform="scale(0.015625)"/>
      </defs>
      <use xlink:href="#ArialMT-56" transform="translate(0 0.765625)"/>
      <use xlink:href="#ArialMT-65" transform="translate(66.699219 0.765625)"/>
      <use xlink:href="#ArialMT-72" transform="translate(122.314453 0.765625)"/>
      <use xlink:href="#ArialMT-74" transform="translate(155.615234 0.765625)"/>
      <use xlink:href="#ArialMT-69" transform="translate(183.398438 0.765625)"/>
      <use xlink:href="#ArialMT-63" transform="translate(205.615234 0.765625)"/>
      <use xlink:href="#ArialMT-61" transform="translate(255.615234 0.765625)"/>
      <use xlink:href="#ArialMT-6c" transform="translate(311.230469 0.765625)"/>
      <use xlink:href="#ArialMT-20" transform="translate(333.447266 0.765625)"/>
      <use xlink:href="#ArialMT-41" transform="translate(361.230469 0.765625)"/>
      <use xlink:href="#ArialMT-63" transform="translate(427.929688 0.765625)"/>
      <use xlink:href="#ArialMT-63" transform="translate(477.929688 0.765625)"/>
      <use xlink:href="#ArialMT-65" transform="translate(527.929688 0.765625)"/>
      <use xlink:href="#ArialMT-6c" transform="translate(583.544922 0.765625)"/>
      <use xlink:href="#ArialMT-65" transform="translate(605.761719 0.765625)"/>
      <use xlink:href="#ArialMT-72" transform="translate(661.376953 0.765625)"/>
      <use xlink:href="#ArialMT-61" transform="translate(694.677734 0.765625)"/>
      <use xlink:href="#ArialMT-74" transform="translate(750.292969 0.765625)"/>
      <use xlink:href="#ArialMT-69" transform="translate(778.076172 0.765625)"/>
      <use xlink:href="#ArialMT-6f" transform="translate(800.292969 0.765625)"/>
      <use xlink:href="#ArialMT-6e" transform="translate(855.908203 0.765625)"/>
      <use xlink:href="#ArialMT-20" transform="translate(911.523438 0.765625)"/>
      <use xlink:href="#ArialMT-52" transform="translate(939.306641 0.765625)"/>
      <use xlink:href="#ArialMT-4d" transform="translate(1011.523438 0.765625)"/>
      <use xlink:href="#ArialMT-53" transform="translate(1094.824219 0.765625)"/>
      <use xlink:href="#ArialMT-20" transform="translate(1161.523438 0.765625)"/>
      <use xlink:href="#ArialMT-5b" transform="translate(1189.306641 0.765625)"/>
      <use xlink:href="#ArialMT-6d" transform="translate(1217.089844 0.765625)"/>
      <use xlink:href="#ArialMT-2f" transform="translate(1300.390625 0.765625)"/>
      <use xlink:href="#ArialMT-73" transform="translate(1328.173828 0.765625)"/>
      <use xlink:href="#DejaVuSans-32" transform="translate(1379.130859 39.046875) scale(0.7)"/>
      <use xlink:href="#ArialMT-5d" transform="translate(1426.401367 0.765625)"/>
     </g>
    </g>
   </g>
   <g id="PathCollection_1">
    <path d="M 54.097911 172.08726 
C 54.89352 172.08726 55.656651 171.771161 56.219231 171.20858 
C 56.781812 170.645999 57.097911 169.882869 57.097911 169.08726 
C 57.097911 168.29165 56.781812 167.52852 56.219231 166.965939 
C 55.656651 166.403359 54.89352 166.08726 54.097911 166.08726 
C 53.302302 166.08726 52.539172 166.403359 51.976591 166.965939 
C 51.41401 167.52852 51.097911 168.29165 51.097911 169.08726 
C 51.097911 169.882869 51.41401 170.645999 51.976591 171.20858 
C 52.539172 171.771161 53.302302 172.08726 54.097911 172.08726 
z
" clip-path="url(#p6d7613ac92)" style="fill: #dd8452; stroke: #ffffff; stroke-width: 0.48"/>
    <path d="M 54.097911 111.021445 
C 54.89352 111.021445 55.656651 110.705346 56.219231 110.142765 
C 56.781812 109.580185 57.097911 108.817054 57.097911 108.021445 
C 57.097911 107.225836 56.781812 106.462705 56.219231 105.900125 
C 55.656651 105.337544 54.89352 105.021445 54.097911 105.021445 
C 53.302302 105.021445 52.539172 105.337544 51.976591 105.900125 
C 51.41401 106.462705 51.097911 107.225836 51.097911 108.021445 
C 51.097911 108.817054 51.41401 109.580185 51.976591 110.142765 
C 52.539172 110.705346 53.302302 111.021445 54.097911 111.021445 
z
" clip-path="url(#p6d7613ac92)" style="fill: #dd8452; stroke: #ffffff; stroke-width: 0.48"/>
    <path d="M 52.597911 21.883522 
L 54.097911 20.383522 
L 55.597911 21.883522 
L 57.097911 20.383522 
L 55.597911 18.883522 
L 57.097911 17.383522 
L 55.597911 15.883522 
L 54.097911 17.383522 
L 52.597911 15.883522 
L 51.097911 17.383522 
L 52.597911 18.883522 
L 51.097911 20.383522 
z
" clip-path="url(#p6d7613ac92)" style="fill: #dd8452; stroke: #ffffff; stroke-width: 0.48"/>
    <path d="M 54.097911 293.874951 
C 54.89352 293.874951 55.656651 293.558852 56.219231 292.996271 
C 56.781812 292.433691 57.097911 291.67056 57.097911 290.874951 
C 57.097911 290.079342 56.781812 289.316211 56.219231 288.753631 
C 55.656651 288.19105 54.89352 287.874951 54.097911 287.874951 
C 53.302302 287.874951 52.539172 288.19105 51.976591 288.753631 
C 51.41401 289.316211 51.097911 290.079342 51.097911 290.874951 
C 51.097911 291.67056 51.41401 292.433691 51.976591 292.996271 
C 52.539172 293.558852 53.302302 293.874951 54.097911 293.874951 
z
" clip-path="url(#p6d7613ac92)" style="fill: #8172b3; stroke: #ffffff; stroke-width: 0.48"/>
    <path d="M 54.097911 312.668956 
C 54.89352 312.668956 55.656651 312.352857 56.219231 311.790276 
C 56.781812 311.227696 57.097911 310.464565 57.097911 309.668956 
C 57.097911 308.873347 56.781812 308.110216 56.219231 307.547636 
C 55.656651 306.985055 54.89352 306.668956 54.097911 306.668956 
C 53.302302 306.668956 52.539172 306.985055 51.976591 307.547636 
C 51.41401 308.110216 51.097911 308.873347 51.097911 309.668956 
C 51.097911 310.464565 51.41401 311.227696 51.976591 311.790276 
C 52.539172 312.352857 53.302302 312.668956 54.097911 312.668956 
z
" clip-path="url(#p6d7613ac92)" style="fill: #8172b3; stroke: #ffffff; stroke-width: 0.48"/>
    <path d="M 54.097911 297.837319 
C 54.89352 297.837319 55.656651 297.52122 56.219231 296.958639 
C 56.781812 296.396058 57.097911 295.632928 57.097911 294.837319 
C 57.097911 294.041709 56.781812 293.278579 56.219231 292.715998 
C 55.656651 292.153418 54.89352 291.837319 54.097911 291.837319 
C 53.302302 291.837319 52.539172 292.153418 51.976591 292.715998 
C 51.41401 293.278579 51.097911 294.041709 51.097911 294.837319 
C 51.097911 295.632928 51.41401 296.396058 51.976591 296.958639 
C 52.539172 297.52122 53.302302 297.837319 54.097911 297.837319 
z
" clip-path="url(#p6d7613ac92)" style="fill: #8172b3; stroke: #ffffff; stroke-width: 0.48"/>
    <path d="M 52.597911 260.284136 
L 54.097911 258.784136 
L 55.597911 260.284136 
L 57.097911 258.784136 
L 55.597911 257.284136 
L 57.097911 255.784136 
L 55.597911 254.284136 
L 54.097911 255.784136 
L 52.597911 254.284136 
L 51.097911 255.784136 
L 52.597911 257.284136 
L 51.097911 258.784136 
z
" clip-path="url(#p6d7613ac92)" style="fill: #8172b3; stroke: #ffffff; stroke-width: 0.48"/>
    <path d="M 52.597911 283.412477 
L 54.097911 281.912477 
L 55.597911 283.412477 
L 57.097911 281.912477 
L 55.597911 280.412477 
L 57.097911 278.912477 
L 55.597911 277.412477 
L 54.097911 278.912477 
L 52.597911 277.412477 
L 51.097911 278.912477 
L 52.597911 280.412477 
L 51.097911 281.912477 
z
" clip-path="url(#p6d7613ac92)" style="fill: #8172b3; stroke: #ffffff; stroke-width: 0.48"/>
    <path d="M 102.272346 201.805861 
C 103.067955 201.805861 103.831085 201.489762 104.393666 200.927181 
C 104.956247 200.3646 105.272346 199.60147 105.272346 198.805861 
C 105.272346 198.010252 104.956247 197.247121 104.393666 196.684541 
C 103.831085 196.12196 103.067955 195.805861 102.272346 195.805861 
C 101.476736 195.805861 100.713606 196.12196 100.151025 196.684541 
C 99.588445 197.247121 99.272346 198.010252 99.272346 198.805861 
C 99.272346 199.60147 99.588445 200.3646 100.151025 200.927181 
C 100.713606 201.489762 101.476736 201.805861 102.272346 201.805861 
z
" clip-path="url(#p6d7613ac92)" style="fill: #dd8452; stroke: #ffffff; stroke-width: 0.48"/>
    <path d="M 102.272346 156.824782 
C 103.067955 156.824782 103.831085 156.508683 104.393666 155.946102 
C 104.956247 155.383521 105.272346 154.620391 105.272346 153.824782 
C 105.272346 153.029172 104.956247 152.266042 104.393666 151.703461 
C 103.831085 151.14088 103.067955 150.824782 102.272346 150.824782 
C 101.476736 150.824782 100.713606 151.14088 100.151025 151.703461 
C 99.588445 152.266042 99.272346 153.029172 99.272346 153.824782 
C 99.272346 154.620391 99.588445 155.383521 100.151025 155.946102 
C 100.713606 156.508683 101.476736 156.824782 102.272346 156.824782 
z
" clip-path="url(#p6d7613ac92)" style="fill: #dd8452; stroke: #ffffff; stroke-width: 0.48"/>
    <path d="M 100.772346 106.291856 
L 102.272346 104.791856 
L 103.772346 106.291856 
L 105.272346 104.791856 
L 103.772346 103.291856 
L 105.272346 101.791856 
L 103.772346 100.291856 
L 102.272346 101.791856 
L 100.772346 100.291856 
L 99.272346 101.791856 
L 100.772346 103.291856 
L 99.272346 104.791856 
z
" clip-path="url(#p6d7613ac92)" style="fill: #dd8452; stroke: #ffffff; stroke-width: 0.48"/>
    <path d="M 100.772346 119.308769 
L 102.272346 117.808769 
L 103.772346 119.308769 
L 105.272346 117.808769 
L 103.772346 116.308769 
L 105.272346 114.808769 
L 103.772346 113.308769 
L 102.272346 114.808769 
L 100.772346 113.308769 
L 99.272346 114.808769 
L 100.772346 116.308769 
L 99.272346 117.808769 
z
" clip-path="url(#p6d7613ac92)" style="fill: #dd8452; stroke: #ffffff; stroke-width: 0.48"/>
    <path d="M 102.272346 308.963981 
C 103.067955 308.963981 103.831085 308.647882 104.393666 308.085301 
C 104.956247 307.52272 105.272346 306.75959 105.272346 305.963981 
C 105.272346 305.168372 104.956247 304.405241 104.393666 303.84266 
C 103.831085 303.28008 103.067955 302.963981 102.272346 302.963981 
C 101.476736 302.963981 100.713606 303.28008 100.151025 303.84266 
C 99.588445 304.405241 99.272346 305.168372 99.272346 305.963981 
C 99.272346 306.75959 99.588445 307.52272 100.151025 308.085301 
C 100.713606 308.647882 101.476736 308.963981 102.272346 308.963981 
z
" clip-path="url(#p6d7613ac92)" style="fill: #8172b3; stroke: #ffffff; stroke-width: 0.48"/>
    <path d="M 102.272346 311.375305 
C 103.067955 311.375305 103.831085 311.059206 104.393666 310.496625 
C 104.956247 309.934045 105.272346 309.170914 105.272346 308.375305 
C 105.272346 307.579696 104.956247 306.816565 104.393666 306.253985 
C 103.831085 305.691404 103.067955 305.375305 102.272346 305.375305 
C 101.476736 305.375305 100.713606 305.691404 100.151025 306.253985 
C 99.588445 306.816565 99.272346 307.579696 99.272346 308.375305 
C 99.272346 309.170914 99.588445 309.934045 100.151025 310.496625 
C 100.713606 311.059206 101.476736 311.375305 102.272346 311.375305 
z
" clip-path="url(#p6d7613ac92)" style="fill: #8172b3; stroke: #ffffff; stroke-width: 0.48"/>
    <path d="M 100.772346 291.808462 
L 102.272346 290.308462 
L 103.772346 291.808462 
L 105.272346 290.308462 
L 103.772346 288.808462 
L 105.272346 287.308462 
L 103.772346 285.808462 
L 102.272346 287.308462 
L 100.772346 285.808462 
L 99.272346 287.308462 
L 100.772346 288.808462 
L 99.272346 290.308462 
z
" clip-path="url(#p6d7613ac92)" style="fill: #8172b3; stroke: #ffffff; stroke-width: 0.48"/>
    <path d="M 100.772346 294.582491 
L 102.272346 293.082491 
L 103.772346 294.582491 
L 105.272346 293.082491 
L 103.772346 291.582491 
L 105.272346 290.082491 
L 103.772346 288.582491 
L 102.272346 290.082491 
L 100.772346 288.582491 
L 99.272346 290.082491 
L 100.772346 291.582491 
L 99.272346 293.082491 
z
" clip-path="url(#p6d7613ac92)" style="fill: #8172b3; stroke: #ffffff; stroke-width: 0.48"/>
    <path d="M 150.44678 235.399908 
C 151.242389 235.399908 152.00552 235.083809 152.5681 234.521228 
C 153.130681 233.958648 153.44678 233.195517 153.44678 232.399908 
C 153.44678 231.604299 153.130681 230.841168 152.5681 230.278588 
C 152.00552 229.716007 151.242389 229.399908 150.44678 229.399908 
C 149.651171 229.399908 148.88804 229.716007 148.32546 230.278588 
C 147.762879 230.841168 147.44678 231.604299 147.44678 232.399908 
C 147.44678 233.195517 147.762879 233.958648 148.32546 234.521228 
C 148.88804 235.083809 149.651171 235.399908 150.44678 235.399908 
z
" clip-path="url(#p6d7613ac92)" style="fill: #dd8452; stroke: #ffffff; stroke-width: 0.48"/>
    <path d="M 150.44678 172.977733 
C 151.242389 172.977733 152.00552 172.661634 152.5681 172.099053 
C 153.130681 171.536473 153.44678 170.773342 153.44678 169.977733 
C 153.44678 169.182124 153.130681 168.418993 152.5681 167.856413 
C 152.00552 167.293832 151.242389 166.977733 150.44678 166.977733 
C 149.651171 166.977733 148.88804 167.293832 148.32546 167.856413 
C 147.762879 168.418993 147.44678 169.182124 147.44678 169.977733 
C 147.44678 170.773342 147.762879 171.536473 148.32546 172.099053 
C 148.88804 172.661634 149.651171 172.977733 150.44678 172.977733 
z
" clip-path="url(#p6d7613ac92)" style="fill: #dd8452; stroke: #ffffff; stroke-width: 0.48"/>
    <path d="M 148.94678 173.39904 
L 150.44678 171.89904 
L 151.94678 173.39904 
L 153.44678 171.89904 
L 151.94678 170.39904 
L 153.44678 168.89904 
L 151.94678 167.39904 
L 150.44678 168.89904 
L 148.94678 167.39904 
L 147.44678 168.89904 
L 148.94678 170.39904 
L 147.44678 171.89904 
z
" clip-path="url(#p6d7613ac92)" style="fill: #dd8452; stroke: #ffffff; stroke-width: 0.48"/>
    <path d="M 148.94678 119.997641 
L 150.44678 118.497641 
L 151.94678 119.997641 
L 153.44678 118.497641 
L 151.94678 116.997641 
L 153.44678 115.497641 
L 151.94678 113.997641 
L 150.44678 115.497641 
L 148.94678 113.997641 
L 147.44678 115.497641 
L 148.94678 116.997641 
L 147.44678 118.497641 
z
" clip-path="url(#p6d7613ac92)" style="fill: #dd8452; stroke: #ffffff; stroke-width: 0.48"/>
    <path d="M 150.44678 316.601017 
C 151.242389 316.601017 152.00552 316.284918 152.5681 315.722338 
C 153.130681 315.159757 153.44678 314.396627 153.44678 313.601017 
C 153.44678 312.805408 153.130681 312.042278 152.5681 311.479697 
C 152.00552 310.917116 151.242389 310.601017 150.44678 310.601017 
C 149.651171 310.601017 148.88804 310.917116 148.32546 311.479697 
C 147.762879 312.042278 147.44678 312.805408 147.44678 313.601017 
C 147.44678 314.396627 147.762879 315.159757 148.32546 315.722338 
C 148.88804 316.284918 149.651171 316.601017 150.44678 316.601017 
z
" clip-path="url(#p6d7613ac92)" style="fill: #8172b3; stroke: #ffffff; stroke-width: 0.48"/>
    <path d="M 150.44678 324.614666 
C 151.242389 324.614666 152.00552 324.298567 152.5681 323.735986 
C 153.130681 323.173405 153.44678 322.410275 153.44678 321.614666 
C 153.44678 320.819056 153.130681 320.055926 152.5681 319.493345 
C 152.00552 318.930765 151.242389 318.614666 150.44678 318.614666 
C 149.651171 318.614666 148.88804 318.930765 148.32546 319.493345 
C 147.762879 320.055926 147.44678 320.819056 147.44678 321.614666 
C 147.44678 322.410275 147.762879 323.173405 148.32546 323.735986 
C 148.88804 324.298567 149.651171 324.614666 150.44678 324.614666 
z
" clip-path="url(#p6d7613ac92)" style="fill: #8172b3; stroke: #ffffff; stroke-width: 0.48"/>
    <path d="M 148.94678 313.280427 
L 150.44678 311.780427 
L 151.94678 313.280427 
L 153.44678 311.780427 
L 151.94678 310.280427 
L 153.44678 308.780427 
L 151.94678 307.280427 
L 150.44678 308.780427 
L 148.94678 307.280427 
L 147.44678 308.780427 
L 148.94678 310.280427 
L 147.44678 311.780427 
z
" clip-path="url(#p6d7613ac92)" style="fill: #8172b3; stroke: #ffffff; stroke-width: 0.48"/>
    <path d="M 148.94678 307.763078 
L 150.44678 306.263078 
L 151.94678 307.763078 
L 153.44678 306.263078 
L 151.94678 304.763078 
L 153.44678 303.263078 
L 151.94678 301.763078 
L 150.44678 303.263078 
L 148.94678 301.763078 
L 147.44678 303.263078 
L 148.94678 304.763078 
L 147.44678 306.263078 
z
" clip-path="url(#p6d7613ac92)" style="fill: #8172b3; stroke: #ffffff; stroke-width: 0.48"/>
    <path d="M 198.621215 223.623139 
C 199.416824 223.623139 200.179954 223.30704 200.742535 222.74446 
C 201.305116 222.181879 201.621215 221.418749 201.621215 220.623139 
C 201.621215 219.82753 201.305116 219.0644 200.742535 218.501819 
C 200.179954 217.939238 199.416824 217.623139 198.621215 217.623139 
C 197.825605 217.623139 197.062475 217.939238 196.499894 218.501819 
C 195.937313 219.0644 195.621215 219.82753 195.621215 220.623139 
C 195.621215 221.418749 195.937313 222.181879 196.499894 222.74446 
C 197.062475 223.30704 197.825605 223.623139 198.621215 223.623139 
z
" clip-path="url(#p6d7613ac92)" style="fill: #dd8452; stroke: #ffffff; stroke-width: 0.48"/>
    <path d="M 198.621215 168.343359 
C 199.416824 168.343359 200.179954 168.02726 200.742535 167.464679 
C 201.305116 166.902098 201.621215 166.138968 201.621215 165.343359 
C 201.621215 164.547749 201.305116 163.784619 200.742535 163.222038 
C 200.179954 162.659458 199.416824 162.343359 198.621215 162.343359 
C 197.825605 162.343359 197.062475 162.659458 196.499894 163.222038 
C 195.937313 163.784619 195.621215 164.547749 195.621215 165.343359 
C 195.621215 166.138968 195.937313 166.902098 196.499894 167.464679 
C 197.062475 168.02726 197.825605 168.343359 198.621215 168.343359 
z
" clip-path="url(#p6d7613ac92)" style="fill: #dd8452; stroke: #ffffff; stroke-width: 0.48"/>
    <path d="M 198.621215 146.191875 
C 199.416824 146.191875 200.179954 145.875777 200.742535 145.313196 
C 201.305116 144.750615 201.621215 143.987485 201.621215 143.191875 
C 201.621215 142.396266 201.305116 141.633136 200.742535 141.070555 
C 200.179954 140.507974 199.416824 140.191875 198.621215 140.191875 
C 197.825605 140.191875 197.062475 140.507974 196.499894 141.070555 
C 195.937313 141.633136 195.621215 142.396266 195.621215 143.191875 
C 195.621215 143.987485 195.937313 144.750615 196.499894 145.313196 
C 197.062475 145.875777 197.825605 146.191875 198.621215 146.191875 
z
" clip-path="url(#p6d7613ac92)" style="fill: #dd8452; stroke: #ffffff; stroke-width: 0.48"/>
    <path d="M 196.499894 95.307825 
L 196.499894 99.550465 
L 200.742535 99.550465 
L 200.742535 95.307825 
z
" clip-path="url(#p6d7613ac92)" style="fill: #dd8452; stroke: #ffffff; stroke-width: 0.48"/>
    <path d="M 197.121215 90.301145 
L 198.621215 88.801145 
L 200.121215 90.301145 
L 201.621215 88.801145 
L 200.121215 87.301145 
L 201.621215 85.801145 
L 200.121215 84.301145 
L 198.621215 85.801145 
L 197.121215 84.301145 
L 195.621215 85.801145 
L 197.121215 87.301145 
L 195.621215 88.801145 
z
" clip-path="url(#p6d7613ac92)" style="fill: #dd8452; stroke: #ffffff; stroke-width: 0.48"/>
    <path d="M 198.621215 332.223783 
C 199.416824 332.223783 200.179954 331.907684 200.742535 331.345104 
C 201.305116 330.782523 201.621215 330.019393 201.621215 329.223783 
C 201.621215 328.428174 201.305116 327.665044 200.742535 327.102463 
C 200.179954 326.539882 199.416824 326.223783 198.621215 326.223783 
C 197.825605 326.223783 197.062475 326.539882 196.499894 327.102463 
C 195.937313 327.665044 195.621215 328.428174 195.621215 329.223783 
C 195.621215 330.019393 195.937313 330.782523 196.499894 331.345104 
C 197.062475 331.907684 197.825605 332.223783 198.621215 332.223783 
z
" clip-path="url(#p6d7613ac92)" style="fill: #8172b3; stroke: #ffffff; stroke-width: 0.48"/>
    <path d="M 198.621215 312.842895 
C 199.416824 312.842895 200.179954 312.526796 200.742535 311.964215 
C 201.305116 311.401635 201.621215 310.638504 201.621215 309.842895 
C 201.621215 309.047286 201.305116 308.284155 200.742535 307.721575 
C 200.179954 307.158994 199.416824 306.842895 198.621215 306.842895 
C 197.825605 306.842895 197.062475 307.158994 196.499894 307.721575 
C 195.937313 308.284155 195.621215 309.047286 195.621215 309.842895 
C 195.621215 310.638504 195.937313 311.401635 196.499894 311.964215 
C 197.062475 312.526796 197.825605 312.842895 198.621215 312.842895 
z
" clip-path="url(#p6d7613ac92)" style="fill: #8172b3; stroke: #ffffff; stroke-width: 0.48"/>
    <path d="M 196.499894 297.425379 
L 196.499894 301.66802 
L 200.742535 301.66802 
L 200.742535 297.425379 
z
" clip-path="url(#p6d7613ac92)" style="fill: #8172b3; stroke: #ffffff; stroke-width: 0.48"/>
    <path d="M 196.499894 292.67172 
L 196.499894 296.914361 
L 200.742535 296.914361 
L 200.742535 292.67172 
z
" clip-path="url(#p6d7613ac92)" style="fill: #8172b3; stroke: #ffffff; stroke-width: 0.48"/>
    <path d="M 246.795649 274.325354 
C 247.591258 274.325354 248.354389 274.009256 248.916969 273.446675 
C 249.47955 272.884094 249.795649 272.120964 249.795649 271.325354 
C 249.795649 270.529745 249.47955 269.766615 248.916969 269.204034 
C 248.354389 268.641453 247.591258 268.325354 246.795649 268.325354 
C 246.00004 268.325354 245.236909 268.641453 244.674329 269.204034 
C 244.111748 269.766615 243.795649 270.529745 243.795649 271.325354 
C 243.795649 272.120964 244.111748 272.884094 244.674329 273.446675 
C 245.236909 274.009256 246.00004 274.325354 246.795649 274.325354 
z
" clip-path="url(#p6d7613ac92)" style="fill: #dd8452; stroke: #ffffff; stroke-width: 0.48"/>
    <path d="M 246.795649 198.112694 
C 247.591258 198.112694 248.354389 197.796595 248.916969 197.234014 
C 249.47955 196.671433 249.795649 195.908303 249.795649 195.112694 
C 249.795649 194.317084 249.47955 193.553954 248.916969 192.991373 
C 248.354389 192.428793 247.591258 192.112694 246.795649 192.112694 
C 246.00004 192.112694 245.236909 192.428793 244.674329 192.991373 
C 244.111748 193.553954 243.795649 194.317084 243.795649 195.112694 
C 243.795649 195.908303 244.111748 196.671433 244.674329 197.234014 
C 245.236909 197.796595 246.00004 198.112694 246.795649 198.112694 
z
" clip-path="url(#p6d7613ac92)" style="fill: #dd8452; stroke: #ffffff; stroke-width: 0.48"/>
    <path d="M 245.295649 126.208279 
L 246.795649 124.708279 
L 248.295649 126.208279 
L 249.795649 124.708279 
L 248.295649 123.208279 
L 249.795649 121.708279 
L 248.295649 120.208279 
L 246.795649 121.708279 
L 245.295649 120.208279 
L 243.795649 121.708279 
L 245.295649 123.208279 
L 243.795649 124.708279 
z
" clip-path="url(#p6d7613ac92)" style="fill: #dd8452; stroke: #ffffff; stroke-width: 0.48"/>
    <path d="M 244.674329 112.081017 
L 244.674329 116.323658 
L 248.916969 116.323658 
L 248.916969 112.081017 
z
" clip-path="url(#p6d7613ac92)" style="fill: #dd8452; stroke: #ffffff; stroke-width: 0.48"/>
    <path d="M 246.795649 330.841083 
C 247.591258 330.841083 248.354389 330.524984 248.916969 329.962403 
C 249.47955 329.399822 249.795649 328.636692 249.795649 327.841083 
C 249.795649 327.045473 249.47955 326.282343 248.916969 325.719762 
C 248.354389 325.157182 247.591258 324.841083 246.795649 324.841083 
C 246.00004 324.841083 245.236909 325.157182 244.674329 325.719762 
C 244.111748 326.282343 243.795649 327.045473 243.795649 327.841083 
C 243.795649 328.636692 244.111748 329.399822 244.674329 329.962403 
C 245.236909 330.524984 246.00004 330.841083 246.795649 330.841083 
z
" clip-path="url(#p6d7613ac92)" style="fill: #8172b3; stroke: #ffffff; stroke-width: 0.48"/>
    <path d="M 246.795649 325.181932 
C 247.591258 325.181932 248.354389 324.865833 248.916969 324.303252 
C 249.47955 323.740672 249.795649 322.977541 249.795649 322.181932 
C 249.795649 321.386323 249.47955 320.623192 248.916969 320.060612 
C 248.354389 319.498031 247.591258 319.181932 246.795649 319.181932 
C 246.00004 319.181932 245.236909 319.498031 244.674329 320.060612 
C 244.111748 320.623192 243.795649 321.386323 243.795649 322.181932 
C 243.795649 322.977541 244.111748 323.740672 244.674329 324.303252 
C 245.236909 324.865833 246.00004 325.181932 246.795649 325.181932 
z
" clip-path="url(#p6d7613ac92)" style="fill: #8172b3; stroke: #ffffff; stroke-width: 0.48"/>
    <path d="M 244.674329 307.907245 
L 244.674329 312.149886 
L 248.916969 312.149886 
L 248.916969 307.907245 
z
" clip-path="url(#p6d7613ac92)" style="fill: #8172b3; stroke: #ffffff; stroke-width: 0.48"/>
    <path d="M 244.674329 307.481314 
L 244.674329 311.723954 
L 248.916969 311.723954 
L 248.916969 307.481314 
z
" clip-path="url(#p6d7613ac92)" style="fill: #8172b3; stroke: #ffffff; stroke-width: 0.48"/>
    <path d="M 294.970083 249.405727 
C 295.765693 249.405727 296.528823 249.089628 297.091404 248.527047 
C 297.653985 247.964467 297.970083 247.201336 297.970083 246.405727 
C 297.970083 245.610118 297.653985 244.846987 297.091404 244.284407 
C 296.528823 243.721826 295.765693 243.405727 294.970083 243.405727 
C 294.174474 243.405727 293.411344 243.721826 292.848763 244.284407 
C 292.286182 244.846987 291.970083 245.610118 291.970083 246.405727 
C 291.970083 247.201336 292.286182 247.964467 292.848763 248.527047 
C 293.411344 249.089628 294.174474 249.405727 294.970083 249.405727 
z
" clip-path="url(#p6d7613ac92)" style="fill: #dd8452; stroke: #ffffff; stroke-width: 0.48"/>
    <path d="M 294.970083 208.261736 
C 295.765693 208.261736 296.528823 207.945638 297.091404 207.383057 
C 297.653985 206.820476 297.970083 206.057346 297.970083 205.261736 
C 297.970083 204.466127 297.653985 203.702997 297.091404 203.140416 
C 296.528823 202.577835 295.765693 202.261736 294.970083 202.261736 
C 294.174474 202.261736 293.411344 202.577835 292.848763 203.140416 
C 292.286182 203.702997 291.970083 204.466127 291.970083 205.261736 
C 291.970083 206.057346 292.286182 206.820476 292.848763 207.383057 
C 293.411344 207.945638 294.174474 208.261736 294.970083 208.261736 
z
" clip-path="url(#p6d7613ac92)" style="fill: #dd8452; stroke: #ffffff; stroke-width: 0.48"/>
    <path d="M 293.470083 162.656934 
L 294.970083 161.156934 
L 296.470083 162.656934 
L 297.970083 161.156934 
L 296.470083 159.656934 
L 297.970083 158.156934 
L 296.470083 156.656934 
L 294.970083 158.156934 
L 293.470083 156.656934 
L 291.970083 158.156934 
L 293.470083 159.656934 
L 291.970083 161.156934 
z
" clip-path="url(#p6d7613ac92)" style="fill: #dd8452; stroke: #ffffff; stroke-width: 0.48"/>
    <path d="M 292.848763 139.43567 
L 292.848763 143.678311 
L 297.091404 143.678311 
L 297.091404 139.43567 
z
" clip-path="url(#p6d7613ac92)" style="fill: #dd8452; stroke: #ffffff; stroke-width: 0.48"/>
    <path d="M 294.970083 339.54916 
C 295.765693 339.54916 296.528823 339.233061 297.091404 338.670481 
C 297.653985 338.1079 297.970083 337.344769 297.970083 336.54916 
C 297.970083 335.753551 297.653985 334.990421 297.091404 334.42784 
C 296.528823 333.865259 295.765693 333.54916 294.970083 333.54916 
C 294.174474 333.54916 293.411344 333.865259 292.848763 334.42784 
C 292.286182 334.990421 291.970083 335.753551 291.970083 336.54916 
C 291.970083 337.344769 292.286182 338.1079 292.848763 338.670481 
C 293.411344 339.233061 294.174474 339.54916 294.970083 339.54916 
z
" clip-path="url(#p6d7613ac92)" style="fill: #8172b3; stroke: #ffffff; stroke-width: 0.48"/>
    <path d="M 294.970083 325.854827 
C 295.765693 325.854827 296.528823 325.538728 297.091404 324.976148 
C 297.653985 324.413567 297.970083 323.650436 297.970083 322.854827 
C 297.970083 322.059218 297.653985 321.296088 297.091404 320.733507 
C 296.528823 320.170926 295.765693 319.854827 294.970083 319.854827 
C 294.174474 319.854827 293.411344 320.170926 292.848763 320.733507 
C 292.286182 321.296088 291.970083 322.059218 291.970083 322.854827 
C 291.970083 323.650436 292.286182 324.413567 292.848763 324.976148 
C 293.411344 325.538728 294.174474 325.854827 294.970083 325.854827 
z
" clip-path="url(#p6d7613ac92)" style="fill: #8172b3; stroke: #ffffff; stroke-width: 0.48"/>
    <path d="M 294.970083 329.89887 
C 295.765693 329.89887 296.528823 329.582771 297.091404 329.02019 
C 297.653985 328.45761 297.970083 327.694479 297.970083 326.89887 
C 297.970083 326.103261 297.653985 325.34013 297.091404 324.77755 
C 296.528823 324.214969 295.765693 323.89887 294.970083 323.89887 
C 294.174474 323.89887 293.411344 324.214969 292.848763 324.77755 
C 292.286182 325.34013 291.970083 326.103261 291.970083 326.89887 
C 291.970083 327.694479 292.286182 328.45761 292.848763 329.02019 
C 293.411344 329.582771 294.174474 329.89887 294.970083 329.89887 
z
" clip-path="url(#p6d7613ac92)" style="fill: #8172b3; stroke: #ffffff; stroke-width: 0.48"/>
    <path d="M 292.848763 313.41638 
L 292.848763 317.65902 
L 297.091404 317.65902 
L 297.091404 313.41638 
z
" clip-path="url(#p6d7613ac92)" style="fill: #8172b3; stroke: #ffffff; stroke-width: 0.48"/>
    <path d="M 292.848763 315.135272 
L 292.848763 319.377912 
L 297.091404 319.377912 
L 297.091404 315.135272 
z
" clip-path="url(#p6d7613ac92)" style="fill: #8172b3; stroke: #ffffff; stroke-width: 0.48"/>
   </g>
   <g id="line2d_12"/>
   <g id="line2d_13"/>
   <g id="line2d_14"/>
   <g id="line2d_15"/>
   <g id="line2d_16"/>
   <g id="line2d_17"/>
   <g id="line2d_18"/>
   <g id="line2d_19">
    <path d="M 42.054303 176.047258 
L 307.013692 176.047258 
" clip-path="url(#p6d7613ac92)" style="fill: none; stroke-dasharray: 5.55,2.4; stroke-dashoffset: 0; stroke: #7f7f7f; stroke-width: 1.5"/>
   </g>
   <g id="line2d_20">
    <path d="M 42.054303 219.745925 
L 307.013692 219.745925 
" clip-path="url(#p6d7613ac92)" style="fill: none; stroke-dasharray: 5.55,2.4; stroke-dashoffset: 0; stroke: #7f7f7f; stroke-width: 1.5"/>
   </g>
   <g id="line2d_21">
    <path d="M 42.054303 281.082708 
L 307.013692 281.082708 
" clip-path="url(#p6d7613ac92)" style="fill: none; stroke-dasharray: 5.55,2.4; stroke-dashoffset: 0; stroke: #7f7f7f; stroke-width: 1.5"/>
   </g>
   <g id="line2d_22">
    <path d="M 42.054303 320.765436 
L 307.013692 320.765436 
" clip-path="url(#p6d7613ac92)" style="fill: none; stroke-dasharray: 5.55,2.4; stroke-dashoffset: 0; stroke: #7f7f7f; stroke-width: 1.5"/>
   </g>
   <g id="patch_3">
    <path d="M 42.054303 352.432442 
L 42.054303 3.00024 
" style="fill: none; stroke: #cccccc; stroke-width: 1.25; stroke-linejoin: miter; stroke-linecap: square"/>
   </g>
   <g id="patch_4">
    <path d="M 307.013692 352.432442 
L 307.013692 3.00024 
" style="fill: none; stroke: #cccccc; stroke-width: 1.25; stroke-linejoin: miter; stroke-linecap: square"/>
   </g>
   <g id="patch_5">
    <path d="M 42.054303 352.432442 
L 307.013692 352.432442 
" style="fill: none; stroke: #cccccc; stroke-width: 1.25; stroke-linejoin: miter; stroke-linecap: square"/>
   </g>
   <g id="patch_6">
    <path d="M 42.054303 3.00024 
L 307.013692 3.00024 
" style="fill: none; stroke: #cccccc; stroke-width: 1.25; stroke-linejoin: miter; stroke-linecap: square"/>
   </g>
   <g id="text_14">
    <g id="patch_7">
     <path d="M 107.089789 173.938095 
L 143.104789 173.938095 
Q 143.344789 173.938095 143.344789 173.698095 
L 143.344789 162.72372 
Q 143.344789 162.48372 143.104789 162.48372 
L 107.089789 162.48372 
Q 106.849789 162.48372 106.849789 162.72372 
L 106.849789 173.698095 
Q 106.849789 173.938095 107.089789 173.938095 
z
" style="fill: #ffffff; stroke: #ffffff; stroke-linejoin: miter"/>
    </g>
    <!-- 10 min -->
    <g style="fill: #262626" transform="translate(107.089789 171.313095) scale(0.12 -0.12)">
     <use xlink:href="#ArialMT-31"/>
     <use xlink:href="#ArialMT-30" x="55.615234"/>
     <use xlink:href="#ArialMT-20" x="111.230469"/>
     <use xlink:href="#ArialMT-6d" x="139.013672"/>
     <use xlink:href="#ArialMT-69" x="222.314453"/>
     <use xlink:href="#ArialMT-6e" x="244.53125"/>
    </g>
   </g>
   <g id="text_15">
    <g id="patch_8">
     <path d="M 107.089789 217.636762 
L 143.104789 217.636762 
Q 143.344789 217.636762 143.344789 217.396762 
L 143.344789 206.422387 
Q 143.344789 206.182387 143.104789 206.182387 
L 107.089789 206.182387 
Q 106.849789 206.182387 106.849789 206.422387 
L 106.849789 217.396762 
Q 106.849789 217.636762 107.089789 217.636762 
z
" style="fill: #ffffff; stroke: #ffffff; stroke-linejoin: miter"/>
    </g>
    <!-- 20 min -->
    <g style="fill: #262626" transform="translate(107.089789 215.011762) scale(0.12 -0.12)">
     <use xlink:href="#ArialMT-32"/>
     <use xlink:href="#ArialMT-30" x="55.615234"/>
     <use xlink:href="#ArialMT-20" x="111.230469"/>
     <use xlink:href="#ArialMT-6d" x="139.013672"/>
     <use xlink:href="#ArialMT-69" x="222.314453"/>
     <use xlink:href="#ArialMT-6e" x="244.53125"/>
    </g>
   </g>
   <g id="text_16">
    <g id="patch_9">
     <path d="M 107.089789 278.973545 
L 127.765414 278.973545 
Q 128.005414 278.973545 128.005414 278.733545 
L 128.005414 267.75917 
Q 128.005414 267.51917 127.765414 267.51917 
L 107.089789 267.51917 
Q 106.849789 267.51917 106.849789 267.75917 
L 106.849789 278.733545 
Q 106.849789 278.973545 107.089789 278.973545 
z
" style="fill: #ffffff; stroke: #ffffff; stroke-linejoin: miter"/>
    </g>
    <!-- 1 hr -->
    <g style="fill: #262626" transform="translate(107.089789 276.348545) scale(0.12 -0.12)">
     <use xlink:href="#ArialMT-31"/>
     <use xlink:href="#ArialMT-20" x="55.615234"/>
     <use xlink:href="#ArialMT-68" x="83.398438"/>
     <use xlink:href="#ArialMT-72" x="139.013672"/>
    </g>
   </g>
   <g id="text_17">
    <g id="patch_10">
     <path d="M 107.089789 318.656273 
L 127.765414 318.656273 
Q 128.005414 318.656273 128.005414 318.416273 
L 128.005414 307.441898 
Q 128.005414 307.201898 127.765414 307.201898 
L 107.089789 307.201898 
Q 106.849789 307.201898 106.849789 307.441898 
L 106.849789 318.416273 
Q 106.849789 318.656273 107.089789 318.656273 
z
" style="fill: #ffffff; stroke: #ffffff; stroke-linejoin: miter"/>
    </g>
    <!-- 4 hr -->
    <g style="fill: #262626" transform="translate(107.089789 316.031273) scale(0.12 -0.12)">
     <use xlink:href="#ArialMT-34"/>
     <use xlink:href="#ArialMT-20" x="55.615234"/>
     <use xlink:href="#ArialMT-68" x="83.398438"/>
     <use xlink:href="#ArialMT-72" x="139.013672"/>
    </g>
   </g>
   <g id="legend_1">
    <g id="patch_11">
     <path d="M 314.713692 120.982115 
L 448.343067 120.982115 
Q 450.543067 120.982115 450.543067 118.782115 
L 450.543067 10.70024 
Q 450.543067 8.50024 448.343067 8.50024 
L 314.713692 8.50024 
Q 312.513692 8.50024 312.513692 10.70024 
L 312.513692 118.782115 
Q 312.513692 120.982115 314.713692 120.982115 
z
" style="fill: #ffffff; opacity: 0.8; stroke: #cccccc; stroke-linejoin: miter"/>
    </g>
    <g id="line2d_23"/>
    <g id="text_18">
     <!-- Road Surface -->
     <g style="fill: #262626" transform="translate(347.713692 20.773834) scale(0.11 -0.11)">
      <defs>
       <path id="ArialMT-64" d="M 2575 0 
L 2575 419 
Q 2259 -75 1647 -75 
Q 1250 -75 917 144 
Q 584 363 401 755 
Q 219 1147 219 1656 
Q 219 2153 384 2558 
Q 550 2963 881 3178 
Q 1213 3394 1622 3394 
Q 1922 3394 2156 3267 
Q 2391 3141 2538 2938 
L 2538 4581 
L 3097 4581 
L 3097 0 
L 2575 0 
z
M 797 1656 
Q 797 1019 1065 703 
Q 1334 388 1700 388 
Q 2069 388 2326 689 
Q 2584 991 2584 1609 
Q 2584 2291 2321 2609 
Q 2059 2928 1675 2928 
Q 1300 2928 1048 2622 
Q 797 2316 797 1656 
z
" transform="scale(0.015625)"/>
       <path id="ArialMT-66" d="M 556 0 
L 556 2881 
L 59 2881 
L 59 3319 
L 556 3319 
L 556 3672 
Q 556 4006 616 4169 
Q 697 4388 901 4523 
Q 1106 4659 1475 4659 
Q 1713 4659 2000 4603 
L 1916 4113 
Q 1741 4144 1584 4144 
Q 1328 4144 1222 4034 
Q 1116 3925 1116 3625 
L 1116 3319 
L 1763 3319 
L 1763 2881 
L 1116 2881 
L 1116 0 
L 556 0 
z
" transform="scale(0.015625)"/>
      </defs>
      <use xlink:href="#ArialMT-52"/>
      <use xlink:href="#ArialMT-6f" x="72.216797"/>
      <use xlink:href="#ArialMT-61" x="127.832031"/>
      <use xlink:href="#ArialMT-64" x="183.447266"/>
      <use xlink:href="#ArialMT-20" x="239.0625"/>
      <use xlink:href="#ArialMT-53" x="266.845703"/>
      <use xlink:href="#ArialMT-75" x="333.544922"/>
      <use xlink:href="#ArialMT-72" x="389.160156"/>
      <use xlink:href="#ArialMT-66" x="422.460938"/>
      <use xlink:href="#ArialMT-61" x="450.244141"/>
      <use xlink:href="#ArialMT-63" x="505.859375"/>
      <use xlink:href="#ArialMT-65" x="555.859375"/>
     </g>
    </g>
    <g id="line2d_24">
     <defs>
      <path id="m4bef50b3d6" d="M 0 3 
C 0.795609 3 1.55874 2.683901 2.12132 2.12132 
C 2.683901 1.55874 3 0.795609 3 0 
C 3 -0.795609 2.683901 -1.55874 2.12132 -2.12132 
C 1.55874 -2.683901 0.795609 -3 0 -3 
C -0.795609 -3 -1.55874 -2.683901 -2.12132 -2.12132 
C -2.683901 -1.55874 -3 -0.795609 -3 0 
C -3 0.795609 -2.683901 1.55874 -2.12132 2.12132 
C -1.55874 2.683901 -0.795609 3 0 3 
z
" style="stroke: #ffffff; stroke-width: 0.48"/>
     </defs>
     <g>
      <use xlink:href="#m4bef50b3d6" x="327.913692" y="32.483678" style="fill: #dd8452; stroke: #ffffff; stroke-width: 0.48"/>
     </g>
    </g>
    <g id="text_19">
     <!-- Paver Bricks -->
     <g style="fill: #262626" transform="translate(347.713692 36.333678) scale(0.11 -0.11)">
      <defs>
       <path id="ArialMT-50" d="M 494 0 
L 494 4581 
L 2222 4581 
Q 2678 4581 2919 4538 
Q 3256 4481 3484 4323 
Q 3713 4166 3852 3881 
Q 3991 3597 3991 3256 
Q 3991 2672 3619 2267 
Q 3247 1863 2275 1863 
L 1100 1863 
L 1100 0 
L 494 0 
z
M 1100 2403 
L 2284 2403 
Q 2872 2403 3119 2622 
Q 3366 2841 3366 3238 
Q 3366 3525 3220 3729 
Q 3075 3934 2838 4000 
Q 2684 4041 2272 4041 
L 1100 4041 
L 1100 2403 
z
" transform="scale(0.015625)"/>
       <path id="ArialMT-76" d="M 1344 0 
L 81 3319 
L 675 3319 
L 1388 1331 
Q 1503 1009 1600 663 
Q 1675 925 1809 1294 
L 2547 3319 
L 3125 3319 
L 1869 0 
L 1344 0 
z
" transform="scale(0.015625)"/>
      </defs>
      <use xlink:href="#ArialMT-50"/>
      <use xlink:href="#ArialMT-61" x="66.699219"/>
      <use xlink:href="#ArialMT-76" x="122.314453"/>
      <use xlink:href="#ArialMT-65" x="172.314453"/>
      <use xlink:href="#ArialMT-72" x="227.929688"/>
      <use xlink:href="#ArialMT-20" x="261.230469"/>
      <use xlink:href="#ArialMT-42" x="289.013672"/>
      <use xlink:href="#ArialMT-72" x="355.712891"/>
      <use xlink:href="#ArialMT-69" x="389.013672"/>
      <use xlink:href="#ArialMT-63" x="411.230469"/>
      <use xlink:href="#ArialMT-6b" x="461.230469"/>
      <use xlink:href="#ArialMT-73" x="511.230469"/>
     </g>
    </g>
    <g id="line2d_25">
     <defs>
      <path id="m5f8f53d144" d="M 0 3 
C 0.795609 3 1.55874 2.683901 2.12132 2.12132 
C 2.683901 1.55874 3 0.795609 3 0 
C 3 -0.795609 2.683901 -1.55874 2.12132 -2.12132 
C 1.55874 -2.683901 0.795609 -3 0 -3 
C -0.795609 -3 -1.55874 -2.683901 -2.12132 -2.12132 
C -2.683901 -1.55874 -3 -0.795609 -3 0 
C -3 0.795609 -2.683901 1.55874 -2.12132 2.12132 
C -1.55874 2.683901 -0.795609 3 0 3 
z
" style="stroke: #ffffff; stroke-width: 0.48"/>
     </defs>
     <g>
      <use xlink:href="#m5f8f53d144" x="327.913692" y="48.043521" style="fill: #8172b3; stroke: #ffffff; stroke-width: 0.48"/>
     </g>
    </g>
    <g id="text_20">
     <!-- Tarmac -->
     <g style="fill: #262626" transform="translate(347.713692 51.893521) scale(0.11 -0.11)">
      <defs>
       <path id="ArialMT-54" d="M 1659 0 
L 1659 4041 
L 150 4041 
L 150 4581 
L 3781 4581 
L 3781 4041 
L 2266 4041 
L 2266 0 
L 1659 0 
z
" transform="scale(0.015625)"/>
      </defs>
      <use xlink:href="#ArialMT-54"/>
      <use xlink:href="#ArialMT-61" x="49.958984"/>
      <use xlink:href="#ArialMT-72" x="105.574219"/>
      <use xlink:href="#ArialMT-6d" x="138.875"/>
      <use xlink:href="#ArialMT-61" x="222.175781"/>
      <use xlink:href="#ArialMT-63" x="277.791016"/>
     </g>
    </g>
    <g id="line2d_26"/>
    <g id="text_21">
     <!-- Target Speed [km/h] -->
     <g style="fill: #262626" transform="translate(347.713692 67.587427) scale(0.11 -0.11)">
      <defs>
       <path id="ArialMT-70" d="M 422 -1272 
L 422 3319 
L 934 3319 
L 934 2888 
Q 1116 3141 1344 3267 
Q 1572 3394 1897 3394 
Q 2322 3394 2647 3175 
Q 2972 2956 3137 2557 
Q 3303 2159 3303 1684 
Q 3303 1175 3120 767 
Q 2938 359 2589 142 
Q 2241 -75 1856 -75 
Q 1575 -75 1351 44 
Q 1128 163 984 344 
L 984 -1272 
L 422 -1272 
z
M 931 1641 
Q 931 1000 1190 694 
Q 1450 388 1819 388 
Q 2194 388 2461 705 
Q 2728 1022 2728 1688 
Q 2728 2322 2467 2637 
Q 2206 2953 1844 2953 
Q 1484 2953 1207 2617 
Q 931 2281 931 1641 
z
" transform="scale(0.015625)"/>
      </defs>
      <use xlink:href="#ArialMT-54"/>
      <use xlink:href="#ArialMT-61" x="49.958984"/>
      <use xlink:href="#ArialMT-72" x="105.574219"/>
      <use xlink:href="#ArialMT-67" x="138.875"/>
      <use xlink:href="#ArialMT-65" x="194.490234"/>
      <use xlink:href="#ArialMT-74" x="250.105469"/>
      <use xlink:href="#ArialMT-20" x="277.888672"/>
      <use xlink:href="#ArialMT-53" x="305.671875"/>
      <use xlink:href="#ArialMT-70" x="372.371094"/>
      <use xlink:href="#ArialMT-65" x="427.986328"/>
      <use xlink:href="#ArialMT-65" x="483.601562"/>
      <use xlink:href="#ArialMT-64" x="539.216797"/>
      <use xlink:href="#ArialMT-20" x="594.832031"/>
      <use xlink:href="#ArialMT-5b" x="622.615234"/>
      <use xlink:href="#ArialMT-6b" x="650.398438"/>
      <use xlink:href="#ArialMT-6d" x="700.398438"/>
      <use xlink:href="#ArialMT-2f" x="783.699219"/>
      <use xlink:href="#ArialMT-68" x="811.482422"/>
      <use xlink:href="#ArialMT-5d" x="867.097656"/>
     </g>
    </g>
    <g id="line2d_27">
     <defs>
      <path id="m0f6034d794" d="M 0 3 
C 0.795609 3 1.55874 2.683901 2.12132 2.12132 
C 2.683901 1.55874 3 0.795609 3 0 
C 3 -0.795609 2.683901 -1.55874 2.12132 -2.12132 
C 1.55874 -2.683901 0.795609 -3 0 -3 
C -0.795609 -3 -1.55874 -2.683901 -2.12132 -2.12132 
C -2.683901 -1.55874 -3 -0.795609 -3 0 
C -3 0.795609 -2.683901 1.55874 -2.12132 2.12132 
C -1.55874 2.683901 -0.795609 3 0 3 
z
" style="stroke: #ffffff; stroke-width: 0.48"/>
     </defs>
     <g>
      <use xlink:href="#m0f6034d794" x="327.913692" y="79.426178" style="fill: #333333; stroke: #ffffff; stroke-width: 0.48"/>
     </g>
    </g>
    <g id="text_22">
     <!-- 12 -->
     <g style="fill: #262626" transform="translate(347.713692 83.276178) scale(0.11 -0.11)">
      <use xlink:href="#ArialMT-31"/>
      <use xlink:href="#ArialMT-32" x="55.615234"/>
     </g>
    </g>
    <g id="line2d_28">
     <defs>
      <path id="m1a36e7e5b7" d="M -1.5 3 
L 0 1.5 
L 1.5 3 
L 3 1.5 
L 1.5 0 
L 3 -1.5 
L 1.5 -3 
L 0 -1.5 
L -1.5 -3 
L -3 -1.5 
L -1.5 0 
L -3 1.5 
z
" style="stroke: #ffffff; stroke-width: 0.48; stroke-linejoin: miter"/>
     </defs>
     <g>
      <use xlink:href="#m1a36e7e5b7" x="327.913692" y="94.986021" style="fill: #333333; stroke: #ffffff; stroke-width: 0.48; stroke-linejoin: miter"/>
     </g>
    </g>
    <g id="text_23">
     <!-- 20 -->
     <g style="fill: #262626" transform="translate(347.713692 98.836021) scale(0.11 -0.11)">
      <use xlink:href="#ArialMT-32"/>
      <use xlink:href="#ArialMT-30" x="55.615234"/>
     </g>
    </g>
    <g id="line2d_29">
     <defs>
      <path id="m88737e78a2" d="M -2.12132 -2.12132 
L -2.12132 2.12132 
L 2.12132 2.12132 
L 2.12132 -2.12132 
z
" style="stroke: #ffffff; stroke-width: 0.48; stroke-linejoin: miter"/>
     </defs>
     <g>
      <use xlink:href="#m88737e78a2" x="327.913692" y="110.545865" style="fill: #333333; stroke: #ffffff; stroke-width: 0.48; stroke-linejoin: miter"/>
     </g>
    </g>
    <g id="text_24">
     <!-- 25 -->
     <g style="fill: #262626" transform="translate(347.713692 114.395865) scale(0.11 -0.11)">
      <defs>
       <path id="ArialMT-35" d="M 266 1200 
L 856 1250 
Q 922 819 1161 601 
Q 1400 384 1738 384 
Q 2144 384 2425 690 
Q 2706 997 2706 1503 
Q 2706 1984 2436 2262 
Q 2166 2541 1728 2541 
Q 1456 2541 1237 2417 
Q 1019 2294 894 2097 
L 366 2166 
L 809 4519 
L 3088 4519 
L 3088 3981 
L 1259 3981 
L 1013 2750 
Q 1425 3038 1878 3038 
Q 2478 3038 2890 2622 
Q 3303 2206 3303 1553 
Q 3303 931 2941 478 
Q 2500 -78 1738 -78 
Q 1113 -78 717 272 
Q 322 622 266 1200 
z
" transform="scale(0.015625)"/>
      </defs>
      <use xlink:href="#ArialMT-32"/>
      <use xlink:href="#ArialMT-35" x="55.615234"/>
     </g>
    </g>
   </g>
  </g>
 </g>
 <defs>
  <clipPath id="p6d7613ac92">
   <rect x="42.054303" y="3.00024" width="264.95939" height="349.432202"/>
  </clipPath>
 </defs>
</svg>
